<svg version="1.1" viewBox="0.0 0.0 600.0 371.0" fill="none" stroke="none" stroke-linecap="square" stroke-miterlimit="10" width="600" height="371" xmlns:xlink="http://www.w3.org/1999/xlink" xmlns="http://www.w3.org/2000/svg"><path fill="#ffffff" d="M0 0L600.0 0L600.0 371.0L0 371.0L0 0Z" fill-rule="nonzero"/><path stroke="#cccccc" stroke-width="1.0" stroke-linecap="butt" d="M134.5 88.5L134.5 332.5" fill-rule="nonzero"/><path stroke="#cccccc" stroke-width="1.0" stroke-linecap="butt" d="M283.5 88.5L283.5 332.5" fill-rule="nonzero"/><path stroke="#cccccc" stroke-width="1.0" stroke-linecap="butt" d="M432.5 88.5L432.5 332.5" fill-rule="nonzero"/><path stroke="#cccccc" stroke-width="1.0" stroke-linecap="butt" d="M581.5 88.5L581.5 332.5" fill-rule="nonzero"/><path stroke="#333333" stroke-width="1.0" stroke-linecap="butt" d="M45.5 332.5L581.5 332.5" fill-rule="nonzero"/><path stroke="#cccccc" stroke-width="1.0" stroke-linecap="butt" d="M45.5 271.5L581.5 271.5" fill-rule="nonzero"/><path stroke="#cccccc" stroke-width="1.0" stroke-linecap="butt" d="M45.5 210.5L581.5 210.5" fill-rule="nonzero"/><path stroke="#cccccc" stroke-width="1.0" stroke-linecap="butt" d="M45.5 149.5L581.5 149.5" fill-rule="nonzero"/><path stroke="#cccccc" stroke-width="1.0" stroke-linecap="butt" d="M45.5 88.5L581.5 88.5" fill-rule="nonzero"/><clipPath id="id_0"><path d="M45.55 88.28333L581.45 88.28333L581.45 332.45L45.55 332.45L45.55 88.28333Z" clip-rule="nonzero"/></clipPath><path stroke="#4285f4" stroke-width="2.0" stroke-linecap="butt" clip-path="url(#id_0)" d="M45.55 317.43375L75.32222 314.45798L105.094444 305.2254L134.86667 297.04584L164.63889 288.1948L194.41112 278.59598L224.18333 268.55463L253.95555 260.0851L283.72778 249.14339L313.5 238.73578L343.27222 232.55531L373.04443 222.59026L402.81668 214.25807L432.5889 200.24901L462.3611 196.98328L492.13333 187.97963L521.9056 179.61693L551.6778 172.21562L581.45 164.73802" fill-rule="nonzero"/><path stroke="#ea4335" stroke-width="2.0" stroke-linecap="butt" clip-path="url(#id_0)" d="M45.55 323.41583L75.32222 314.53427L105.094444 305.63745L134.86667 296.6796L164.63889 287.64542L194.41112 279.0233L224.18333 269.66864L253.95555 258.5743L283.72778 250.12006L313.5 242.00151L343.27222 232.06699L373.04443 225.44395L402.81668 215.35683L432.5889 204.52193L462.3611 198.05151L492.13333 186.01105L521.9056 183.15735L551.6778 179.17438L581.45 172.78026" fill-rule="nonzero"/><path fill="#000000" fill-opacity="0.0" clip-path="url(#id_0)" d="M48.55 317.43375C48.55 319.0906 47.206856 320.43375 45.55 320.43375C43.893147 320.43375 42.55 319.0906 42.55 317.43375C42.55 315.7769 43.893147 314.43375 45.55 314.43375C47.206856 314.43375 48.55 315.7769 48.55 317.43375Z" fill-rule="nonzero"/><path fill="#000000" fill-opacity="0.0" clip-path="url(#id_0)" d="M78.32222 314.45798C78.32222 316.11484 76.97908 317.45798 75.32222 317.45798C73.66537 317.45798 72.32222 316.11484 72.32222 314.45798C72.32222 312.80112 73.66537 311.45798 75.32222 311.45798C76.97908 311.45798 78.32222 312.80112 78.32222 314.45798Z" fill-rule="nonzero"/><path fill="#000000" fill-opacity="0.0" clip-path="url(#id_0)" d="M108.094444 305.2254C108.094444 306.88226 106.7513 308.2254 105.094444 308.2254C103.43759 308.2254 102.094444 306.88226 102.094444 305.2254C102.094444 303.56857 103.43759 302.2254 105.094444 302.2254C106.7513 302.2254 108.094444 303.56857 108.094444 305.2254Z" fill-rule="nonzero"/><path fill="#000000" fill-opacity="0.0" clip-path="url(#id_0)" d="M137.86667 297.04584C137.86667 298.7027 136.52351 300.04584 134.86667 300.04584C133.20981 300.04584 131.86667 298.7027 131.86667 297.04584C131.86667 295.38898 133.20981 294.04584 134.86667 294.04584C136.52351 294.04584 137.86667 295.38898 137.86667 297.04584Z" fill-rule="nonzero"/><path fill="#000000" fill-opacity="0.0" clip-path="url(#id_0)" d="M167.63889 288.1948C167.63889 289.85165 166.29575 291.1948 164.63889 291.1948C162.98204 291.1948 161.63889 289.85165 161.63889 288.1948C161.63889 286.53793 162.98204 285.1948 164.63889 285.1948C166.29575 285.1948 167.63889 286.53793 167.63889 288.1948Z" fill-rule="nonzero"/><path fill="#000000" fill-opacity="0.0" clip-path="url(#id_0)" d="M197.41112 278.59598C197.41112 280.25284 196.06796 281.59598 194.41112 281.59598C192.75426 281.59598 191.41112 280.25284 191.41112 278.59598C191.41112 276.93915 192.75426 275.59598 194.41112 275.59598C196.06796 275.59598 197.41112 276.93915 197.41112 278.59598Z" fill-rule="nonzero"/><path fill="#000000" fill-opacity="0.0" clip-path="url(#id_0)" d="M227.18333 268.55463C227.18333 270.2115 225.8402 271.55463 224.18333 271.55463C222.52647 271.55463 221.18333 270.2115 221.18333 268.55463C221.18333 266.89777 222.52647 265.55463 224.18333 265.55463C225.8402 265.55463 227.18333 266.89777 227.18333 268.55463Z" fill-rule="nonzero"/><path fill="#000000" fill-opacity="0.0" clip-path="url(#id_0)" d="M256.95557 260.0851C256.95557 261.74194 255.61241 263.0851 253.95555 263.0851C252.2987 263.0851 250.95555 261.74194 250.95555 260.0851C250.95555 258.42825 252.2987 257.0851 253.95555 257.0851C255.61241 257.0851 256.95557 258.42825 256.95557 260.0851Z" fill-rule="nonzero"/><path fill="#000000" fill-opacity="0.0" clip-path="url(#id_0)" d="M286.72778 249.14339C286.72778 250.80025 285.38464 252.14339 283.72778 252.14339C282.07092 252.14339 280.72778 250.80025 280.72778 249.14339C280.72778 247.48653 282.07092 246.14339 283.72778 246.14339C285.38464 246.14339 286.72778 247.48653 286.72778 249.14339Z" fill-rule="nonzero"/><path fill="#000000" fill-opacity="0.0" clip-path="url(#id_0)" d="M316.5 238.73578C316.5 240.39264 315.15686 241.73578 313.5 241.73578C311.84314 241.73578 310.5 240.39264 310.5 238.73578C310.5 237.07893 311.84314 235.73578 313.5 235.73578C315.15686 235.73578 316.5 237.07893 316.5 238.73578Z" fill-rule="nonzero"/><path fill="#000000" fill-opacity="0.0" clip-path="url(#id_0)" d="M346.27222 232.55531C346.27222 234.21217 344.92908 235.55531 343.27222 235.55531C341.61536 235.55531 340.27222 234.21217 340.27222 232.55531C340.27222 230.89845 341.61536 229.55531 343.27222 229.55531C344.92908 229.55531 346.27222 230.89845 346.27222 232.55531Z" fill-rule="nonzero"/><path fill="#000000" fill-opacity="0.0" clip-path="url(#id_0)" d="M376.04443 222.59026C376.04443 224.24712 374.7013 225.59026 373.04443 225.59026C371.3876 225.59026 370.04443 224.24712 370.04443 222.59026C370.04443 220.93341 371.3876 219.59026 373.04443 219.59026C374.7013 219.59026 376.04443 220.93341 376.04443 222.59026Z" fill-rule="nonzero"/><path fill="#000000" fill-opacity="0.0" clip-path="url(#id_0)" d="M405.81668 214.25807C405.81668 215.91493 404.4735 217.25807 402.81668 217.25807C401.15982 217.25807 399.81668 215.91493 399.81668 214.25807C399.81668 212.60121 401.15982 211.25807 402.81668 211.25807C404.4735 211.25807 405.81668 212.60121 405.81668 214.25807Z" fill-rule="nonzero"/><path fill="#000000" fill-opacity="0.0" clip-path="url(#id_0)" d="M435.5889 200.24901C435.5889 201.90587 434.24576 203.24901 432.5889 203.24901C430.93204 203.24901 429.5889 201.90587 429.5889 200.24901C429.5889 198.59216 430.93204 197.24901 432.5889 197.24901C434.24576 197.24901 435.5889 198.59216 435.5889 200.24901Z" fill-rule="nonzero"/><path fill="#000000" fill-opacity="0.0" clip-path="url(#id_0)" d="M465.3611 196.98328C465.3611 198.64014 464.01797 199.98328 462.3611 199.98328C460.70425 199.98328 459.3611 198.64014 459.3611 196.98328C459.3611 195.32643 460.70425 193.98328 462.3611 193.98328C464.01797 193.98328 465.3611 195.32643 465.3611 196.98328Z" fill-rule="nonzero"/><path fill="#000000" fill-opacity="0.0" clip-path="url(#id_0)" d="M495.13333 187.97963C495.13333 189.63649 493.7902 190.97963 492.13333 190.97963C490.47647 190.97963 489.13333 189.63649 489.13333 187.97963C489.13333 186.32278 490.47647 184.97963 492.13333 184.97963C493.7902 184.97963 495.13333 186.32278 495.13333 187.97963Z" fill-rule="nonzero"/><path fill="#000000" fill-opacity="0.0" clip-path="url(#id_0)" d="M524.9056 179.61693C524.9056 181.27379 523.56244 182.61693 521.9056 182.61693C520.2487 182.61693 518.9056 181.27379 518.9056 179.61693C518.9056 177.96007 520.2487 176.61693 521.9056 176.61693C523.56244 176.61693 524.9056 177.96007 524.9056 179.61693Z" fill-rule="nonzero"/><path fill="#000000" fill-opacity="0.0" clip-path="url(#id_0)" d="M554.6778 172.21562C554.6778 173.87248 553.33466 175.21562 551.6778 175.21562C550.02094 175.21562 548.6778 173.87248 548.6778 172.21562C548.6778 170.55878 550.02094 169.21562 551.6778 169.21562C553.33466 169.21562 554.6778 170.55878 554.6778 172.21562Z" fill-rule="nonzero"/><path fill="#000000" fill-opacity="0.0" clip-path="url(#id_0)" d="M584.45 164.73802C584.45 166.39488 583.1069 167.73802 581.45 167.73802C579.79315 167.73802 578.45 166.39488 578.45 164.73802C578.45 163.08116 579.79315 161.73802 581.45 161.73802C583.1069 161.73802 584.45 163.08116 584.45 164.73802Z" fill-rule="nonzero"/><path fill="#000000" fill-opacity="0.0" clip-path="url(#id_0)" d="M48.55 323.41583C48.55 325.0727 47.206856 326.41583 45.55 326.41583C43.893147 326.41583 42.55 325.0727 42.55 323.41583C42.55 321.75897 43.893147 320.41583 45.55 320.41583C47.206856 320.41583 48.55 321.75897 48.55 323.41583Z" fill-rule="nonzero"/><path fill="#000000" fill-opacity="0.0" clip-path="url(#id_0)" d="M78.32222 314.53427C78.32222 316.19113 76.97908 317.53427 75.32222 317.53427C73.66537 317.53427 72.32222 316.19113 72.32222 314.53427C72.32222 312.8774 73.66537 311.53427 75.32222 311.53427C76.97908 311.53427 78.32222 312.8774 78.32222 314.53427Z" fill-rule="nonzero"/><path fill="#000000" fill-opacity="0.0" clip-path="url(#id_0)" d="M108.094444 305.63745C108.094444 307.2943 106.7513 308.63745 105.094444 308.63745C103.43759 308.63745 102.094444 307.2943 102.094444 305.63745C102.094444 303.9806 103.43759 302.63745 105.094444 302.63745C106.7513 302.63745 108.094444 303.9806 108.094444 305.63745Z" fill-rule="nonzero"/><path fill="#000000" fill-opacity="0.0" clip-path="url(#id_0)" d="M137.86667 296.6796C137.86667 298.33643 136.52351 299.6796 134.86667 299.6796C133.20981 299.6796 131.86667 298.33643 131.86667 296.6796C131.86667 295.02274 133.20981 293.6796 134.86667 293.6796C136.52351 293.6796 137.86667 295.02274 137.86667 296.6796Z" fill-rule="nonzero"/><path fill="#000000" fill-opacity="0.0" clip-path="url(#id_0)" d="M167.63889 287.64542C167.63889 289.30228 166.29575 290.64542 164.63889 290.64542C162.98204 290.64542 161.63889 289.30228 161.63889 287.64542C161.63889 285.98856 162.98204 284.64542 164.63889 284.64542C166.29575 284.64542 167.63889 285.98856 167.63889 287.64542Z" fill-rule="nonzero"/><path fill="#000000" fill-opacity="0.0" clip-path="url(#id_0)" d="M197.41112 279.0233C197.41112 280.68015 196.06796 282.0233 194.41112 282.0233C192.75426 282.0233 191.41112 280.68015 191.41112 279.0233C191.41112 277.36642 192.75426 276.0233 194.41112 276.0233C196.06796 276.0233 197.41112 277.36642 197.41112 279.0233Z" fill-rule="nonzero"/><path fill="#000000" fill-opacity="0.0" clip-path="url(#id_0)" d="M227.18333 269.66864C227.18333 271.3255 225.8402 272.66864 224.18333 272.66864C222.52647 272.66864 221.18333 271.3255 221.18333 269.66864C221.18333 268.01178 222.52647 266.66864 224.18333 266.66864C225.8402 266.66864 227.18333 268.01178 227.18333 269.66864Z" fill-rule="nonzero"/><path fill="#000000" fill-opacity="0.0" clip-path="url(#id_0)" d="M256.95557 258.5743C256.95557 260.23117 255.61241 261.5743 253.95555 261.5743C252.2987 261.5743 250.95555 260.23117 250.95555 258.5743C250.95555 256.91748 252.2987 255.57433 253.95555 255.57433C255.61241 255.57433 256.95557 256.91748 256.95557 258.5743Z" fill-rule="nonzero"/><path fill="#000000" fill-opacity="0.0" clip-path="url(#id_0)" d="M286.72778 250.12006C286.72778 251.7769 285.38464 253.12006 283.72778 253.12006C282.07092 253.12006 280.72778 251.7769 280.72778 250.12006C280.72778 248.4632 282.07092 247.12006 283.72778 247.12006C285.38464 247.12006 286.72778 248.4632 286.72778 250.12006Z" fill-rule="nonzero"/><path fill="#000000" fill-opacity="0.0" clip-path="url(#id_0)" d="M316.5 242.00151C316.5 243.65837 315.15686 245.00151 313.5 245.00151C311.84314 245.00151 310.5 243.65837 310.5 242.00151C310.5 240.34465 311.84314 239.00151 313.5 239.00151C315.15686 239.00151 316.5 240.34465 316.5 242.00151Z" fill-rule="nonzero"/><path fill="#000000" fill-opacity="0.0" clip-path="url(#id_0)" d="M346.27222 232.06699C346.27222 233.72383 344.92908 235.06699 343.27222 235.06699C341.61536 235.06699 340.27222 233.72383 340.27222 232.06699C340.27222 230.41013 341.61536 229.06699 343.27222 229.06699C344.92908 229.06699 346.27222 230.41013 346.27222 232.06699Z" fill-rule="nonzero"/><path fill="#000000" fill-opacity="0.0" clip-path="url(#id_0)" d="M376.04443 225.44395C376.04443 227.10081 374.7013 228.44395 373.04443 228.44395C371.3876 228.44395 370.04443 227.10081 370.04443 225.44395C370.04443 223.78711 371.3876 222.44395 373.04443 222.44395C374.7013 222.44395 376.04443 223.78711 376.04443 225.44395Z" fill-rule="nonzero"/><path fill="#000000" fill-opacity="0.0" clip-path="url(#id_0)" d="M405.81668 215.35683C405.81668 217.01367 404.4735 218.35683 402.81668 218.35683C401.15982 218.35683 399.81668 217.01367 399.81668 215.35683C399.81668 213.69997 401.15982 212.35683 402.81668 212.35683C404.4735 212.35683 405.81668 213.69997 405.81668 215.35683Z" fill-rule="nonzero"/><path fill="#000000" fill-opacity="0.0" clip-path="url(#id_0)" d="M435.5889 204.52193C435.5889 206.17879 434.24576 207.52193 432.5889 207.52193C430.93204 207.52193 429.5889 206.17879 429.5889 204.52193C429.5889 202.86507 430.93204 201.52193 432.5889 201.52193C434.24576 201.52193 435.5889 202.86507 435.5889 204.52193Z" fill-rule="nonzero"/><path fill="#000000" fill-opacity="0.0" clip-path="url(#id_0)" d="M465.3611 198.05151C465.3611 199.70836 464.01797 201.05151 462.3611 201.05151C460.70425 201.05151 459.3611 199.70836 459.3611 198.05151C459.3611 196.39465 460.70425 195.05151 462.3611 195.05151C464.01797 195.05151 465.3611 196.39465 465.3611 198.05151Z" fill-rule="nonzero"/><path fill="#000000" fill-opacity="0.0" clip-path="url(#id_0)" d="M495.13333 186.01105C495.13333 187.6679 493.7902 189.01105 492.13333 189.01105C490.47647 189.01105 489.13333 187.6679 489.13333 186.01105C489.13333 184.35419 490.47647 183.01105 492.13333 183.01105C493.7902 183.01105 495.13333 184.35419 495.13333 186.01105Z" fill-rule="nonzero"/><path fill="#000000" fill-opacity="0.0" clip-path="url(#id_0)" d="M524.9056 183.15735C524.9056 184.8142 523.56244 186.15735 521.9056 186.15735C520.2487 186.15735 518.9056 184.8142 518.9056 183.15735C518.9056 181.50049 520.2487 180.15735 521.9056 180.15735C523.56244 180.15735 524.9056 181.50049 524.9056 183.15735Z" fill-rule="nonzero"/><path fill="#000000" fill-opacity="0.0" clip-path="url(#id_0)" d="M554.6778 179.17438C554.6778 180.83122 553.33466 182.17438 551.6778 182.17438C550.02094 182.17438 548.6778 180.83122 548.6778 179.17438C548.6778 177.51752 550.02094 176.17438 551.6778 176.17438C553.33466 176.17438 554.6778 177.51752 554.6778 179.17438Z" fill-rule="nonzero"/><path fill="#000000" fill-opacity="0.0" clip-path="url(#id_0)" d="M584.45 172.78026C584.45 174.43712 583.1069 175.78026 581.45 175.78026C579.79315 175.78026 578.45 174.43712 578.45 172.78026C578.45 171.12341 579.79315 169.78026 581.45 169.78026C583.1069 169.78026 584.45 171.12341 584.45 172.78026Z" fill-rule="nonzero"/><path fill="#000000" d="M33.05 332.21564Q33.05 330.6844 33.3625 329.7625Q33.675 328.825 34.284374 328.325Q34.909374 327.825 35.846874 327.825Q36.534374 327.825 37.05 328.10626Q37.58125 328.3875 37.925 328.91876Q38.26875 329.4344 38.45625 330.1844Q38.64375 330.9344 38.64375 332.21564Q38.64375 333.73126 38.33125 334.65314Q38.034374 335.575 37.409374 336.09064Q36.8 336.59064 35.846874 336.59064Q34.6125 336.59064 33.89375 335.7Q33.05 334.6375 33.05 332.21564ZM34.128124 332.21564Q34.128124 334.325 34.628124 335.02814Q35.128124 335.73126 35.846874 335.73126Q36.58125 335.73126 37.065624 335.02814Q37.565624 334.325 37.565624 332.21564Q37.565624 330.09064 37.065624 329.40314Q36.58125 328.7 35.83125 328.7Q35.1125 328.7 34.675 329.3094Q34.128124 330.09064 34.128124 332.21564Z" fill-rule="nonzero"/><path fill="#000000" d="M31.596874 274.3927L31.596874 275.40833L25.909374 275.40833Q25.909374 275.03333 26.034374 274.67395Q26.253124 274.09583 26.721874 273.53333Q27.20625 272.97083 28.1125 272.23645Q29.51875 271.0802 30.003124 270.40833Q30.503124 269.73645 30.503124 269.1427Q30.503124 268.5177 30.05 268.09583Q29.596874 267.65833 28.878124 267.65833Q28.1125 267.65833 27.659374 268.11145Q27.20625 268.56458 27.190624 269.37708L26.1125 269.2677Q26.221874 268.04895 26.940624 267.42395Q27.675 266.78333 28.909374 266.78333Q30.14375 266.78333 30.8625 267.47083Q31.58125 268.15833 31.58125 269.17395Q31.58125 269.68958 31.3625 270.18958Q31.159374 270.67395 30.659374 271.23645Q30.175 271.78333 29.05 272.73645Q28.096874 273.53333 27.815624 273.8302Q27.55 274.11145 27.378124 274.3927L31.596874 274.3927ZM33.05 271.17395Q33.05 269.6427 33.3625 268.72083Q33.675 267.78333 34.284374 267.28333Q34.909374 266.78333 35.846874 266.78333Q36.534374 266.78333 37.05 267.06458Q37.58125 267.34583 37.925 267.87708Q38.26875 268.3927 38.45625 269.1427Q38.64375 269.8927 38.64375 271.17395Q38.64375 272.68958 38.33125 273.61145Q38.034374 274.53333 37.409374 275.04895Q36.8 275.54895 35.846874 275.54895Q34.6125 275.54895 33.89375 274.65833Q33.05 273.59583 33.05 271.17395ZM34.128124 271.17395Q34.128124 273.28333 34.628124 273.98645Q35.128124 274.68958 35.846874 274.68958Q36.58125 274.68958 37.065624 273.98645Q37.565624 273.28333 37.565624 271.17395Q37.565624 269.04895 37.065624 268.36145Q36.58125 267.65833 35.83125 267.65833Q35.1125 267.65833 34.675 268.2677Q34.128124 269.04895 34.128124 271.17395Z" fill-rule="nonzero"/><path fill="#000000" d="M29.425 214.36667L29.425 212.30417L25.70625 212.30417L25.70625 211.33542L29.628124 205.77292L30.4875 205.77292L30.4875 211.33542L31.64375 211.33542L31.64375 212.30417L30.4875 212.30417L30.4875 214.36667L29.425 214.36667ZM29.425 211.33542L29.425 207.47604L26.7375 211.33542L29.425 211.33542ZM33.05 210.1323Q33.05 208.60104 33.3625 207.67917Q33.675 206.74167 34.284374 206.24167Q34.909374 205.74167 35.846874 205.74167Q36.534374 205.74167 37.05 206.02292Q37.58125 206.30417 37.925 206.83542Q38.26875 207.35104 38.45625 208.10104Q38.64375 208.85104 38.64375 210.1323Q38.64375 211.64792 38.33125 212.5698Q38.034374 213.49167 37.409374 214.0073Q36.8 214.5073 35.846874 214.5073Q34.6125 214.5073 33.89375 213.61667Q33.05 212.55417 33.05 210.1323ZM34.128124 210.1323Q34.128124 212.24167 34.628124 212.9448Q35.128124 213.64792 35.846874 213.64792Q36.58125 213.64792 37.065624 212.9448Q37.565624 212.24167 37.565624 210.1323Q37.565624 208.0073 37.065624 207.3198Q36.58125 206.61667 35.83125 206.61667Q35.1125 206.61667 34.675 207.22604Q34.128124 208.0073 34.128124 210.1323Z" fill-rule="nonzero"/><path fill="#000000" d="M31.51875 146.84062L30.471874 146.91875Q30.33125 146.29375 30.08125 146.0125Q29.64375 145.55937 29.01875 145.55937Q28.51875 145.55937 28.128124 145.84062Q27.64375 146.21562 27.346874 146.91875Q27.065624 147.60625 27.05 148.8875Q27.425 148.30937 27.971874 148.02812Q28.534374 147.74687 29.14375 147.74687Q30.190624 147.74687 30.925 148.52812Q31.675 149.30937 31.675 150.52812Q31.675 151.34062 31.315624 152.04375Q30.971874 152.73125 30.3625 153.10625Q29.753124 153.46562 28.9875 153.46562Q27.659374 153.46562 26.83125 152.49687Q26.003124 151.52812 26.003124 149.30937Q26.003124 146.80937 26.925 145.68437Q27.721874 144.7 29.08125 144.7Q30.096874 144.7 30.7375 145.27812Q31.39375 145.84062 31.51875 146.84062ZM27.221874 150.54375Q27.221874 151.09062 27.440624 151.59062Q27.675 152.075 28.08125 152.34062Q28.503124 152.60625 28.971874 152.60625Q29.628124 152.60625 30.1125 152.075Q30.596874 151.52812 30.596874 150.60625Q30.596874 149.71562 30.1125 149.2Q29.64375 148.68437 28.925 148.68437Q28.20625 148.68437 27.70625 149.2Q27.221874 149.71562 27.221874 150.54375ZM33.05 149.09062Q33.05 147.55937 33.3625 146.6375Q33.675 145.7 34.284374 145.2Q34.909374 144.7 35.846874 144.7Q36.534374 144.7 37.05 144.98125Q37.58125 145.2625 37.925 145.79375Q38.26875 146.30937 38.45625 147.05937Q38.64375 147.80937 38.64375 149.09062Q38.64375 150.60625 38.33125 151.52812Q38.034374 152.45 37.409374 152.96562Q36.8 153.46562 35.846874 153.46562Q34.6125 153.46562 33.89375 152.575Q33.05 151.5125 33.05 149.09062ZM34.128124 149.09062Q34.128124 151.2 34.628124 151.90312Q35.128124 152.60625 35.846874 152.60625Q36.58125 152.60625 37.065624 151.90312Q37.565624 151.2 37.565624 149.09062Q37.565624 146.96562 37.065624 146.27812Q36.58125 145.575 35.83125 145.575Q35.1125 145.575 34.675 146.18437Q34.128124 146.96562 34.128124 149.09062Z" fill-rule="nonzero"/><path fill="#000000" d="M27.675 87.62708Q27.01875 87.37708 26.690624 86.93958Q26.378124 86.48646 26.378124 85.87708Q26.378124 84.93958 27.05 84.29896Q27.7375 83.65833 28.846874 83.65833Q29.971874 83.65833 30.659374 84.31458Q31.346874 84.97083 31.346874 85.90833Q31.346874 86.50208 31.034374 86.93958Q30.721874 87.37708 30.08125 87.62708Q30.878124 87.87708 31.284374 88.45521Q31.690624 89.03333 31.690624 89.83021Q31.690624 90.92396 30.909374 91.67396Q30.14375 92.42396 28.8625 92.42396Q27.596874 92.42396 26.815624 91.67396Q26.034374 90.92396 26.034374 89.79896Q26.034374 88.95521 26.45625 88.39271Q26.89375 87.83021 27.675 87.62708ZM27.45625 85.83021Q27.45625 86.43958 27.846874 86.83021Q28.253124 87.22083 28.878124 87.22083Q29.4875 87.22083 29.878124 86.84583Q30.26875 86.45521 30.26875 85.89271Q30.26875 85.31458 29.8625 84.92396Q29.45625 84.51771 28.8625 84.51771Q28.253124 84.51771 27.846874 84.90833Q27.45625 85.29896 27.45625 85.83021ZM27.128124 89.79896Q27.128124 90.25208 27.33125 90.67396Q27.55 91.09583 27.971874 91.33021Q28.39375 91.56458 28.878124 91.56458Q29.628124 91.56458 30.1125 91.08021Q30.6125 90.59583 30.6125 89.84583Q30.6125 89.08021 30.1125 88.58021Q29.6125 88.08021 28.846874 88.08021Q28.096874 88.08021 27.6125 88.58021Q27.128124 89.06458 27.128124 89.79896ZM33.05 88.04896Q33.05 86.51771 33.3625 85.59583Q33.675 84.65833 34.284374 84.15833Q34.909374 83.65833 35.846874 83.65833Q36.534374 83.65833 37.05 83.93958Q37.58125 84.22083 37.925 84.75208Q38.26875 85.26771 38.45625 86.01771Q38.64375 86.76771 38.64375 88.04896Q38.64375 89.56458 38.33125 90.48646Q38.034374 91.40833 37.409374 91.92396Q36.8 92.42396 35.846874 92.42396Q34.6125 92.42396 33.89375 91.53333Q33.05 90.47083 33.05 88.04896ZM34.128124 88.04896Q34.128124 90.15833 34.628124 90.86146Q35.128124 91.56458 35.846874 91.56458Q36.58125 91.56458 37.065624 90.86146Q37.565624 90.15833 37.565624 88.04896Q37.565624 85.92396 37.065624 85.23646Q36.58125 84.53333 35.83125 84.53333Q35.1125 84.53333 34.675 85.14271Q34.128124 85.92396 34.128124 88.04896Z" fill-rule="nonzero"/><path fill="#000000" d="M131.86667 347.2L132.97604 347.10626Q133.10104 347.91876 133.53854 348.325Q133.99167 348.73126 134.6323 348.73126Q135.3823 348.73126 135.91354 348.15314Q136.4448 347.575 136.4448 346.6375Q136.4448 345.73126 135.92917 345.21564Q135.42917 344.6844 134.60104 344.6844Q134.10104 344.6844 133.67917 344.91876Q133.27292 345.15314 133.03854 345.5125L132.05417 345.3875L132.8823 340.98126L137.16354 340.98126L137.16354 341.98126L133.72604 341.98126L133.27292 344.29376Q134.03854 343.7469 134.8823 343.7469Q136.0073 343.7469 136.77292 344.52814Q137.55417 345.3094 137.55417 346.54376Q137.55417 347.7 136.8823 348.5594Q136.05417 349.59064 134.6323 349.59064Q133.46042 349.59064 132.71042 348.9344Q131.97604 348.27814 131.86667 347.2Z" fill-rule="nonzero"/><path fill="#000000" d="M281.19653 349.45L280.14966 349.45L280.14966 342.73126Q279.75903 343.09064 279.13403 343.46564Q278.52466 343.825 278.04028 343.9969L278.04028 342.98126Q278.91528 342.5594 279.57153 341.98126Q280.2434 341.3875 280.52466 340.825L281.19653 340.825L281.19653 349.45ZM284.22778 345.21564Q284.22778 343.6844 284.54028 342.7625Q284.85278 341.825 285.46216 341.325Q286.08716 340.825 287.02466 340.825Q287.71216 340.825 288.22778 341.10626Q288.75903 341.3875 289.10278 341.91876Q289.44653 342.4344 289.63403 343.1844Q289.82153 343.9344 289.82153 345.21564Q289.82153 346.73126 289.50903 347.65314Q289.21216 348.575 288.58716 349.09064Q287.97778 349.59064 287.02466 349.59064Q285.79028 349.59064 285.07153 348.7Q284.22778 347.6375 284.22778 345.21564ZM285.3059 345.21564Q285.3059 347.325 285.8059 348.02814Q286.3059 348.73126 287.02466 348.73126Q287.75903 348.73126 288.2434 348.02814Q288.7434 347.325 288.7434 345.21564Q288.7434 343.09064 288.2434 342.40314Q287.75903 341.7 287.00903 341.7Q286.29028 341.7 285.85278 342.3094Q285.3059 343.09064 285.3059 345.21564Z" fill-rule="nonzero"/><path fill="#000000" d="M430.05765 349.45L429.01077 349.45L429.01077 342.73126Q428.62015 343.09064 427.99515 343.46564Q427.38577 343.825 426.9014 343.9969L426.9014 342.98126Q427.7764 342.5594 428.43265 341.98126Q429.10452 341.3875 429.38577 340.825L430.05765 340.825L430.05765 349.45ZM433.0889 347.2L434.19827 347.10626Q434.32327 347.91876 434.76077 348.325Q435.2139 348.73126 435.85452 348.73126Q436.60452 348.73126 437.13577 348.15314Q437.66702 347.575 437.66702 346.6375Q437.66702 345.73126 437.1514 345.21564Q436.6514 344.6844 435.82327 344.6844Q435.32327 344.6844 434.9014 344.91876Q434.49515 345.15314 434.26077 345.5125L433.2764 345.3875L434.10452 340.98126L438.38577 340.98126L438.38577 341.98126L434.94827 341.98126L434.49515 344.29376Q435.26077 343.7469 436.10452 343.7469Q437.22952 343.7469 437.99515 344.52814Q438.7764 345.3094 438.7764 346.54376Q438.7764 347.7 438.10452 348.5594Q437.2764 349.59064 435.85452 349.59064Q434.68265 349.59064 433.93265 348.9344Q433.19827 348.27814 433.0889 347.2Z" fill-rule="nonzero"/><path fill="#000000" d="M580.4969 348.4344L580.4969 349.45L574.8094 349.45Q574.8094 349.075 574.9344 348.71564Q575.15314 348.1375 575.6219 347.575Q576.10626 347.0125 577.0125 346.27814Q578.41876 345.1219 578.90314 344.45Q579.40314 343.77814 579.40314 343.1844Q579.40314 342.5594 578.95 342.1375Q578.4969 341.7 577.77814 341.7Q577.0125 341.7 576.5594 342.15314Q576.10626 342.60626 576.09064 343.41876L575.0125 343.3094Q575.1219 342.09064 575.84064 341.46564Q576.575 340.825 577.8094 340.825Q579.04376 340.825 579.7625 341.5125Q580.48126 342.2 580.48126 343.21564Q580.48126 343.73126 580.2625 344.23126Q580.0594 344.71564 579.5594 345.27814Q579.075 345.825 577.95 346.77814Q576.9969 347.575 576.71564 347.8719Q576.45 348.15314 576.27814 348.4344L580.4969 348.4344ZM581.95 345.21564Q581.95 343.6844 582.2625 342.7625Q582.575 341.825 583.1844 341.325Q583.8094 340.825 584.7469 340.825Q585.4344 340.825 585.95 341.10626Q586.48126 341.3875 586.825 341.91876Q587.16876 342.4344 587.35626 343.1844Q587.54376 343.9344 587.54376 345.21564Q587.54376 346.73126 587.23126 347.65314Q586.9344 348.575 586.3094 349.09064Q585.7 349.59064 584.7469 349.59064Q583.5125 349.59064 582.79376 348.7Q581.95 347.6375 581.95 345.21564ZM583.02814 345.21564Q583.02814 347.325 583.52814 348.02814Q584.02814 348.73126 584.7469 348.73126Q585.48126 348.73126 585.96564 348.02814Q586.46564 347.325 586.46564 345.21564Q586.46564 343.09064 585.96564 342.40314Q585.48126 341.7 584.73126 341.7Q584.0125 341.7 583.575 342.3094Q583.02814 343.09064 583.02814 345.21564Z" fill-rule="nonzero"/><path stroke="#4285f4" stroke-width="4.0" stroke-linecap="butt" d="M227.0 61.916668L239.0 61.916668" fill-rule="nonzero"/><path fill="#1a1a1a" d="M247.54688 63.15104L248.60938 63.05729Q248.6875 63.71354 248.96875 64.11979Q249.25 64.52604 249.82812 64.791664Q250.42188 65.041664 251.15625 65.041664Q251.79688 65.041664 252.29688 64.854164Q252.79688 64.65104 253.03125 64.322914Q253.28125 63.979164 253.28125 63.58854Q253.28125 63.18229 253.04688 62.885414Q252.8125 62.572914 252.28125 62.36979Q251.92188 62.229164 250.73438 61.947914Q249.5625 61.666664 249.09375 61.416664Q248.46875 61.08854 248.17188 60.61979Q247.875 60.135414 247.875 59.541664Q247.875 58.90104 248.23438 58.33854Q248.60938 57.760414 249.3125 57.479164Q250.03125 57.18229 250.89062 57.18229Q251.84375 57.18229 252.57812 57.49479Q253.3125 57.791664 253.70312 58.40104Q254.09375 58.99479 254.125 59.74479L253.03125 59.822914Q252.9375 59.010414 252.42188 58.604164Q251.92188 58.18229 250.9375 58.18229Q249.90625 58.18229 249.4375 58.55729Q248.96875 58.93229 248.96875 59.46354Q248.96875 59.93229 249.29688 60.229164Q249.625 60.52604 251.0 60.83854Q252.39062 61.15104 252.90625 61.385414Q253.65625 61.74479 254.01562 62.27604Q254.375 62.791664 254.375 63.49479Q254.375 64.18229 253.98438 64.791664Q253.59375 65.385414 252.85938 65.729164Q252.125 66.05729 251.20312 66.05729Q250.03125 66.05729 249.23438 65.729164Q248.45312 65.385414 248.0 64.697914Q247.5625 64.010414 247.54688 63.15104ZM262.4375 64.99479Q263.23438 65.541664 263.89062 65.791664L263.5625 66.58854Q262.64062 66.24479 261.71875 65.52604Q260.76562 66.05729 259.60938 66.05729Q258.4375 66.05729 257.48438 65.49479Q256.54688 64.93229 256.03125 63.916664Q255.51562 62.90104 255.51562 61.61979Q255.51562 60.354164 256.03125 59.30729Q256.54688 58.260414 257.5 57.71354Q258.45312 57.166664 259.625 57.166664Q260.8125 57.166664 261.76562 57.74479Q262.73438 58.30729 263.23438 59.322914Q263.73438 60.33854 263.73438 61.61979Q263.73438 62.68229 263.40625 63.52604Q263.09375 64.36979 262.4375 64.99479ZM259.9375 63.541664Q260.92188 63.822914 261.5625 64.36979Q262.5625 63.447914 262.5625 61.61979Q262.5625 60.572914 262.20312 59.791664Q261.84375 59.010414 261.15625 58.58854Q260.48438 58.15104 259.64062 58.15104Q258.35938 58.15104 257.51562 59.02604Q256.6875 59.885414 256.6875 61.61979Q256.6875 63.291664 257.51562 64.197914Q258.34375 65.08854 259.64062 65.08854Q260.25 65.08854 260.78125 64.854164Q260.25 64.510414 259.65625 64.36979L259.9375 63.541664ZM264.375 63.33854L264.375 62.27604L267.625 62.27604L267.625 63.33854L264.375 63.33854ZM272.46875 65.916664L271.42188 65.916664L271.42188 59.197914Q271.03125 59.55729 270.40625 59.93229Q269.79688 60.291664 269.3125 60.46354L269.3125 59.447914Q270.1875 59.02604 270.84375 58.447914Q271.51562 57.854164 271.79688 57.291664L272.46875 57.291664L272.46875 65.916664ZM275.92188 65.916664L275.92188 57.322914L279.17188 57.322914Q280.01562 57.322914 280.46875 57.40104Q281.10938 57.510414 281.53125 57.80729Q281.96875 58.104164 282.21875 58.635414Q282.48438 59.166664 282.48438 59.80729Q282.48438 60.90104 281.78125 61.666664Q281.09375 62.416664 279.26562 62.416664L277.0625 62.416664L277.0625 65.916664L275.92188 65.916664ZM277.0625 61.416664L279.28125 61.416664Q280.39062 61.416664 280.84375 61.010414Q281.3125 60.58854 281.3125 59.83854Q281.3125 59.30729 281.03125 58.93229Q280.76562 58.541664 280.32812 58.416664Q280.03125 58.33854 279.26562 58.33854L277.0625 58.33854L277.0625 61.416664ZM283.9375 65.916664L283.9375 57.322914L287.75 57.322914Q288.90625 57.322914 289.5 57.55729Q290.09375 57.791664 290.45312 58.385414Q290.8125 58.96354 290.8125 59.666664Q290.8125 60.58854 290.21875 61.21354Q289.625 61.83854 288.39062 62.010414Q288.84375 62.229164 289.07812 62.43229Q289.57812 62.885414 290.01562 63.572914L291.51562 65.916664L290.07812 65.916664L288.95312 64.135414Q288.45312 63.354164 288.125 62.947914Q287.8125 62.541664 287.54688 62.385414Q287.29688 62.21354 287.03125 62.135414Q286.84375 62.104164 286.40625 62.104164L285.07812 62.104164L285.07812 65.916664L283.9375 65.916664ZM285.07812 61.11979L287.53125 61.11979Q288.29688 61.11979 288.73438 60.96354Q289.1875 60.791664 289.40625 60.447914Q289.64062 60.08854 289.64062 59.666664Q289.64062 59.05729 289.1875 58.666664Q288.75 58.27604 287.79688 58.27604L285.07812 58.27604L285.07812 61.11979Z" fill-rule="nonzero"/><path stroke="#ea4335" stroke-width="4.0" stroke-linecap="butt" d="M308.0 61.916668L320.0 61.916668" fill-rule="nonzero"/><path fill="#1a1a1a" d="M328.92188 65.916664L328.92188 57.322914L332.17188 57.322914Q333.01562 57.322914 333.46875 57.40104Q334.10938 57.510414 334.53125 57.80729Q334.96875 58.104164 335.21875 58.635414Q335.48438 59.166664 335.48438 59.80729Q335.48438 60.90104 334.78125 61.666664Q334.09375 62.416664 332.26562 62.416664L330.0625 62.416664L330.0625 65.916664L328.92188 65.916664ZM330.0625 61.416664L332.28125 61.416664Q333.39062 61.416664 333.84375 61.010414Q334.3125 60.58854 334.3125 59.83854Q334.3125 59.30729 334.03125 58.93229Q333.76562 58.541664 333.32812 58.416664Q333.03125 58.33854 332.26562 58.33854L330.0625 58.33854L330.0625 61.416664ZM336.9375 65.916664L336.9375 57.322914L340.75 57.322914Q341.90625 57.322914 342.5 57.55729Q343.09375 57.791664 343.45312 58.385414Q343.8125 58.96354 343.8125 59.666664Q343.8125 60.58854 343.21875 61.21354Q342.625 61.83854 341.39062 62.010414Q341.84375 62.229164 342.07812 62.43229Q342.57812 62.885414 343.01562 63.572914L344.51562 65.916664L343.07812 65.916664L341.95312 64.135414Q341.45312 63.354164 341.125 62.947914Q340.8125 62.541664 340.54688 62.385414Q340.29688 62.21354 340.03125 62.135414Q339.84375 62.104164 339.40625 62.104164L338.07812 62.104164L338.07812 65.916664L336.9375 65.916664ZM338.07812 61.11979L340.53125 61.11979Q341.29688 61.11979 341.73438 60.96354Q342.1875 60.791664 342.40625 60.447914Q342.64062 60.08854 342.64062 59.666664Q342.64062 59.05729 342.1875 58.666664Q341.75 58.27604 340.79688 58.27604L338.07812 58.27604L338.07812 61.11979ZM345.375 63.33854L345.375 62.27604L348.625 62.27604L348.625 63.33854L345.375 63.33854ZM353.46875 65.916664L352.42188 65.916664L352.42188 59.197914Q352.03125 59.55729 351.40625 59.93229Q350.79688 60.291664 350.3125 60.46354L350.3125 59.447914Q351.1875 59.02604 351.84375 58.447914Q352.51562 57.854164 352.79688 57.291664L353.46875 57.291664L353.46875 65.916664ZM356.92188 65.916664L356.92188 57.322914L360.17188 57.322914Q361.01562 57.322914 361.46875 57.40104Q362.10938 57.510414 362.53125 57.80729Q362.96875 58.104164 363.21875 58.635414Q363.48438 59.166664 363.48438 59.80729Q363.48438 60.90104 362.78125 61.666664Q362.09375 62.416664 360.26562 62.416664L358.0625 62.416664L358.0625 65.916664L356.92188 65.916664ZM358.0625 61.416664L360.28125 61.416664Q361.39062 61.416664 361.84375 61.010414Q362.3125 60.58854 362.3125 59.83854Q362.3125 59.30729 362.03125 58.93229Q361.76562 58.541664 361.32812 58.416664Q361.03125 58.33854 360.26562 58.33854L358.0625 58.33854L358.0625 61.416664ZM364.9375 65.916664L364.9375 57.322914L368.75 57.322914Q369.90625 57.322914 370.5 57.55729Q371.09375 57.791664 371.45312 58.385414Q371.8125 58.96354 371.8125 59.666664Q371.8125 60.58854 371.21875 61.21354Q370.625 61.83854 369.39062 62.010414Q369.84375 62.229164 370.07812 62.43229Q370.57812 62.885414 371.01562 63.572914L372.51562 65.916664L371.07812 65.916664L369.95312 64.135414Q369.45312 63.354164 369.125 62.947914Q368.8125 62.541664 368.54688 62.385414Q368.29688 62.21354 368.03125 62.135414Q367.84375 62.104164 367.40625 62.104164L366.07812 62.104164L366.07812 65.916664L364.9375 65.916664ZM366.07812 61.11979L368.53125 61.11979Q369.29688 61.11979 369.73438 60.96354Q370.1875 60.791664 370.40625 60.447914Q370.64062 60.08854 370.64062 59.666664Q370.64062 59.05729 370.1875 58.666664Q369.75 58.27604 368.79688 58.27604L366.07812 58.27604L366.07812 61.11979Z" fill-rule="nonzero"/><path fill="#757575" d="M19.45625 32.95625L21.2375 32.8Q21.3625 33.8625 21.815624 34.55Q22.284374 35.2375 23.253124 35.675Q24.2375 36.096874 25.471874 36.096874Q26.55 36.096874 27.378124 35.784374Q28.20625 35.45625 28.6125 34.89375Q29.01875 34.33125 29.01875 33.659374Q29.01875 32.9875 28.628124 32.4875Q28.2375 31.9875 27.346874 31.64375Q26.76875 31.409374 24.784374 30.940624Q22.815624 30.471874 22.034374 30.05Q21.003124 29.51875 20.503124 28.721874Q20.003124 27.925 20.003124 26.940624Q20.003124 25.846874 20.6125 24.909374Q21.221874 23.971874 22.409374 23.4875Q23.596874 22.9875 25.034374 22.9875Q26.628124 22.9875 27.846874 23.503124Q29.065624 24.01875 29.70625 25.01875Q30.3625 26.003124 30.409374 27.26875L28.596874 27.409374Q28.45625 26.05 27.6125 25.3625Q26.76875 24.659374 25.1125 24.659374Q23.39375 24.659374 22.596874 25.3Q21.815624 25.925 21.815624 26.8Q21.815624 27.58125 22.378124 28.08125Q22.925 28.58125 25.2375 29.096874Q27.55 29.6125 28.409374 30.003124Q29.659374 30.58125 30.253124 31.471874Q30.846874 32.346874 30.846874 33.503124Q30.846874 34.64375 30.190624 35.659374Q29.534374 36.675 28.3 37.2375Q27.08125 37.8 25.55 37.8Q23.6125 37.8 22.3 37.2375Q20.9875 36.659374 20.2375 35.51875Q19.4875 34.378124 19.45625 32.95625ZM43.940624 36.01875Q45.26875 36.925 46.378124 37.346874L45.815624 38.659374Q44.26875 38.1125 42.7375 36.909374Q41.14375 37.8 39.221874 37.8Q37.284374 37.8 35.690624 36.8625Q34.1125 35.925 33.253124 34.221874Q32.409374 32.51875 32.409374 30.39375Q32.409374 28.26875 33.26875 26.534374Q34.128124 24.8 35.70625 23.89375Q37.3 22.971874 39.26875 22.971874Q41.253124 22.971874 42.83125 23.925Q44.425 24.8625 45.253124 26.565624Q46.096874 28.253124 46.096874 30.378124Q46.096874 32.14375 45.565624 33.565624Q45.034374 34.971874 43.940624 36.01875ZM39.76875 33.596874Q41.409374 34.05 42.471874 34.95625Q44.14375 33.440624 44.14375 30.378124Q44.14375 28.64375 43.55 27.346874Q42.971874 26.05 41.83125 25.33125Q40.690624 24.6125 39.26875 24.6125Q37.159374 24.6125 35.753124 26.065624Q34.3625 27.503124 34.3625 30.39375Q34.3625 33.190624 35.7375 34.690624Q37.128124 36.175 39.26875 36.175Q40.284374 36.175 41.190624 35.784374Q40.3 35.221874 39.315624 34.971874L39.76875 33.596874ZM48.190624 33.253124L48.190624 31.4875L53.58125 31.4875L53.58125 33.253124L48.190624 33.253124ZM62.003124 37.55L60.2375 37.55L60.2375 26.346874Q59.6125 26.95625 58.58125 27.565624Q57.55 28.159374 56.721874 28.471874L56.721874 26.76875Q58.20625 26.08125 59.3 25.096874Q60.409374 24.096874 60.8625 23.175L62.003124 23.175L62.003124 37.55ZM67.09688 37.55L67.09688 23.2375L72.4875 23.2375Q73.925 23.2375 74.675 23.3625Q75.72188 23.55 76.44063 24.05Q77.15938 24.534374 77.58125 25.425Q78.01875 26.315624 78.01875 27.378124Q78.01875 29.20625 76.84688 30.471874Q75.69063 31.721874 72.65938 31.721874L68.9875 31.721874L68.9875 37.55L67.09688 37.55ZM68.9875 30.034374L72.69063 30.034374Q74.51875 30.034374 75.28438 29.3625Q76.06563 28.675 76.06563 27.425Q76.06563 26.534374 75.6125 25.89375Q75.15938 25.253124 74.425 25.05Q73.94063 24.925 72.64375 24.925L68.9875 24.925L68.9875 30.034374ZM80.12813 37.55L80.12813 23.2375L86.47188 23.2375Q88.37813 23.2375 89.37813 23.628124Q90.37813 24.003124 90.97188 24.9875Q91.56563 25.95625 91.56563 27.14375Q91.56563 28.659374 90.58125 29.70625Q89.59688 30.753124 87.53438 31.034374Q88.28438 31.39375 88.675 31.753124Q89.50313 32.503124 90.25313 33.659374L92.7375 37.55L90.3625 37.55L88.45625 34.565624Q87.62813 33.284374 87.09688 32.596874Q86.56563 31.909374 86.12813 31.64375Q85.70625 31.3625 85.26875 31.253124Q84.94063 31.190624 84.22188 31.190624L82.01875 31.190624L82.01875 37.55L80.12813 37.55ZM82.01875 29.55L86.09688 29.55Q87.39375 29.55 88.1125 29.284374Q88.84688 29.01875 89.22188 28.425Q89.6125 27.83125 89.6125 27.14375Q89.6125 26.128124 88.87813 25.471874Q88.14375 24.815624 86.55 24.815624L82.01875 24.815624L82.01875 29.55ZM94.33125 37.55L94.33125 35.55L96.33125 35.55L96.33125 37.55Q96.33125 38.659374 95.94063 39.33125Q95.55 40.01875 94.70625 40.378124L94.20625 39.628124Q94.76875 39.39375 95.03438 38.909374Q95.3 38.440624 95.33125 37.55L94.33125 37.55ZM106.09688 37.55L106.09688 23.2375L111.4875 23.2375Q112.925 23.2375 113.675 23.3625Q114.72188 23.55 115.44063 24.05Q116.15938 24.534374 116.58125 25.425Q117.01875 26.315624 117.01875 27.378124Q117.01875 29.20625 115.84688 30.471874Q114.69063 31.721874 111.65938 31.721874L107.9875 31.721874L107.9875 37.55L106.09688 37.55ZM107.9875 30.034374L111.69063 30.034374Q113.51875 30.034374 114.28438 29.3625Q115.06563 28.675 115.06563 27.425Q115.06563 26.534374 114.6125 25.89375Q114.15938 25.253124 113.425 25.05Q112.94063 24.925 111.64375 24.925L107.9875 24.925L107.9875 30.034374ZM119.12813 37.55L119.12813 23.2375L125.47188 23.2375Q127.37813 23.2375 128.37813 23.628124Q129.37813 24.003124 129.97188 24.9875Q130.56563 25.95625 130.56563 27.14375Q130.56563 28.659374 129.58125 29.70625Q128.59688 30.753124 126.53438 31.034374Q127.28438 31.39375 127.675 31.753124Q128.50313 32.503124 129.25313 33.659374L131.7375 37.55L129.3625 37.55L127.45625 34.565624Q126.62813 33.284374 126.09688 32.596874Q125.56563 31.909374 125.12813 31.64375Q124.70625 31.3625 124.26875 31.253124Q123.94063 31.190624 123.22188 31.190624L121.01875 31.190624L121.01875 37.55L119.12813 37.55ZM121.01875 29.55L125.09688 29.55Q126.39375 29.55 127.1125 29.284374Q127.84688 29.01875 128.22188 28.425Q128.6125 27.83125 128.6125 27.14375Q128.6125 26.128124 127.87813 25.471874Q127.14375 24.815624 125.55 24.815624L121.01875 24.815624L121.01875 29.55ZM132.19063 33.253124L132.19063 31.4875L137.58125 31.4875L137.58125 33.253124L132.19063 33.253124ZM146.00313 37.55L144.2375 37.55L144.2375 26.346874Q143.6125 26.95625 142.58125 27.565624Q141.55 28.159374 140.72188 28.471874L140.72188 26.76875Q142.20625 26.08125 143.3 25.096874Q144.40938 24.096874 144.8625 23.175L146.00313 23.175L146.00313 37.55ZM151.09688 37.55L151.09688 23.2375L156.4875 23.2375Q157.925 23.2375 158.675 23.3625Q159.72188 23.55 160.44063 24.05Q161.15938 24.534374 161.58125 25.425Q162.01875 26.315624 162.01875 27.378124Q162.01875 29.20625 160.84688 30.471874Q159.69063 31.721874 156.65938 31.721874L152.9875 31.721874L152.9875 37.55L151.09688 37.55ZM152.9875 30.034374L156.69063 30.034374Q158.51875 30.034374 159.28438 29.3625Q160.06563 28.675 160.06563 27.425Q160.06563 26.534374 159.6125 25.89375Q159.15938 25.253124 158.425 25.05Q157.94063 24.925 156.64375 24.925L152.9875 24.925L152.9875 30.034374ZM164.12813 37.55L164.12813 23.2375L170.47188 23.2375Q172.37813 23.2375 173.37813 23.628124Q174.37813 24.003124 174.97188 24.9875Q175.56563 25.95625 175.56563 27.14375Q175.56563 28.659374 174.58125 29.70625Q173.59688 30.753124 171.53438 31.034374Q172.28438 31.39375 172.675 31.753124Q173.50313 32.503124 174.25313 33.659374L176.7375 37.55L174.3625 37.55L172.45625 34.565624Q171.62813 33.284374 171.09688 32.596874Q170.56563 31.909374 170.12813 31.64375Q169.70625 31.3625 169.26875 31.253124Q168.94063 31.190624 168.22188 31.190624L166.01875 31.190624L166.01875 37.55L164.12813 37.55ZM166.01875 29.55L170.09688 29.55Q171.39375 29.55 172.1125 29.284374Q172.84688 29.01875 173.22188 28.425Q173.6125 27.83125 173.6125 27.14375Q173.6125 26.128124 172.87813 25.471874Q172.14375 24.815624 170.55 24.815624L166.01875 24.815624L166.01875 29.55Z" fill-rule="nonzero"/></svg>