<svg version="1.1" viewBox="0.0 0.0 600.0 371.0" fill="none" stroke="none" stroke-linecap="square" stroke-miterlimit="10" width="600" height="371" xmlns:xlink="http://www.w3.org/1999/xlink" xmlns="http://www.w3.org/2000/svg"><path fill="#ffffff" d="M0 0L600.0 0L600.0 371.0L0 371.0L0 0Z" fill-rule="nonzero"/><path stroke="#cccccc" stroke-width="1.0" stroke-linecap="butt" d="M134.5 88.5L134.5 300.5" fill-rule="nonzero"/><path stroke="#cccccc" stroke-width="1.0" stroke-linecap="butt" d="M283.5 88.5L283.5 300.5" fill-rule="nonzero"/><path stroke="#cccccc" stroke-width="1.0" stroke-linecap="butt" d="M432.5 88.5L432.5 300.5" fill-rule="nonzero"/><path stroke="#cccccc" stroke-width="1.0" stroke-linecap="butt" d="M581.5 88.5L581.5 300.5" fill-rule="nonzero"/><path stroke="#333333" stroke-width="1.0" stroke-linecap="butt" d="M45.5 300.5L581.5 300.5" fill-rule="nonzero"/><path stroke="#cccccc" stroke-width="1.0" stroke-linecap="butt" d="M45.5 229.5L581.5 229.5" fill-rule="nonzero"/><path stroke="#cccccc" stroke-width="1.0" stroke-linecap="butt" d="M45.5 159.5L581.5 159.5" fill-rule="nonzero"/><path stroke="#cccccc" stroke-width="1.0" stroke-linecap="butt" d="M45.5 88.5L581.5 88.5" fill-rule="nonzero"/><clipPath id="id_0"><path d="M45.55 88.28333L581.45 88.28333L581.45 300.45L45.55 300.45L45.55 88.28333Z" clip-rule="nonzero"/></clipPath><path stroke="#4285f4" stroke-width="2.0" stroke-linecap="butt" clip-path="url(#id_0)" d="M45.55 290.79642L75.32222 281.42572L105.094444 272.01965L134.86667 262.3661L164.63889 252.7125L194.41112 243.11195L224.18333 233.68822L253.95555 224.07L283.72778 214.48714L313.5 189.66364L343.27222 193.30583L373.04443 180.64656L402.81668 175.50151L432.5889 160.84433L462.3611 155.99986L492.13333 145.8689L521.9056 138.01874L551.6778 127.428085L581.45 118.74693" fill-rule="nonzero"/><path stroke="#ea4335" stroke-width="2.0" stroke-linecap="butt" clip-path="url(#id_0)" d="M45.55 291.1854L75.32222 290.19528L105.094444 281.4611L134.86667 281.14282L164.63889 275.23752L194.41112 272.05502L224.18333 261.94174L253.95555 258.84766L283.72778 256.19556L313.5 251.93456L343.27222 245.39275L373.04443 243.32413L402.81668 225.48445L432.5889 216.76793L462.3611 226.26239L492.13333 218.65974L521.9056 214.46945L551.6778 207.36188L581.45 190.6184" fill-rule="nonzero"/><path fill="#000000" fill-opacity="0.0" clip-path="url(#id_0)" d="M48.55 290.79642C48.55 292.45328 47.206856 293.79642 45.55 293.79642C43.893147 293.79642 42.55 292.45328 42.55 290.79642C42.55 289.13956 43.893147 287.79642 45.55 287.79642C47.206856 287.79642 48.55 289.13956 48.55 290.79642Z" fill-rule="nonzero"/><path fill="#000000" fill-opacity="0.0" clip-path="url(#id_0)" d="M78.32222 281.42572C78.32222 283.08258 76.97908 284.42572 75.32222 284.42572C73.66537 284.42572 72.32222 283.08258 72.32222 281.42572C72.32222 279.76886 73.66537 278.42572 75.32222 278.42572C76.97908 278.42572 78.32222 279.76886 78.32222 281.42572Z" fill-rule="nonzero"/><path fill="#000000" fill-opacity="0.0" clip-path="url(#id_0)" d="M108.094444 272.01965C108.094444 273.6765 106.7513 275.01965 105.094444 275.01965C103.43759 275.01965 102.094444 273.6765 102.094444 272.01965C102.094444 270.36282 103.43759 269.01965 105.094444 269.01965C106.7513 269.01965 108.094444 270.36282 108.094444 272.01965Z" fill-rule="nonzero"/><path fill="#000000" fill-opacity="0.0" clip-path="url(#id_0)" d="M137.86667 262.3661C137.86667 264.02295 136.52351 265.3661 134.86667 265.3661C133.20981 265.3661 131.86667 264.02295 131.86667 262.3661C131.86667 260.70923 133.20981 259.3661 134.86667 259.3661C136.52351 259.3661 137.86667 260.70923 137.86667 262.3661Z" fill-rule="nonzero"/><path fill="#000000" fill-opacity="0.0" clip-path="url(#id_0)" d="M167.63889 252.7125C167.63889 254.36935 166.29575 255.7125 164.63889 255.7125C162.98204 255.7125 161.63889 254.36935 161.63889 252.7125C161.63889 251.05565 162.98204 249.7125 164.63889 249.7125C166.29575 249.7125 167.63889 251.05565 167.63889 252.7125Z" fill-rule="nonzero"/><path fill="#000000" fill-opacity="0.0" clip-path="url(#id_0)" d="M197.41112 243.11195C197.41112 244.76881 196.06796 246.11195 194.41112 246.11195C192.75426 246.11195 191.41112 244.76881 191.41112 243.11195C191.41112 241.45511 192.75426 240.11195 194.41112 240.11195C196.06796 240.11195 197.41112 241.45511 197.41112 243.11195Z" fill-rule="nonzero"/><path fill="#000000" fill-opacity="0.0" clip-path="url(#id_0)" d="M227.18333 233.68822C227.18333 235.34508 225.8402 236.68822 224.18333 236.68822C222.52647 236.68822 221.18333 235.34508 221.18333 233.68822C221.18333 232.03137 222.52647 230.68822 224.18333 230.68822C225.8402 230.68822 227.18333 232.03137 227.18333 233.68822Z" fill-rule="nonzero"/><path fill="#000000" fill-opacity="0.0" clip-path="url(#id_0)" d="M256.95557 224.07C256.95557 225.72685 255.61241 227.07 253.95555 227.07C252.2987 227.07 250.95555 225.72685 250.95555 224.07C250.95555 222.41315 252.2987 221.07 253.95555 221.07C255.61241 221.07 256.95557 222.41315 256.95557 224.07Z" fill-rule="nonzero"/><path fill="#000000" fill-opacity="0.0" clip-path="url(#id_0)" d="M286.72778 214.48714C286.72778 216.144 285.38464 217.48714 283.72778 217.48714C282.07092 217.48714 280.72778 216.144 280.72778 214.48714C280.72778 212.83029 282.07092 211.48714 283.72778 211.48714C285.38464 211.48714 286.72778 212.83029 286.72778 214.48714Z" fill-rule="nonzero"/><path fill="#000000" fill-opacity="0.0" clip-path="url(#id_0)" d="M316.5 189.66364C316.5 191.3205 315.15686 192.66364 313.5 192.66364C311.84314 192.66364 310.5 191.3205 310.5 189.66364C310.5 188.00679 311.84314 186.66364 313.5 186.66364C315.15686 186.66364 316.5 188.00679 316.5 189.66364Z" fill-rule="nonzero"/><path fill="#000000" fill-opacity="0.0" clip-path="url(#id_0)" d="M346.27222 193.30583C346.27222 194.96269 344.92908 196.30583 343.27222 196.30583C341.61536 196.30583 340.27222 194.96269 340.27222 193.30583C340.27222 191.64897 341.61536 190.30583 343.27222 190.30583C344.92908 190.30583 346.27222 191.64897 346.27222 193.30583Z" fill-rule="nonzero"/><path fill="#000000" fill-opacity="0.0" clip-path="url(#id_0)" d="M376.04443 180.64656C376.04443 182.3034 374.7013 183.64656 373.04443 183.64656C371.3876 183.64656 370.04443 182.3034 370.04443 180.64656C370.04443 178.9897 371.3876 177.64656 373.04443 177.64656C374.7013 177.64656 376.04443 178.9897 376.04443 180.64656Z" fill-rule="nonzero"/><path fill="#000000" fill-opacity="0.0" clip-path="url(#id_0)" d="M405.81668 175.50151C405.81668 177.15837 404.4735 178.50151 402.81668 178.50151C401.15982 178.50151 399.81668 177.15837 399.81668 175.50151C399.81668 173.84467 401.15982 172.50151 402.81668 172.50151C404.4735 172.50151 405.81668 173.84467 405.81668 175.50151Z" fill-rule="nonzero"/><path fill="#000000" fill-opacity="0.0" clip-path="url(#id_0)" d="M435.5889 160.84433C435.5889 162.50119 434.24576 163.84433 432.5889 163.84433C430.93204 163.84433 429.5889 162.50119 429.5889 160.84433C429.5889 159.18748 430.93204 157.84433 432.5889 157.84433C434.24576 157.84433 435.5889 159.18748 435.5889 160.84433Z" fill-rule="nonzero"/><path fill="#000000" fill-opacity="0.0" clip-path="url(#id_0)" d="M465.3611 155.99986C465.3611 157.65671 464.01797 158.99986 462.3611 158.99986C460.70425 158.99986 459.3611 157.65671 459.3611 155.99986C459.3611 154.343 460.70425 152.99986 462.3611 152.99986C464.01797 152.99986 465.3611 154.343 465.3611 155.99986Z" fill-rule="nonzero"/><path fill="#000000" fill-opacity="0.0" clip-path="url(#id_0)" d="M495.13333 145.8689C495.13333 147.52576 493.7902 148.8689 492.13333 148.8689C490.47647 148.8689 489.13333 147.52576 489.13333 145.8689C489.13333 144.21205 490.47647 142.8689 492.13333 142.8689C493.7902 142.8689 495.13333 144.21205 495.13333 145.8689Z" fill-rule="nonzero"/><path fill="#000000" fill-opacity="0.0" clip-path="url(#id_0)" d="M524.9056 138.01874C524.9056 139.67558 523.56244 141.01874 521.9056 141.01874C520.2487 141.01874 518.9056 139.67558 518.9056 138.01874C518.9056 136.36188 520.2487 135.01874 521.9056 135.01874C523.56244 135.01874 524.9056 136.36188 524.9056 138.01874Z" fill-rule="nonzero"/><path fill="#000000" fill-opacity="0.0" clip-path="url(#id_0)" d="M554.6778 127.428085C554.6778 129.08493 553.33466 130.42809 551.6778 130.42809C550.02094 130.42809 548.6778 129.08493 548.6778 127.428085C548.6778 125.77123 550.02094 124.428085 551.6778 124.428085C553.33466 124.428085 554.6778 125.77123 554.6778 127.428085Z" fill-rule="nonzero"/><path fill="#000000" fill-opacity="0.0" clip-path="url(#id_0)" d="M584.45 118.74693C584.45 120.403786 583.1069 121.74693 581.45 121.74693C579.79315 121.74693 578.45 120.403786 578.45 118.74693C578.45 117.09007 579.79315 115.74693 581.45 115.74693C583.1069 115.74693 584.45 117.09007 584.45 118.74693Z" fill-rule="nonzero"/><path fill="#000000" fill-opacity="0.0" clip-path="url(#id_0)" d="M48.55 291.1854C48.55 292.84225 47.206856 294.1854 45.55 294.1854C43.893147 294.1854 42.55 292.84225 42.55 291.1854C42.55 289.52853 43.893147 288.1854 45.55 288.1854C47.206856 288.1854 48.55 289.52853 48.55 291.1854Z" fill-rule="nonzero"/><path fill="#000000" fill-opacity="0.0" clip-path="url(#id_0)" d="M78.32222 290.19528C78.32222 291.85214 76.97908 293.19528 75.32222 293.19528C73.66537 293.19528 72.32222 291.85214 72.32222 290.19528C72.32222 288.53842 73.66537 287.19528 75.32222 287.19528C76.97908 287.19528 78.32222 288.53842 78.32222 290.19528Z" fill-rule="nonzero"/><path fill="#000000" fill-opacity="0.0" clip-path="url(#id_0)" d="M108.094444 281.4611C108.094444 283.11795 106.7513 284.4611 105.094444 284.4611C103.43759 284.4611 102.094444 283.11795 102.094444 281.4611C102.094444 279.80423 103.43759 278.4611 105.094444 278.4611C106.7513 278.4611 108.094444 279.80423 108.094444 281.4611Z" fill-rule="nonzero"/><path fill="#000000" fill-opacity="0.0" clip-path="url(#id_0)" d="M137.86667 281.14282C137.86667 282.79968 136.52351 284.14282 134.86667 284.14282C133.20981 284.14282 131.86667 282.79968 131.86667 281.14282C131.86667 279.486 133.20981 278.14282 134.86667 278.14282C136.52351 278.14282 137.86667 279.486 137.86667 281.14282Z" fill-rule="nonzero"/><path fill="#000000" fill-opacity="0.0" clip-path="url(#id_0)" d="M167.63889 275.23752C167.63889 276.89438 166.29575 278.23752 164.63889 278.23752C162.98204 278.23752 161.63889 276.89438 161.63889 275.23752C161.63889 273.5807 162.98204 272.23752 164.63889 272.23752C166.29575 272.23752 167.63889 273.5807 167.63889 275.23752Z" fill-rule="nonzero"/><path fill="#000000" fill-opacity="0.0" clip-path="url(#id_0)" d="M197.41112 272.05502C197.41112 273.71188 196.06796 275.05502 194.41112 275.05502C192.75426 275.05502 191.41112 273.71188 191.41112 272.05502C191.41112 270.39816 192.75426 269.05502 194.41112 269.05502C196.06796 269.05502 197.41112 270.39816 197.41112 272.05502Z" fill-rule="nonzero"/><path fill="#000000" fill-opacity="0.0" clip-path="url(#id_0)" d="M227.18333 261.94174C227.18333 263.5986 225.8402 264.94174 224.18333 264.94174C222.52647 264.94174 221.18333 263.5986 221.18333 261.94174C221.18333 260.28488 222.52647 258.94174 224.18333 258.94174C225.8402 258.94174 227.18333 260.28488 227.18333 261.94174Z" fill-rule="nonzero"/><path fill="#000000" fill-opacity="0.0" clip-path="url(#id_0)" d="M256.95557 258.84766C256.95557 260.50452 255.61241 261.84766 253.95555 261.84766C252.2987 261.84766 250.95555 260.50452 250.95555 258.84766C250.95555 257.1908 252.2987 255.84766 253.95555 255.84766C255.61241 255.84766 256.95557 257.1908 256.95557 258.84766Z" fill-rule="nonzero"/><path fill="#000000" fill-opacity="0.0" clip-path="url(#id_0)" d="M286.72778 256.19556C286.72778 257.85242 285.38464 259.19556 283.72778 259.19556C282.07092 259.19556 280.72778 257.85242 280.72778 256.19556C280.72778 254.53871 282.07092 253.19557 283.72778 253.19557C285.38464 253.19557 286.72778 254.53871 286.72778 256.19556Z" fill-rule="nonzero"/><path fill="#000000" fill-opacity="0.0" clip-path="url(#id_0)" d="M316.5 251.93456C316.5 253.59142 315.15686 254.93456 313.5 254.93456C311.84314 254.93456 310.5 253.59142 310.5 251.93456C310.5 250.2777 311.84314 248.93456 313.5 248.93456C315.15686 248.93456 316.5 250.2777 316.5 251.93456Z" fill-rule="nonzero"/><path fill="#000000" fill-opacity="0.0" clip-path="url(#id_0)" d="M346.27222 245.39275C346.27222 247.0496 344.92908 248.39275 343.27222 248.39275C341.61536 248.39275 340.27222 247.0496 340.27222 245.39275C340.27222 243.7359 341.61536 242.39275 343.27222 242.39275C344.92908 242.39275 346.27222 243.7359 346.27222 245.39275Z" fill-rule="nonzero"/><path fill="#000000" fill-opacity="0.0" clip-path="url(#id_0)" d="M376.04443 243.32413C376.04443 244.98097 374.7013 246.32413 373.04443 246.32413C371.3876 246.32413 370.04443 244.98097 370.04443 243.32413C370.04443 241.66727 371.3876 240.32413 373.04443 240.32413C374.7013 240.32413 376.04443 241.66727 376.04443 243.32413Z" fill-rule="nonzero"/><path fill="#000000" fill-opacity="0.0" clip-path="url(#id_0)" d="M405.81668 225.48445C405.81668 227.1413 404.4735 228.48445 402.81668 228.48445C401.15982 228.48445 399.81668 227.1413 399.81668 225.48445C399.81668 223.82759 401.15982 222.48445 402.81668 222.48445C404.4735 222.48445 405.81668 223.82759 405.81668 225.48445Z" fill-rule="nonzero"/><path fill="#000000" fill-opacity="0.0" clip-path="url(#id_0)" d="M435.5889 216.76793C435.5889 218.42479 434.24576 219.76793 432.5889 219.76793C430.93204 219.76793 429.5889 218.42479 429.5889 216.76793C429.5889 215.11107 430.93204 213.76793 432.5889 213.76793C434.24576 213.76793 435.5889 215.11107 435.5889 216.76793Z" fill-rule="nonzero"/><path fill="#000000" fill-opacity="0.0" clip-path="url(#id_0)" d="M465.3611 226.26239C465.3611 227.91925 464.01797 229.26239 462.3611 229.26239C460.70425 229.26239 459.3611 227.91925 459.3611 226.26239C459.3611 224.60553 460.70425 223.26239 462.3611 223.26239C464.01797 223.26239 465.3611 224.60553 465.3611 226.26239Z" fill-rule="nonzero"/><path fill="#000000" fill-opacity="0.0" clip-path="url(#id_0)" d="M495.13333 218.65974C495.13333 220.3166 493.7902 221.65974 492.13333 221.65974C490.47647 221.65974 489.13333 220.3166 489.13333 218.65974C489.13333 217.0029 490.47647 215.65974 492.13333 215.65974C493.7902 215.65974 495.13333 217.0029 495.13333 218.65974Z" fill-rule="nonzero"/><path fill="#000000" fill-opacity="0.0" clip-path="url(#id_0)" d="M524.9056 214.46945C524.9056 216.12631 523.56244 217.46945 521.9056 217.46945C520.2487 217.46945 518.9056 216.12631 518.9056 214.46945C518.9056 212.8126 520.2487 211.46945 521.9056 211.46945C523.56244 211.46945 524.9056 212.8126 524.9056 214.46945Z" fill-rule="nonzero"/><path fill="#000000" fill-opacity="0.0" clip-path="url(#id_0)" d="M554.6778 207.36188C554.6778 209.01872 553.33466 210.36188 551.6778 210.36188C550.02094 210.36188 548.6778 209.01872 548.6778 207.36188C548.6778 205.70502 550.02094 204.36188 551.6778 204.36188C553.33466 204.36188 554.6778 205.70502 554.6778 207.36188Z" fill-rule="nonzero"/><path fill="#000000" fill-opacity="0.0" clip-path="url(#id_0)" d="M584.45 190.6184C584.45 192.27524 583.1069 193.6184 581.45 193.6184C579.79315 193.6184 578.45 192.27524 578.45 190.6184C578.45 188.96153 579.79315 187.6184 581.45 187.6184C583.1069 187.6184 584.45 188.96153 584.45 190.6184Z" fill-rule="nonzero"/><path fill="#000000" d="M314.46875 349.45L313.42188 349.45L313.42188 342.73126Q313.03125 343.09064 312.40625 343.46564Q311.79688 343.825 311.3125 343.9969L311.3125 342.98126Q312.1875 342.5594 312.84375 341.98126Q313.51562 341.3875 313.79688 340.825L314.46875 340.825L314.46875 349.45Z" fill-rule="nonzero"/><path fill="#000000" d="M33.05 300.21564Q33.05 298.6844 33.3625 297.7625Q33.675 296.825 34.284374 296.325Q34.909374 295.825 35.846874 295.825Q36.534374 295.825 37.05 296.10626Q37.58125 296.3875 37.925 296.91876Q38.26875 297.4344 38.45625 298.1844Q38.64375 298.9344 38.64375 300.21564Q38.64375 301.73126 38.33125 302.65314Q38.034374 303.575 37.409374 304.09064Q36.8 304.59064 35.846874 304.59064Q34.6125 304.59064 33.89375 303.7Q33.05 302.6375 33.05 300.21564ZM34.128124 300.21564Q34.128124 302.325 34.628124 303.02814Q35.128124 303.73126 35.846874 303.73126Q36.58125 303.73126 37.065624 303.02814Q37.565624 302.325 37.565624 300.21564Q37.565624 298.09064 37.065624 297.40314Q36.58125 296.7 35.83125 296.7Q35.1125 296.7 34.675 297.3094Q34.128124 298.09064 34.128124 300.21564Z" fill-rule="nonzero"/><path fill="#000000" d="M31.596874 232.71216L31.596874 233.72778L25.909374 233.72778Q25.909374 233.35278 26.034374 232.99341Q26.253124 232.41528 26.721874 231.85278Q27.20625 231.29028 28.1125 230.55591Q29.51875 229.39966 30.003124 228.72778Q30.503124 228.05591 30.503124 227.46216Q30.503124 226.83716 30.05 226.41528Q29.596874 225.97778 28.878124 225.97778Q28.1125 225.97778 27.659374 226.43091Q27.20625 226.88403 27.190624 227.69653L26.1125 227.58716Q26.221874 226.36841 26.940624 225.74341Q27.675 225.10278 28.909374 225.10278Q30.14375 225.10278 30.8625 225.79028Q31.58125 226.47778 31.58125 227.49341Q31.58125 228.00903 31.3625 228.50903Q31.159374 228.99341 30.659374 229.55591Q30.175 230.10278 29.05 231.05591Q28.096874 231.85278 27.815624 232.14966Q27.55 232.43091 27.378124 232.71216L31.596874 232.71216ZM33.05 229.49341Q33.05 227.96216 33.3625 227.04028Q33.675 226.10278 34.284374 225.60278Q34.909374 225.10278 35.846874 225.10278Q36.534374 225.10278 37.05 225.38403Q37.58125 225.66528 37.925 226.19653Q38.26875 226.71216 38.45625 227.46216Q38.64375 228.21216 38.64375 229.49341Q38.64375 231.00903 38.33125 231.93091Q38.034374 232.85278 37.409374 233.36841Q36.8 233.86841 35.846874 233.86841Q34.6125 233.86841 33.89375 232.97778Q33.05 231.91528 33.05 229.49341ZM34.128124 229.49341Q34.128124 231.60278 34.628124 232.30591Q35.128124 233.00903 35.846874 233.00903Q36.58125 233.00903 37.065624 232.30591Q37.565624 231.60278 37.565624 229.49341Q37.565624 227.36841 37.065624 226.68091Q36.58125 225.97778 35.83125 225.97778Q35.1125 225.97778 34.675 226.58716Q34.128124 227.36841 34.128124 229.49341Z" fill-rule="nonzero"/><path fill="#000000" d="M29.425 163.00555L29.425 160.94305L25.70625 160.94305L25.70625 159.9743L29.628124 154.4118L30.4875 154.4118L30.4875 159.9743L31.64375 159.9743L31.64375 160.94305L30.4875 160.94305L30.4875 163.00555L29.425 163.00555ZM29.425 159.9743L29.425 156.11493L26.7375 159.9743L29.425 159.9743ZM33.05 158.77118Q33.05 157.23993 33.3625 156.31805Q33.675 155.38055 34.284374 154.88055Q34.909374 154.38055 35.846874 154.38055Q36.534374 154.38055 37.05 154.6618Q37.58125 154.94305 37.925 155.4743Q38.26875 155.98993 38.45625 156.73993Q38.64375 157.48993 38.64375 158.77118Q38.64375 160.2868 38.33125 161.20868Q38.034374 162.13055 37.409374 162.64618Q36.8 163.14618 35.846874 163.14618Q34.6125 163.14618 33.89375 162.25555Q33.05 161.19305 33.05 158.77118ZM34.128124 158.77118Q34.128124 160.88055 34.628124 161.58368Q35.128124 162.2868 35.846874 162.2868Q36.58125 162.2868 37.065624 161.58368Q37.565624 160.88055 37.565624 158.77118Q37.565624 156.64618 37.065624 155.95868Q36.58125 155.25555 35.83125 155.25555Q35.1125 155.25555 34.675 155.86493Q34.128124 156.64618 34.128124 158.77118Z" fill-rule="nonzero"/><path fill="#000000" d="M31.51875 85.79896L30.471874 85.87708Q30.33125 85.25208 30.08125 84.97083Q29.64375 84.51771 29.01875 84.51771Q28.51875 84.51771 28.128124 84.79896Q27.64375 85.17396 27.346874 85.87708Q27.065624 86.56458 27.05 87.84583Q27.425 87.26771 27.971874 86.98646Q28.534374 86.70521 29.14375 86.70521Q30.190624 86.70521 30.925 87.48646Q31.675 88.26771 31.675 89.48646Q31.675 90.29896 31.315624 91.00208Q30.971874 91.68958 30.3625 92.06458Q29.753124 92.42396 28.9875 92.42396Q27.659374 92.42396 26.83125 91.45521Q26.003124 90.48646 26.003124 88.26771Q26.003124 85.76771 26.925 84.64271Q27.721874 83.65833 29.08125 83.65833Q30.096874 83.65833 30.7375 84.23646Q31.39375 84.79896 31.51875 85.79896ZM27.221874 89.50208Q27.221874 90.04896 27.440624 90.54896Q27.675 91.03333 28.08125 91.29896Q28.503124 91.56458 28.971874 91.56458Q29.628124 91.56458 30.1125 91.03333Q30.596874 90.48646 30.596874 89.56458Q30.596874 88.67396 30.1125 88.15833Q29.64375 87.64271 28.925 87.64271Q28.20625 87.64271 27.70625 88.15833Q27.221874 88.67396 27.221874 89.50208ZM33.05 88.04896Q33.05 86.51771 33.3625 85.59583Q33.675 84.65833 34.284374 84.15833Q34.909374 83.65833 35.846874 83.65833Q36.534374 83.65833 37.05 83.93958Q37.58125 84.22083 37.925 84.75208Q38.26875 85.26771 38.45625 86.01771Q38.64375 86.76771 38.64375 88.04896Q38.64375 89.56458 38.33125 90.48646Q38.034374 91.40833 37.409374 91.92396Q36.8 92.42396 35.846874 92.42396Q34.6125 92.42396 33.89375 91.53333Q33.05 90.47083 33.05 88.04896ZM34.128124 88.04896Q34.128124 90.15833 34.628124 90.86146Q35.128124 91.56458 35.846874 91.56458Q36.58125 91.56458 37.065624 90.86146Q37.565624 90.15833 37.565624 88.04896Q37.565624 85.92396 37.065624 85.23646Q36.58125 84.53333 35.83125 84.53333Q35.1125 84.53333 34.675 85.14271Q34.128124 85.92396 34.128124 88.04896Z" fill-rule="nonzero"/><path fill="#000000" d="M131.86667 315.2L132.97604 315.10626Q133.10104 315.91876 133.53854 316.325Q133.99167 316.73126 134.6323 316.73126Q135.3823 316.73126 135.91354 316.15314Q136.4448 315.575 136.4448 314.6375Q136.4448 313.73126 135.92917 313.21564Q135.42917 312.6844 134.60104 312.6844Q134.10104 312.6844 133.67917 312.91876Q133.27292 313.15314 133.03854 313.5125L132.05417 313.3875L132.8823 308.98126L137.16354 308.98126L137.16354 309.98126L133.72604 309.98126L133.27292 312.29376Q134.03854 311.7469 134.8823 311.7469Q136.0073 311.7469 136.77292 312.52814Q137.55417 313.3094 137.55417 314.54376Q137.55417 315.7 136.8823 316.5594Q136.05417 317.59064 134.6323 317.59064Q133.46042 317.59064 132.71042 316.9344Q131.97604 316.27814 131.86667 315.2Z" fill-rule="nonzero"/><path fill="#000000" d="M281.19653 317.45L280.14966 317.45L280.14966 310.73126Q279.75903 311.09064 279.13403 311.46564Q278.52466 311.825 278.04028 311.9969L278.04028 310.98126Q278.91528 310.5594 279.57153 309.98126Q280.2434 309.3875 280.52466 308.825L281.19653 308.825L281.19653 317.45ZM284.22778 313.21564Q284.22778 311.6844 284.54028 310.7625Q284.85278 309.825 285.46216 309.325Q286.08716 308.825 287.02466 308.825Q287.71216 308.825 288.22778 309.10626Q288.75903 309.3875 289.10278 309.91876Q289.44653 310.4344 289.63403 311.1844Q289.82153 311.9344 289.82153 313.21564Q289.82153 314.73126 289.50903 315.65314Q289.21216 316.575 288.58716 317.09064Q287.97778 317.59064 287.02466 317.59064Q285.79028 317.59064 285.07153 316.7Q284.22778 315.6375 284.22778 313.21564ZM285.3059 313.21564Q285.3059 315.325 285.8059 316.02814Q286.3059 316.73126 287.02466 316.73126Q287.75903 316.73126 288.2434 316.02814Q288.7434 315.325 288.7434 313.21564Q288.7434 311.09064 288.2434 310.40314Q287.75903 309.7 287.00903 309.7Q286.29028 309.7 285.85278 310.3094Q285.3059 311.09064 285.3059 313.21564Z" fill-rule="nonzero"/><path fill="#000000" d="M430.05765 317.45L429.01077 317.45L429.01077 310.73126Q428.62015 311.09064 427.99515 311.46564Q427.38577 311.825 426.9014 311.9969L426.9014 310.98126Q427.7764 310.5594 428.43265 309.98126Q429.10452 309.3875 429.38577 308.825L430.05765 308.825L430.05765 317.45ZM433.0889 315.2L434.19827 315.10626Q434.32327 315.91876 434.76077 316.325Q435.2139 316.73126 435.85452 316.73126Q436.60452 316.73126 437.13577 316.15314Q437.66702 315.575 437.66702 314.6375Q437.66702 313.73126 437.1514 313.21564Q436.6514 312.6844 435.82327 312.6844Q435.32327 312.6844 434.9014 312.91876Q434.49515 313.15314 434.26077 313.5125L433.2764 313.3875L434.10452 308.98126L438.38577 308.98126L438.38577 309.98126L434.94827 309.98126L434.49515 312.29376Q435.26077 311.7469 436.10452 311.7469Q437.22952 311.7469 437.99515 312.52814Q438.7764 313.3094 438.7764 314.54376Q438.7764 315.7 438.10452 316.5594Q437.2764 317.59064 435.85452 317.59064Q434.68265 317.59064 433.93265 316.9344Q433.19827 316.27814 433.0889 315.2Z" fill-rule="nonzero"/><path fill="#000000" d="M580.4969 316.4344L580.4969 317.45L574.8094 317.45Q574.8094 317.075 574.9344 316.71564Q575.15314 316.1375 575.6219 315.575Q576.10626 315.0125 577.0125 314.27814Q578.41876 313.1219 578.90314 312.45Q579.40314 311.77814 579.40314 311.1844Q579.40314 310.5594 578.95 310.1375Q578.4969 309.7 577.77814 309.7Q577.0125 309.7 576.5594 310.15314Q576.10626 310.60626 576.09064 311.41876L575.0125 311.3094Q575.1219 310.09064 575.84064 309.46564Q576.575 308.825 577.8094 308.825Q579.04376 308.825 579.7625 309.5125Q580.48126 310.2 580.48126 311.21564Q580.48126 311.73126 580.2625 312.23126Q580.0594 312.71564 579.5594 313.27814Q579.075 313.825 577.95 314.77814Q576.9969 315.575 576.71564 315.8719Q576.45 316.15314 576.27814 316.4344L580.4969 316.4344ZM581.95 313.21564Q581.95 311.6844 582.2625 310.7625Q582.575 309.825 583.1844 309.325Q583.8094 308.825 584.7469 308.825Q585.4344 308.825 585.95 309.10626Q586.48126 309.3875 586.825 309.91876Q587.16876 310.4344 587.35626 311.1844Q587.54376 311.9344 587.54376 313.21564Q587.54376 314.73126 587.23126 315.65314Q586.9344 316.575 586.3094 317.09064Q585.7 317.59064 584.7469 317.59064Q583.5125 317.59064 582.79376 316.7Q581.95 315.6375 581.95 313.21564ZM583.02814 313.21564Q583.02814 315.325 583.52814 316.02814Q584.02814 316.73126 584.7469 316.73126Q585.48126 316.73126 585.96564 316.02814Q586.46564 315.325 586.46564 313.21564Q586.46564 311.09064 585.96564 310.40314Q585.48126 309.7 584.73126 309.7Q584.0125 309.7 583.575 310.3094Q583.02814 311.09064 583.02814 313.21564Z" fill-rule="nonzero"/><path stroke="#4285f4" stroke-width="4.0" stroke-linecap="butt" d="M227.0 61.916668L239.0 61.916668" fill-rule="nonzero"/><path fill="#1a1a1a" d="M247.54688 63.15104L248.60938 63.05729Q248.6875 63.71354 248.96875 64.11979Q249.25 64.52604 249.82812 64.791664Q250.42188 65.041664 251.15625 65.041664Q251.79688 65.041664 252.29688 64.854164Q252.79688 64.65104 253.03125 64.322914Q253.28125 63.979164 253.28125 63.58854Q253.28125 63.18229 253.04688 62.885414Q252.8125 62.572914 252.28125 62.36979Q251.92188 62.229164 250.73438 61.947914Q249.5625 61.666664 249.09375 61.416664Q248.46875 61.08854 248.17188 60.61979Q247.875 60.135414 247.875 59.541664Q247.875 58.90104 248.23438 58.33854Q248.60938 57.760414 249.3125 57.479164Q250.03125 57.18229 250.89062 57.18229Q251.84375 57.18229 252.57812 57.49479Q253.3125 57.791664 253.70312 58.40104Q254.09375 58.99479 254.125 59.74479L253.03125 59.822914Q252.9375 59.010414 252.42188 58.604164Q251.92188 58.18229 250.9375 58.18229Q249.90625 58.18229 249.4375 58.55729Q248.96875 58.93229 248.96875 59.46354Q248.96875 59.93229 249.29688 60.229164Q249.625 60.52604 251.0 60.83854Q252.39062 61.15104 252.90625 61.385414Q253.65625 61.74479 254.01562 62.27604Q254.375 62.791664 254.375 63.49479Q254.375 64.18229 253.98438 64.791664Q253.59375 65.385414 252.85938 65.729164Q252.125 66.05729 251.20312 66.05729Q250.03125 66.05729 249.23438 65.729164Q248.45312 65.385414 248.0 64.697914Q247.5625 64.010414 247.54688 63.15104ZM262.4375 64.99479Q263.23438 65.541664 263.89062 65.791664L263.5625 66.58854Q262.64062 66.24479 261.71875 65.52604Q260.76562 66.05729 259.60938 66.05729Q258.4375 66.05729 257.48438 65.49479Q256.54688 64.93229 256.03125 63.916664Q255.51562 62.90104 255.51562 61.61979Q255.51562 60.354164 256.03125 59.30729Q256.54688 58.260414 257.5 57.71354Q258.45312 57.166664 259.625 57.166664Q260.8125 57.166664 261.76562 57.74479Q262.73438 58.30729 263.23438 59.322914Q263.73438 60.33854 263.73438 61.61979Q263.73438 62.68229 263.40625 63.52604Q263.09375 64.36979 262.4375 64.99479ZM259.9375 63.541664Q260.92188 63.822914 261.5625 64.36979Q262.5625 63.447914 262.5625 61.61979Q262.5625 60.572914 262.20312 59.791664Q261.84375 59.010414 261.15625 58.58854Q260.48438 58.15104 259.64062 58.15104Q258.35938 58.15104 257.51562 59.02604Q256.6875 59.885414 256.6875 61.61979Q256.6875 63.291664 257.51562 64.197914Q258.34375 65.08854 259.64062 65.08854Q260.25 65.08854 260.78125 64.854164Q260.25 64.510414 259.65625 64.36979L259.9375 63.541664ZM264.375 63.33854L264.375 62.27604L267.625 62.27604L267.625 63.33854L264.375 63.33854ZM274.04688 64.90104L274.04688 65.916664L268.35938 65.916664Q268.35938 65.541664 268.48438 65.18229Q268.70312 64.604164 269.17188 64.041664Q269.65625 63.479164 270.5625 62.74479Q271.96875 61.58854 272.45312 60.916664Q272.95312 60.24479 272.95312 59.65104Q272.95312 59.02604 272.5 58.604164Q272.04688 58.166664 271.32812 58.166664Q270.5625 58.166664 270.10938 58.61979Q269.65625 59.072914 269.64062 59.885414L268.5625 59.77604Q268.67188 58.55729 269.39062 57.93229Q270.125 57.291664 271.35938 57.291664Q272.59375 57.291664 273.3125 57.979164Q274.03125 58.666664 274.03125 59.68229Q274.03125 60.197914 273.8125 60.697914Q273.60938 61.18229 273.10938 61.74479Q272.625 62.291664 271.5 63.24479Q270.54688 64.041664 270.26562 64.33854Q270.0 64.61979 269.82812 64.90104L274.04688 64.90104ZM275.92188 65.916664L275.92188 57.322914L279.17188 57.322914Q280.01562 57.322914 280.46875 57.40104Q281.10938 57.510414 281.53125 57.80729Q281.96875 58.104164 282.21875 58.635414Q282.48438 59.166664 282.48438 59.80729Q282.48438 60.90104 281.78125 61.666664Q281.09375 62.416664 279.26562 62.416664L277.0625 62.416664L277.0625 65.916664L275.92188 65.916664ZM277.0625 61.416664L279.28125 61.416664Q280.39062 61.416664 280.84375 61.010414Q281.3125 60.58854 281.3125 59.83854Q281.3125 59.30729 281.03125 58.93229Q280.76562 58.541664 280.32812 58.416664Q280.03125 58.33854 279.26562 58.33854L277.0625 58.33854L277.0625 61.416664ZM283.9375 65.916664L283.9375 57.322914L287.75 57.322914Q288.90625 57.322914 289.5 57.55729Q290.09375 57.791664 290.45312 58.385414Q290.8125 58.96354 290.8125 59.666664Q290.8125 60.58854 290.21875 61.21354Q289.625 61.83854 288.39062 62.010414Q288.84375 62.229164 289.07812 62.43229Q289.57812 62.885414 290.01562 63.572914L291.51562 65.916664L290.07812 65.916664L288.95312 64.135414Q288.45312 63.354164 288.125 62.947914Q287.8125 62.541664 287.54688 62.385414Q287.29688 62.21354 287.03125 62.135414Q286.84375 62.104164 286.40625 62.104164L285.07812 62.104164L285.07812 65.916664L283.9375 65.916664ZM285.07812 61.11979L287.53125 61.11979Q288.29688 61.11979 288.73438 60.96354Q289.1875 60.791664 289.40625 60.447914Q289.64062 60.08854 289.64062 59.666664Q289.64062 59.05729 289.1875 58.666664Q288.75 58.27604 287.79688 58.27604L285.07812 58.27604L285.07812 61.11979Z" fill-rule="nonzero"/><path stroke="#ea4335" stroke-width="4.0" stroke-linecap="butt" d="M308.0 61.916668L320.0 61.916668" fill-rule="nonzero"/><path fill="#1a1a1a" d="M328.92188 65.916664L328.92188 57.322914L332.17188 57.322914Q333.01562 57.322914 333.46875 57.40104Q334.10938 57.510414 334.53125 57.80729Q334.96875 58.104164 335.21875 58.635414Q335.48438 59.166664 335.48438 59.80729Q335.48438 60.90104 334.78125 61.666664Q334.09375 62.416664 332.26562 62.416664L330.0625 62.416664L330.0625 65.916664L328.92188 65.916664ZM330.0625 61.416664L332.28125 61.416664Q333.39062 61.416664 333.84375 61.010414Q334.3125 60.58854 334.3125 59.83854Q334.3125 59.30729 334.03125 58.93229Q333.76562 58.541664 333.32812 58.416664Q333.03125 58.33854 332.26562 58.33854L330.0625 58.33854L330.0625 61.416664ZM336.9375 65.916664L336.9375 57.322914L340.75 57.322914Q341.90625 57.322914 342.5 57.55729Q343.09375 57.791664 343.45312 58.385414Q343.8125 58.96354 343.8125 59.666664Q343.8125 60.58854 343.21875 61.21354Q342.625 61.83854 341.39062 62.010414Q341.84375 62.229164 342.07812 62.43229Q342.57812 62.885414 343.01562 63.572914L344.51562 65.916664L343.07812 65.916664L341.95312 64.135414Q341.45312 63.354164 341.125 62.947914Q340.8125 62.541664 340.54688 62.385414Q340.29688 62.21354 340.03125 62.135414Q339.84375 62.104164 339.40625 62.104164L338.07812 62.104164L338.07812 65.916664L336.9375 65.916664ZM338.07812 61.11979L340.53125 61.11979Q341.29688 61.11979 341.73438 60.96354Q342.1875 60.791664 342.40625 60.447914Q342.64062 60.08854 342.64062 59.666664Q342.64062 59.05729 342.1875 58.666664Q341.75 58.27604 340.79688 58.27604L338.07812 58.27604L338.07812 61.11979ZM345.375 63.33854L345.375 62.27604L348.625 62.27604L348.625 63.33854L345.375 63.33854ZM355.04688 64.90104L355.04688 65.916664L349.35938 65.916664Q349.35938 65.541664 349.48438 65.18229Q349.70312 64.604164 350.17188 64.041664Q350.65625 63.479164 351.5625 62.74479Q352.96875 61.58854 353.45312 60.916664Q353.95312 60.24479 353.95312 59.65104Q353.95312 59.02604 353.5 58.604164Q353.04688 58.166664 352.32812 58.166664Q351.5625 58.166664 351.10938 58.61979Q350.65625 59.072914 350.64062 59.885414L349.5625 59.77604Q349.67188 58.55729 350.39062 57.93229Q351.125 57.291664 352.35938 57.291664Q353.59375 57.291664 354.3125 57.979164Q355.03125 58.666664 355.03125 59.68229Q355.03125 60.197914 354.8125 60.697914Q354.60938 61.18229 354.10938 61.74479Q353.625 62.291664 352.5 63.24479Q351.54688 64.041664 351.26562 64.33854Q351.0 64.61979 350.82812 64.90104L355.04688 64.90104ZM356.92188 65.916664L356.92188 57.322914L360.17188 57.322914Q361.01562 57.322914 361.46875 57.40104Q362.10938 57.510414 362.53125 57.80729Q362.96875 58.104164 363.21875 58.635414Q363.48438 59.166664 363.48438 59.80729Q363.48438 60.90104 362.78125 61.666664Q362.09375 62.416664 360.26562 62.416664L358.0625 62.416664L358.0625 65.916664L356.92188 65.916664ZM358.0625 61.416664L360.28125 61.416664Q361.39062 61.416664 361.84375 61.010414Q362.3125 60.58854 362.3125 59.83854Q362.3125 59.30729 362.03125 58.93229Q361.76562 58.541664 361.32812 58.416664Q361.03125 58.33854 360.26562 58.33854L358.0625 58.33854L358.0625 61.416664ZM364.9375 65.916664L364.9375 57.322914L368.75 57.322914Q369.90625 57.322914 370.5 57.55729Q371.09375 57.791664 371.45312 58.385414Q371.8125 58.96354 371.8125 59.666664Q371.8125 60.58854 371.21875 61.21354Q370.625 61.83854 369.39062 62.010414Q369.84375 62.229164 370.07812 62.43229Q370.57812 62.885414 371.01562 63.572914L372.51562 65.916664L371.07812 65.916664L369.95312 64.135414Q369.45312 63.354164 369.125 62.947914Q368.8125 62.541664 368.54688 62.385414Q368.29688 62.21354 368.03125 62.135414Q367.84375 62.104164 367.40625 62.104164L366.07812 62.104164L366.07812 65.916664L364.9375 65.916664ZM366.07812 61.11979L368.53125 61.11979Q369.29688 61.11979 369.73438 60.96354Q370.1875 60.791664 370.40625 60.447914Q370.64062 60.08854 370.64062 59.666664Q370.64062 59.05729 370.1875 58.666664Q369.75 58.27604 368.79688 58.27604L366.07812 58.27604L366.07812 61.11979Z" fill-rule="nonzero"/><path fill="#757575" d="M19.45625 32.95625L21.2375 32.8Q21.3625 33.8625 21.815624 34.55Q22.284374 35.2375 23.253124 35.675Q24.2375 36.096874 25.471874 36.096874Q26.55 36.096874 27.378124 35.784374Q28.20625 35.45625 28.6125 34.89375Q29.01875 34.33125 29.01875 33.659374Q29.01875 32.9875 28.628124 32.4875Q28.2375 31.9875 27.346874 31.64375Q26.76875 31.409374 24.784374 30.940624Q22.815624 30.471874 22.034374 30.05Q21.003124 29.51875 20.503124 28.721874Q20.003124 27.925 20.003124 26.940624Q20.003124 25.846874 20.6125 24.909374Q21.221874 23.971874 22.409374 23.4875Q23.596874 22.9875 25.034374 22.9875Q26.628124 22.9875 27.846874 23.503124Q29.065624 24.01875 29.70625 25.01875Q30.3625 26.003124 30.409374 27.26875L28.596874 27.409374Q28.45625 26.05 27.6125 25.3625Q26.76875 24.659374 25.1125 24.659374Q23.39375 24.659374 22.596874 25.3Q21.815624 25.925 21.815624 26.8Q21.815624 27.58125 22.378124 28.08125Q22.925 28.58125 25.2375 29.096874Q27.55 29.6125 28.409374 30.003124Q29.659374 30.58125 30.253124 31.471874Q30.846874 32.346874 30.846874 33.503124Q30.846874 34.64375 30.190624 35.659374Q29.534374 36.675 28.3 37.2375Q27.08125 37.8 25.55 37.8Q23.6125 37.8 22.3 37.2375Q20.9875 36.659374 20.2375 35.51875Q19.4875 34.378124 19.45625 32.95625ZM43.940624 36.01875Q45.26875 36.925 46.378124 37.346874L45.815624 38.659374Q44.26875 38.1125 42.7375 36.909374Q41.14375 37.8 39.221874 37.8Q37.284374 37.8 35.690624 36.8625Q34.1125 35.925 33.253124 34.221874Q32.409374 32.51875 32.409374 30.39375Q32.409374 28.26875 33.26875 26.534374Q34.128124 24.8 35.70625 23.89375Q37.3 22.971874 39.26875 22.971874Q41.253124 22.971874 42.83125 23.925Q44.425 24.8625 45.253124 26.565624Q46.096874 28.253124 46.096874 30.378124Q46.096874 32.14375 45.565624 33.565624Q45.034374 34.971874 43.940624 36.01875ZM39.76875 33.596874Q41.409374 34.05 42.471874 34.95625Q44.14375 33.440624 44.14375 30.378124Q44.14375 28.64375 43.55 27.346874Q42.971874 26.05 41.83125 25.33125Q40.690624 24.6125 39.26875 24.6125Q37.159374 24.6125 35.753124 26.065624Q34.3625 27.503124 34.3625 30.39375Q34.3625 33.190624 35.7375 34.690624Q37.128124 36.175 39.26875 36.175Q40.284374 36.175 41.190624 35.784374Q40.3 35.221874 39.315624 34.971874L39.76875 33.596874ZM48.190624 33.253124L48.190624 31.4875L53.58125 31.4875L53.58125 33.253124L48.190624 33.253124ZM64.6125 35.8625L64.6125 37.55L55.159374 37.55Q55.14375 36.909374 55.3625 36.33125Q55.721874 35.3625 56.51875 34.425Q57.315624 33.4875 58.815624 32.253124Q61.159374 30.346874 61.971874 29.2375Q62.8 28.1125 62.8 27.1125Q62.8 26.065624 62.05 25.346874Q61.3 24.628124 60.096874 24.628124Q58.83125 24.628124 58.065624 25.39375Q57.3 26.159374 57.3 27.503124L55.4875 27.315624Q55.675 25.3 56.878124 24.2375Q58.096874 23.175 60.14375 23.175Q62.190624 23.175 63.39375 24.315624Q64.59688 25.45625 64.59688 27.14375Q64.59688 28.003124 64.2375 28.846874Q63.89375 29.675 63.08125 30.596874Q62.26875 31.503124 60.378124 33.1125Q58.784374 34.440624 58.33125 34.909374Q57.89375 35.378124 57.596874 35.8625L64.6125 35.8625ZM67.09688 37.55L67.09688 23.2375L72.4875 23.2375Q73.925 23.2375 74.675 23.3625Q75.72188 23.55 76.44063 24.05Q77.15938 24.534374 77.58125 25.425Q78.01875 26.315624 78.01875 27.378124Q78.01875 29.20625 76.84688 30.471874Q75.69063 31.721874 72.65938 31.721874L68.9875 31.721874L68.9875 37.55L67.09688 37.55ZM68.9875 30.034374L72.69063 30.034374Q74.51875 30.034374 75.28438 29.3625Q76.06563 28.675 76.06563 27.425Q76.06563 26.534374 75.6125 25.89375Q75.15938 25.253124 74.425 25.05Q73.94063 24.925 72.64375 24.925L68.9875 24.925L68.9875 30.034374ZM80.12813 37.55L80.12813 23.2375L86.47188 23.2375Q88.37813 23.2375 89.37813 23.628124Q90.37813 24.003124 90.97188 24.9875Q91.56563 25.95625 91.56563 27.14375Q91.56563 28.659374 90.58125 29.70625Q89.59688 30.753124 87.53438 31.034374Q88.28438 31.39375 88.675 31.753124Q89.50313 32.503124 90.25313 33.659374L92.7375 37.55L90.3625 37.55L88.45625 34.565624Q87.62813 33.284374 87.09688 32.596874Q86.56563 31.909374 86.12813 31.64375Q85.70625 31.3625 85.26875 31.253124Q84.94063 31.190624 84.22188 31.190624L82.01875 31.190624L82.01875 37.55L80.12813 37.55ZM82.01875 29.55L86.09688 29.55Q87.39375 29.55 88.1125 29.284374Q88.84688 29.01875 89.22188 28.425Q89.6125 27.83125 89.6125 27.14375Q89.6125 26.128124 88.87813 25.471874Q88.14375 24.815624 86.55 24.815624L82.01875 24.815624L82.01875 29.55ZM106.64375 36.26875Q105.65938 37.096874 104.75313 37.440624Q103.84688 37.784374 102.81563 37.784374Q101.1125 37.784374 100.19063 36.95625Q99.26875 36.1125 99.26875 34.815624Q99.26875 34.05 99.6125 33.425Q99.97188 32.8 100.53438 32.425Q101.09688 32.034374 101.8 31.83125Q102.31563 31.70625 103.3625 31.565624Q105.4875 31.315624 106.4875 30.971874Q106.50313 30.6125 106.50313 30.503124Q106.50313 29.440624 106.00313 28.9875Q105.33125 28.39375 104.00313 28.39375Q102.75313 28.39375 102.15938 28.83125Q101.58125 29.26875 101.3 30.378124L99.58125 30.14375Q99.81563 29.034374 100.34688 28.3625Q100.87813 27.675 101.89375 27.315624Q102.90938 26.940624 104.25313 26.940624Q105.58125 26.940624 106.40938 27.253124Q107.2375 27.565624 107.62813 28.05Q108.01875 28.51875 108.175 29.2375Q108.26875 29.690624 108.26875 30.8625L108.26875 33.20625Q108.26875 35.659374 108.37813 36.315624Q108.4875 36.95625 108.83125 37.55L106.9875 37.55Q106.72188 37.003124 106.64375 36.26875ZM106.4875 32.346874Q105.53438 32.7375 103.6125 33.003124Q102.53438 33.159374 102.08125 33.3625Q101.64375 33.55 101.39375 33.925Q101.14375 34.3 101.14375 34.76875Q101.14375 35.471874 101.675 35.940624Q102.20625 36.409374 103.2375 36.409374Q104.25313 36.409374 105.03438 35.971874Q105.83125 35.51875 106.20625 34.753124Q106.4875 34.14375 106.4875 32.9875L106.4875 32.346874ZM110.8625 37.55L110.8625 27.175L112.45625 27.175L112.45625 28.659374Q113.59688 26.940624 115.75313 26.940624Q116.69063 26.940624 117.47188 27.284374Q118.26875 27.6125 118.65938 28.159374Q119.05 28.70625 119.20625 29.45625Q119.3 29.95625 119.3 31.175L119.3 37.55L117.53438 37.55L117.53438 31.2375Q117.53438 30.159374 117.33125 29.628124Q117.12813 29.096874 116.59688 28.784374Q116.08125 28.471874 115.37813 28.471874Q114.25313 28.471874 113.44063 29.190624Q112.62813 29.89375 112.62813 31.878124L112.62813 37.55L110.8625 37.55ZM127.59688 37.55L127.59688 36.2375Q126.6125 37.784374 124.69063 37.784374Q123.45625 37.784374 122.40938 37.096874Q121.37813 36.409374 120.8 35.190624Q120.2375 33.971874 120.2375 32.378124Q120.2375 30.815624 120.75313 29.55Q121.26875 28.284374 122.3 27.6125Q123.34688 26.940624 124.6125 26.940624Q125.55 26.940624 126.28438 27.346874Q127.01875 27.7375 127.4875 28.3625L127.4875 23.2375L129.22188 23.2375L129.22188 37.55L127.59688 37.55ZM122.03438 32.378124Q122.03438 34.3625 122.87813 35.346874Q123.72188 36.33125 124.8625 36.33125Q126.01875 36.33125 126.81563 35.39375Q127.62813 34.45625 127.62813 32.51875Q127.62813 30.39375 126.8 29.39375Q125.9875 28.39375 124.78438 28.39375Q123.6125 28.39375 122.81563 29.3625Q122.03438 30.315624 122.03438 32.378124ZM138.09688 37.55L138.09688 23.2375L143.4875 23.2375Q144.925 23.2375 145.675 23.3625Q146.72188 23.55 147.44063 24.05Q148.15938 24.534374 148.58125 25.425Q149.01875 26.315624 149.01875 27.378124Q149.01875 29.20625 147.84688 30.471874Q146.69063 31.721874 143.65938 31.721874L139.9875 31.721874L139.9875 37.55L138.09688 37.55ZM139.9875 30.034374L143.69063 30.034374Q145.51875 30.034374 146.28438 29.3625Q147.06563 28.675 147.06563 27.425Q147.06563 26.534374 146.6125 25.89375Q146.15938 25.253124 145.425 25.05Q144.94063 24.925 143.64375 24.925L139.9875 24.925L139.9875 30.034374ZM151.12813 37.55L151.12813 23.2375L157.47188 23.2375Q159.37813 23.2375 160.37813 23.628124Q161.37813 24.003124 161.97188 24.9875Q162.56563 25.95625 162.56563 27.14375Q162.56563 28.659374 161.58125 29.70625Q160.59688 30.753124 158.53438 31.034374Q159.28438 31.39375 159.675 31.753124Q160.50313 32.503124 161.25313 33.659374L163.7375 37.55L161.3625 37.55L159.45625 34.565624Q158.62813 33.284374 158.09688 32.596874Q157.56563 31.909374 157.12813 31.64375Q156.70625 31.3625 156.26875 31.253124Q155.94063 31.190624 155.22188 31.190624L153.01875 31.190624L153.01875 37.55L151.12813 37.55ZM153.01875 29.55L157.09688 29.55Q158.39375 29.55 159.1125 29.284374Q159.84688 29.01875 160.22188 28.425Q160.6125 27.83125 160.6125 27.14375Q160.6125 26.128124 159.87813 25.471874Q159.14375 24.815624 157.55 24.815624L153.01875 24.815624L153.01875 29.55ZM164.19063 33.253124L164.19063 31.4875L169.58125 31.4875L169.58125 33.253124L164.19063 33.253124ZM180.6125 35.8625L180.6125 37.55L171.15938 37.55Q171.14375 36.909374 171.3625 36.33125Q171.72188 35.3625 172.51875 34.425Q173.31563 33.4875 174.81563 32.253124Q177.15938 30.346874 177.97188 29.2375Q178.8 28.1125 178.8 27.1125Q178.8 26.065624 178.05 25.346874Q177.3 24.628124 176.09688 24.628124Q174.83125 24.628124 174.06563 25.39375Q173.3 26.159374 173.3 27.503124L171.4875 27.315624Q171.675 25.3 172.87813 24.2375Q174.09688 23.175 176.14375 23.175Q178.19063 23.175 179.39375 24.315624Q180.59688 25.45625 180.59688 27.14375Q180.59688 28.003124 180.2375 28.846874Q179.89375 29.675 179.08125 30.596874Q178.26875 31.503124 176.37813 33.1125Q174.78438 34.440624 174.33125 34.909374Q173.89375 35.378124 173.59688 35.8625L180.6125 35.8625ZM183.09688 37.55L183.09688 23.2375L188.4875 23.2375Q189.925 23.2375 190.675 23.3625Q191.72188 23.55 192.44063 24.05Q193.15938 24.534374 193.58125 25.425Q194.01875 26.315624 194.01875 27.378124Q194.01875 29.20625 192.84688 30.471874Q191.69063 31.721874 188.65938 31.721874L184.9875 31.721874L184.9875 37.55L183.09688 37.55ZM184.9875 30.034374L188.69063 30.034374Q190.51875 30.034374 191.28438 29.3625Q192.06563 28.675 192.06563 27.425Q192.06563 26.534374 191.6125 25.89375Q191.15938 25.253124 190.425 25.05Q189.94063 24.925 188.64375 24.925L184.9875 24.925L184.9875 30.034374ZM196.12813 37.55L196.12813 23.2375L202.47188 23.2375Q204.37813 23.2375 205.37813 23.628124Q206.37813 24.003124 206.97188 24.9875Q207.56563 25.95625 207.56563 27.14375Q207.56563 28.659374 206.58125 29.70625Q205.59688 30.753124 203.53438 31.034374Q204.28438 31.39375 204.675 31.753124Q205.50313 32.503124 206.25313 33.659374L208.7375 37.55L206.3625 37.55L204.45625 34.565624Q203.62813 33.284374 203.09688 32.596874Q202.56563 31.909374 202.12813 31.64375Q201.70625 31.3625 201.26875 31.253124Q200.94063 31.190624 200.22188 31.190624L198.01875 31.190624L198.01875 37.55L196.12813 37.55ZM198.01875 29.55L202.09688 29.55Q203.39375 29.55 204.1125 29.284374Q204.84688 29.01875 205.22188 28.425Q205.6125 27.83125 205.6125 27.14375Q205.6125 26.128124 204.87813 25.471874Q204.14375 24.815624 202.55 24.815624L198.01875 24.815624L198.01875 29.55Z" fill-rule="nonzero"/></svg>