<svg version="1.1" viewBox="0.0 0.0 600.0 371.0" fill="none" stroke="none" stroke-linecap="square" stroke-miterlimit="10" width="600" height="371" xmlns:xlink="http://www.w3.org/1999/xlink" xmlns="http://www.w3.org/2000/svg"><path fill="#ffffff" d="M0 0L600.0 0L600.0 371.0L0 371.0L0 0Z" fill-rule="nonzero"/><path stroke="#cccccc" stroke-width="1.0" stroke-linecap="butt" d="M158.5 88.5L158.5 332.5" fill-rule="nonzero"/><path stroke="#cccccc" stroke-width="1.0" stroke-linecap="butt" d="M299.5 88.5L299.5 332.5" fill-rule="nonzero"/><path stroke="#cccccc" stroke-width="1.0" stroke-linecap="butt" d="M440.5 88.5L440.5 332.5" fill-rule="nonzero"/><path stroke="#cccccc" stroke-width="1.0" stroke-linecap="butt" d="M581.5 88.5L581.5 332.5" fill-rule="nonzero"/><path stroke="#333333" stroke-width="1.0" stroke-linecap="butt" d="M45.5 332.5L581.5 332.5" fill-rule="nonzero"/><path stroke="#cccccc" stroke-width="1.0" stroke-linecap="butt" d="M45.5 271.5L581.5 271.5" fill-rule="nonzero"/><path stroke="#cccccc" stroke-width="1.0" stroke-linecap="butt" d="M45.5 210.5L581.5 210.5" fill-rule="nonzero"/><path stroke="#cccccc" stroke-width="1.0" stroke-linecap="butt" d="M45.5 149.5L581.5 149.5" fill-rule="nonzero"/><path stroke="#cccccc" stroke-width="1.0" stroke-linecap="butt" d="M45.5 88.5L581.5 88.5" fill-rule="nonzero"/><clipPath id="id_0"><path d="M45.55 88.28333L581.45 88.28333L581.45 332.45L45.55 332.45L45.55 88.28333Z" clip-rule="nonzero"/></clipPath><path stroke="#4285f4" stroke-width="2.0" stroke-linecap="butt" clip-path="url(#id_0)" d="M45.55 317.3773L73.755264 314.67923L101.960526 302.04514L130.16579 286.62296L158.37105 282.43246L186.57631 275.37604L214.78159 265.31027L242.98685 255.58176L271.1921 243.05142L299.39737 229.06831L327.60263 224.52834L355.8079 227.3561L384.01315 218.35397L412.2184 207.25049L440.42368 193.39708L468.62894 190.41367L496.8342 172.27972L525.0395 172.53914L553.24475 164.05588L581.45 147.81575" fill-rule="nonzero"/><path stroke="#ea4335" stroke-width="2.0" stroke-linecap="butt" clip-path="url(#id_0)" d="M45.55 322.35828L73.755264 309.46475L101.960526 307.20773L130.16579 298.51694L158.37105 290.44876L186.57631 281.34286L214.78159 272.62613L242.98685 262.43063L271.1921 250.03001L299.39737 239.93831L327.60263 231.09184L355.8079 219.57327L384.01315 208.6514L412.2184 197.34038L440.42368 187.66374L468.62894 178.94699L496.8342 166.0794L525.0395 171.08635L553.24475 159.64561L581.45 142.05646" fill-rule="nonzero"/><path fill="#000000" fill-opacity="0.0" clip-path="url(#id_0)" d="M48.55 317.3773C48.55 319.03415 47.206856 320.3773 45.55 320.3773C43.893147 320.3773 42.55 319.03415 42.55 317.3773C42.55 315.72043 43.893147 314.3773 45.55 314.3773C47.206856 314.3773 48.55 315.72043 48.55 317.3773Z" fill-rule="nonzero"/><path fill="#000000" fill-opacity="0.0" clip-path="url(#id_0)" d="M76.755264 314.67923C76.755264 316.3361 75.41212 317.67923 73.755264 317.67923C72.09841 317.67923 70.755264 316.3361 70.755264 314.67923C70.755264 313.0224 72.09841 311.67923 73.755264 311.67923C75.41212 311.67923 76.755264 313.0224 76.755264 314.67923Z" fill-rule="nonzero"/><path fill="#000000" fill-opacity="0.0" clip-path="url(#id_0)" d="M104.960526 302.04514C104.960526 303.702 103.61738 305.04514 101.960526 305.04514C100.30367 305.04514 98.960526 303.702 98.960526 302.04514C98.960526 300.3883 100.30367 299.04514 101.960526 299.04514C103.61738 299.04514 104.960526 300.3883 104.960526 302.04514Z" fill-rule="nonzero"/><path fill="#000000" fill-opacity="0.0" clip-path="url(#id_0)" d="M133.16579 286.62296C133.16579 288.27982 131.82265 289.62296 130.16579 289.62296C128.50894 289.62296 127.16579 288.27982 127.16579 286.62296C127.16579 284.96613 128.50894 283.62296 130.16579 283.62296C131.82265 283.62296 133.16579 284.96613 133.16579 286.62296Z" fill-rule="nonzero"/><path fill="#000000" fill-opacity="0.0" clip-path="url(#id_0)" d="M161.37105 282.43246C161.37105 284.08932 160.02791 285.43246 158.37105 285.43246C156.7142 285.43246 155.37105 284.08932 155.37105 282.43246C155.37105 280.7756 156.7142 279.43246 158.37105 279.43246C160.02791 279.43246 161.37105 280.7756 161.37105 282.43246Z" fill-rule="nonzero"/><path fill="#000000" fill-opacity="0.0" clip-path="url(#id_0)" d="M189.57631 275.37604C189.57631 277.0329 188.23317 278.37604 186.57631 278.37604C184.91946 278.37604 183.57631 277.0329 183.57631 275.37604C183.57631 273.71918 184.91946 272.37604 186.57631 272.37604C188.23317 272.37604 189.57631 273.71918 189.57631 275.37604Z" fill-rule="nonzero"/><path fill="#000000" fill-opacity="0.0" clip-path="url(#id_0)" d="M217.78159 265.31027C217.78159 266.96713 216.43843 268.31027 214.78159 268.31027C213.12473 268.31027 211.78159 266.96713 211.78159 265.31027C211.78159 263.6534 213.12473 262.31027 214.78159 262.31027C216.43843 262.31027 217.78159 263.6534 217.78159 265.31027Z" fill-rule="nonzero"/><path fill="#000000" fill-opacity="0.0" clip-path="url(#id_0)" d="M245.98685 255.58176C245.98685 257.23862 244.64369 258.58176 242.98685 258.58176C241.32999 258.58176 239.98685 257.23862 239.98685 255.58176C239.98685 253.9249 241.32999 252.58176 242.98685 252.58176C244.64369 252.58176 245.98685 253.9249 245.98685 255.58176Z" fill-rule="nonzero"/><path fill="#000000" fill-opacity="0.0" clip-path="url(#id_0)" d="M274.1921 243.05142C274.1921 244.70828 272.84897 246.05142 271.1921 246.05142C269.53525 246.05142 268.1921 244.70828 268.1921 243.05142C268.1921 241.39458 269.53525 240.05142 271.1921 240.05142C272.84897 240.05142 274.1921 241.39458 274.1921 243.05142Z" fill-rule="nonzero"/><path fill="#000000" fill-opacity="0.0" clip-path="url(#id_0)" d="M302.39737 229.06831C302.39737 230.72516 301.05423 232.06831 299.39737 232.06831C297.7405 232.06831 296.39737 230.72516 296.39737 229.06831C296.39737 227.41145 297.7405 226.06831 299.39737 226.06831C301.05423 226.06831 302.39737 227.41145 302.39737 229.06831Z" fill-rule="nonzero"/><path fill="#000000" fill-opacity="0.0" clip-path="url(#id_0)" d="M330.60263 224.52834C330.60263 226.18518 329.2595 227.52834 327.60263 227.52834C325.94577 227.52834 324.60263 226.18518 324.60263 224.52834C324.60263 222.87148 325.94577 221.52834 327.60263 221.52834C329.2595 221.52834 330.60263 222.87148 330.60263 224.52834Z" fill-rule="nonzero"/><path fill="#000000" fill-opacity="0.0" clip-path="url(#id_0)" d="M358.8079 227.3561C358.8079 229.01294 357.46475 230.3561 355.8079 230.3561C354.15103 230.3561 352.8079 229.01294 352.8079 227.3561C352.8079 225.69923 354.15103 224.3561 355.8079 224.3561C357.46475 224.3561 358.8079 225.69923 358.8079 227.3561Z" fill-rule="nonzero"/><path fill="#000000" fill-opacity="0.0" clip-path="url(#id_0)" d="M387.01315 218.35397C387.01315 220.01082 385.67 221.35397 384.01315 221.35397C382.3563 221.35397 381.01315 220.01082 381.01315 218.35397C381.01315 216.69711 382.3563 215.35397 384.01315 215.35397C385.67 215.35397 387.01315 216.69711 387.01315 218.35397Z" fill-rule="nonzero"/><path fill="#000000" fill-opacity="0.0" clip-path="url(#id_0)" d="M415.2184 207.25049C415.2184 208.90735 413.87527 210.25049 412.2184 210.25049C410.56155 210.25049 409.2184 208.90735 409.2184 207.25049C409.2184 205.59363 410.56155 204.25049 412.2184 204.25049C413.87527 204.25049 415.2184 205.59363 415.2184 207.25049Z" fill-rule="nonzero"/><path fill="#000000" fill-opacity="0.0" clip-path="url(#id_0)" d="M443.42368 193.39708C443.42368 195.05394 442.08054 196.39708 440.42368 196.39708C438.7668 196.39708 437.42368 195.05394 437.42368 193.39708C437.42368 191.74023 438.7668 190.39708 440.42368 190.39708C442.08054 190.39708 443.42368 191.74023 443.42368 193.39708Z" fill-rule="nonzero"/><path fill="#000000" fill-opacity="0.0" clip-path="url(#id_0)" d="M471.62894 190.41367C471.62894 192.07053 470.2858 193.41367 468.62894 193.41367C466.9721 193.41367 465.62894 192.07053 465.62894 190.41367C465.62894 188.75682 466.9721 187.41367 468.62894 187.41367C470.2858 187.41367 471.62894 188.75682 471.62894 190.41367Z" fill-rule="nonzero"/><path fill="#000000" fill-opacity="0.0" clip-path="url(#id_0)" d="M499.8342 172.27972C499.8342 173.93657 498.49106 175.27972 496.8342 175.27972C495.17737 175.27972 493.8342 173.93657 493.8342 172.27972C493.8342 170.62286 495.17737 169.27972 496.8342 169.27972C498.49106 169.27972 499.8342 170.62286 499.8342 172.27972Z" fill-rule="nonzero"/><path fill="#000000" fill-opacity="0.0" clip-path="url(#id_0)" d="M528.0395 172.53914C528.0395 174.196 526.69635 175.53914 525.0395 175.53914C523.3826 175.53914 522.0395 174.196 522.0395 172.53914C522.0395 170.8823 523.3826 169.53914 525.0395 169.53914C526.69635 169.53914 528.0395 170.8823 528.0395 172.53914Z" fill-rule="nonzero"/><path fill="#000000" fill-opacity="0.0" clip-path="url(#id_0)" d="M556.24475 164.05588C556.24475 165.71274 554.9016 167.05588 553.24475 167.05588C551.5879 167.05588 550.24475 165.71274 550.24475 164.05588C550.24475 162.39903 551.5879 161.05588 553.24475 161.05588C554.9016 161.05588 556.24475 162.39903 556.24475 164.05588Z" fill-rule="nonzero"/><path fill="#000000" fill-opacity="0.0" clip-path="url(#id_0)" d="M584.45 147.81575C584.45 149.4726 583.1069 150.81575 581.45 150.81575C579.79315 150.81575 578.45 149.4726 578.45 147.81575C578.45 146.15889 579.79315 144.81575 581.45 144.81575C583.1069 144.81575 584.45 146.15889 584.45 147.81575Z" fill-rule="nonzero"/><path fill="#000000" fill-opacity="0.0" clip-path="url(#id_0)" d="M48.55 322.35828C48.55 324.01514 47.206856 325.35828 45.55 325.35828C43.893147 325.35828 42.55 324.01514 42.55 322.35828C42.55 320.70145 43.893147 319.35828 45.55 319.35828C47.206856 319.35828 48.55 320.70145 48.55 322.35828Z" fill-rule="nonzero"/><path fill="#000000" fill-opacity="0.0" clip-path="url(#id_0)" d="M76.755264 309.46475C76.755264 311.1216 75.41212 312.46475 73.755264 312.46475C72.09841 312.46475 70.755264 311.1216 70.755264 309.46475C70.755264 307.8079 72.09841 306.46475 73.755264 306.46475C75.41212 306.46475 76.755264 307.8079 76.755264 309.46475Z" fill-rule="nonzero"/><path fill="#000000" fill-opacity="0.0" clip-path="url(#id_0)" d="M104.960526 307.20773C104.960526 308.8646 103.61738 310.20773 101.960526 310.20773C100.30367 310.20773 98.960526 308.8646 98.960526 307.20773C98.960526 305.5509 100.30367 304.20773 101.960526 304.20773C103.61738 304.20773 104.960526 305.5509 104.960526 307.20773Z" fill-rule="nonzero"/><path fill="#000000" fill-opacity="0.0" clip-path="url(#id_0)" d="M133.16579 298.51694C133.16579 300.1738 131.82265 301.51694 130.16579 301.51694C128.50894 301.51694 127.16579 300.1738 127.16579 298.51694C127.16579 296.86008 128.50894 295.51694 130.16579 295.51694C131.82265 295.51694 133.16579 296.86008 133.16579 298.51694Z" fill-rule="nonzero"/><path fill="#000000" fill-opacity="0.0" clip-path="url(#id_0)" d="M161.37105 290.44876C161.37105 292.10562 160.02791 293.44876 158.37105 293.44876C156.7142 293.44876 155.37105 292.10562 155.37105 290.44876C155.37105 288.7919 156.7142 287.44876 158.37105 287.44876C160.02791 287.44876 161.37105 288.7919 161.37105 290.44876Z" fill-rule="nonzero"/><path fill="#000000" fill-opacity="0.0" clip-path="url(#id_0)" d="M189.57631 281.34286C189.57631 282.99973 188.23317 284.34286 186.57631 284.34286C184.91946 284.34286 183.57631 282.99973 183.57631 281.34286C183.57631 279.686 184.91946 278.34286 186.57631 278.34286C188.23317 278.34286 189.57631 279.686 189.57631 281.34286Z" fill-rule="nonzero"/><path fill="#000000" fill-opacity="0.0" clip-path="url(#id_0)" d="M217.78159 272.62613C217.78159 274.28296 216.43843 275.62613 214.78159 275.62613C213.12473 275.62613 211.78159 274.28296 211.78159 272.62613C211.78159 270.96927 213.12473 269.62613 214.78159 269.62613C216.43843 269.62613 217.78159 270.96927 217.78159 272.62613Z" fill-rule="nonzero"/><path fill="#000000" fill-opacity="0.0" clip-path="url(#id_0)" d="M245.98685 262.43063C245.98685 264.0875 244.64369 265.43063 242.98685 265.43063C241.32999 265.43063 239.98685 264.0875 239.98685 262.43063C239.98685 260.77377 241.32999 259.43063 242.98685 259.43063C244.64369 259.43063 245.98685 260.77377 245.98685 262.43063Z" fill-rule="nonzero"/><path fill="#000000" fill-opacity="0.0" clip-path="url(#id_0)" d="M274.1921 250.03001C274.1921 251.68687 272.84897 253.03001 271.1921 253.03001C269.53525 253.03001 268.1921 251.68687 268.1921 250.03001C268.1921 248.37317 269.53525 247.03001 271.1921 247.03001C272.84897 247.03001 274.1921 248.37317 274.1921 250.03001Z" fill-rule="nonzero"/><path fill="#000000" fill-opacity="0.0" clip-path="url(#id_0)" d="M302.39737 239.93831C302.39737 241.59515 301.05423 242.93831 299.39737 242.93831C297.7405 242.93831 296.39737 241.59515 296.39737 239.93831C296.39737 238.28145 297.7405 236.93831 299.39737 236.93831C301.05423 236.93831 302.39737 238.28145 302.39737 239.93831Z" fill-rule="nonzero"/><path fill="#000000" fill-opacity="0.0" clip-path="url(#id_0)" d="M330.60263 231.09184C330.60263 232.74869 329.2595 234.09184 327.60263 234.09184C325.94577 234.09184 324.60263 232.74869 324.60263 231.09184C324.60263 229.43498 325.94577 228.09184 327.60263 228.09184C329.2595 228.09184 330.60263 229.43498 330.60263 231.09184Z" fill-rule="nonzero"/><path fill="#000000" fill-opacity="0.0" clip-path="url(#id_0)" d="M358.8079 219.57327C358.8079 221.23013 357.46475 222.57327 355.8079 222.57327C354.15103 222.57327 352.8079 221.23013 352.8079 219.57327C352.8079 217.91643 354.15103 216.57327 355.8079 216.57327C357.46475 216.57327 358.8079 217.91643 358.8079 219.57327Z" fill-rule="nonzero"/><path fill="#000000" fill-opacity="0.0" clip-path="url(#id_0)" d="M387.01315 208.6514C387.01315 210.30824 385.67 211.6514 384.01315 211.6514C382.3563 211.6514 381.01315 210.30824 381.01315 208.6514C381.01315 206.99454 382.3563 205.6514 384.01315 205.6514C385.67 205.6514 387.01315 206.99454 387.01315 208.6514Z" fill-rule="nonzero"/><path fill="#000000" fill-opacity="0.0" clip-path="url(#id_0)" d="M415.2184 197.34038C415.2184 198.99722 413.87527 200.34038 412.2184 200.34038C410.56155 200.34038 409.2184 198.99722 409.2184 197.34038C409.2184 195.68352 410.56155 194.34038 412.2184 194.34038C413.87527 194.34038 415.2184 195.68352 415.2184 197.34038Z" fill-rule="nonzero"/><path fill="#000000" fill-opacity="0.0" clip-path="url(#id_0)" d="M443.42368 187.66374C443.42368 189.3206 442.08054 190.66374 440.42368 190.66374C438.7668 190.66374 437.42368 189.3206 437.42368 187.66374C437.42368 186.0069 438.7668 184.66374 440.42368 184.66374C442.08054 184.66374 443.42368 186.0069 443.42368 187.66374Z" fill-rule="nonzero"/><path fill="#000000" fill-opacity="0.0" clip-path="url(#id_0)" d="M471.62894 178.94699C471.62894 180.60385 470.2858 181.94699 468.62894 181.94699C466.9721 181.94699 465.62894 180.60385 465.62894 178.94699C465.62894 177.29015 466.9721 175.94699 468.62894 175.94699C470.2858 175.94699 471.62894 177.29015 471.62894 178.94699Z" fill-rule="nonzero"/><path fill="#000000" fill-opacity="0.0" clip-path="url(#id_0)" d="M499.8342 166.0794C499.8342 167.73627 498.49106 169.0794 496.8342 169.0794C495.17737 169.0794 493.8342 167.73627 493.8342 166.0794C493.8342 164.42256 495.17737 163.0794 496.8342 163.0794C498.49106 163.0794 499.8342 164.42256 499.8342 166.0794Z" fill-rule="nonzero"/><path fill="#000000" fill-opacity="0.0" clip-path="url(#id_0)" d="M528.0395 171.08635C528.0395 172.74321 526.69635 174.08635 525.0395 174.08635C523.3826 174.08635 522.0395 172.74321 522.0395 171.08635C522.0395 169.4295 523.3826 168.08635 525.0395 168.08635C526.69635 168.08635 528.0395 169.4295 528.0395 171.08635Z" fill-rule="nonzero"/><path fill="#000000" fill-opacity="0.0" clip-path="url(#id_0)" d="M556.24475 159.64561C556.24475 161.30247 554.9016 162.64561 553.24475 162.64561C551.5879 162.64561 550.24475 161.30247 550.24475 159.64561C550.24475 157.98877 551.5879 156.64561 553.24475 156.64561C554.9016 156.64561 556.24475 157.98877 556.24475 159.64561Z" fill-rule="nonzero"/><path fill="#000000" fill-opacity="0.0" clip-path="url(#id_0)" d="M584.45 142.05646C584.45 143.71332 583.1069 145.05646 581.45 145.05646C579.79315 145.05646 578.45 143.71332 578.45 142.05646C578.45 140.39961 579.79315 139.05646 581.45 139.05646C583.1069 139.05646 584.45 140.39961 584.45 142.05646Z" fill-rule="nonzero"/><path fill="#000000" d="M33.05 332.21564Q33.05 330.6844 33.3625 329.7625Q33.675 328.825 34.284374 328.325Q34.909374 327.825 35.846874 327.825Q36.534374 327.825 37.05 328.10626Q37.58125 328.3875 37.925 328.91876Q38.26875 329.4344 38.45625 330.1844Q38.64375 330.9344 38.64375 332.21564Q38.64375 333.73126 38.33125 334.65314Q38.034374 335.575 37.409374 336.09064Q36.8 336.59064 35.846874 336.59064Q34.6125 336.59064 33.89375 335.7Q33.05 334.6375 33.05 332.21564ZM34.128124 332.21564Q34.128124 334.325 34.628124 335.02814Q35.128124 335.73126 35.846874 335.73126Q36.58125 335.73126 37.065624 335.02814Q37.565624 334.325 37.565624 332.21564Q37.565624 330.09064 37.065624 329.40314Q36.58125 328.7 35.83125 328.7Q35.1125 328.7 34.675 329.3094Q34.128124 330.09064 34.128124 332.21564Z" fill-rule="nonzero"/><path fill="#000000" d="M31.596874 274.3927L31.596874 275.40833L25.909374 275.40833Q25.909374 275.03333 26.034374 274.67395Q26.253124 274.09583 26.721874 273.53333Q27.20625 272.97083 28.1125 272.23645Q29.51875 271.0802 30.003124 270.40833Q30.503124 269.73645 30.503124 269.1427Q30.503124 268.5177 30.05 268.09583Q29.596874 267.65833 28.878124 267.65833Q28.1125 267.65833 27.659374 268.11145Q27.20625 268.56458 27.190624 269.37708L26.1125 269.2677Q26.221874 268.04895 26.940624 267.42395Q27.675 266.78333 28.909374 266.78333Q30.14375 266.78333 30.8625 267.47083Q31.58125 268.15833 31.58125 269.17395Q31.58125 269.68958 31.3625 270.18958Q31.159374 270.67395 30.659374 271.23645Q30.175 271.78333 29.05 272.73645Q28.096874 273.53333 27.815624 273.8302Q27.55 274.11145 27.378124 274.3927L31.596874 274.3927ZM33.05 271.17395Q33.05 269.6427 33.3625 268.72083Q33.675 267.78333 34.284374 267.28333Q34.909374 266.78333 35.846874 266.78333Q36.534374 266.78333 37.05 267.06458Q37.58125 267.34583 37.925 267.87708Q38.26875 268.3927 38.45625 269.1427Q38.64375 269.8927 38.64375 271.17395Q38.64375 272.68958 38.33125 273.61145Q38.034374 274.53333 37.409374 275.04895Q36.8 275.54895 35.846874 275.54895Q34.6125 275.54895 33.89375 274.65833Q33.05 273.59583 33.05 271.17395ZM34.128124 271.17395Q34.128124 273.28333 34.628124 273.98645Q35.128124 274.68958 35.846874 274.68958Q36.58125 274.68958 37.065624 273.98645Q37.565624 273.28333 37.565624 271.17395Q37.565624 269.04895 37.065624 268.36145Q36.58125 267.65833 35.83125 267.65833Q35.1125 267.65833 34.675 268.2677Q34.128124 269.04895 34.128124 271.17395Z" fill-rule="nonzero"/><path fill="#000000" d="M29.425 214.36667L29.425 212.30417L25.70625 212.30417L25.70625 211.33542L29.628124 205.77292L30.4875 205.77292L30.4875 211.33542L31.64375 211.33542L31.64375 212.30417L30.4875 212.30417L30.4875 214.36667L29.425 214.36667ZM29.425 211.33542L29.425 207.47604L26.7375 211.33542L29.425 211.33542ZM33.05 210.1323Q33.05 208.60104 33.3625 207.67917Q33.675 206.74167 34.284374 206.24167Q34.909374 205.74167 35.846874 205.74167Q36.534374 205.74167 37.05 206.02292Q37.58125 206.30417 37.925 206.83542Q38.26875 207.35104 38.45625 208.10104Q38.64375 208.85104 38.64375 210.1323Q38.64375 211.64792 38.33125 212.5698Q38.034374 213.49167 37.409374 214.0073Q36.8 214.5073 35.846874 214.5073Q34.6125 214.5073 33.89375 213.61667Q33.05 212.55417 33.05 210.1323ZM34.128124 210.1323Q34.128124 212.24167 34.628124 212.9448Q35.128124 213.64792 35.846874 213.64792Q36.58125 213.64792 37.065624 212.9448Q37.565624 212.24167 37.565624 210.1323Q37.565624 208.0073 37.065624 207.3198Q36.58125 206.61667 35.83125 206.61667Q35.1125 206.61667 34.675 207.22604Q34.128124 208.0073 34.128124 210.1323Z" fill-rule="nonzero"/><path fill="#000000" d="M31.51875 146.84062L30.471874 146.91875Q30.33125 146.29375 30.08125 146.0125Q29.64375 145.55937 29.01875 145.55937Q28.51875 145.55937 28.128124 145.84062Q27.64375 146.21562 27.346874 146.91875Q27.065624 147.60625 27.05 148.8875Q27.425 148.30937 27.971874 148.02812Q28.534374 147.74687 29.14375 147.74687Q30.190624 147.74687 30.925 148.52812Q31.675 149.30937 31.675 150.52812Q31.675 151.34062 31.315624 152.04375Q30.971874 152.73125 30.3625 153.10625Q29.753124 153.46562 28.9875 153.46562Q27.659374 153.46562 26.83125 152.49687Q26.003124 151.52812 26.003124 149.30937Q26.003124 146.80937 26.925 145.68437Q27.721874 144.7 29.08125 144.7Q30.096874 144.7 30.7375 145.27812Q31.39375 145.84062 31.51875 146.84062ZM27.221874 150.54375Q27.221874 151.09062 27.440624 151.59062Q27.675 152.075 28.08125 152.34062Q28.503124 152.60625 28.971874 152.60625Q29.628124 152.60625 30.1125 152.075Q30.596874 151.52812 30.596874 150.60625Q30.596874 149.71562 30.1125 149.2Q29.64375 148.68437 28.925 148.68437Q28.20625 148.68437 27.70625 149.2Q27.221874 149.71562 27.221874 150.54375ZM33.05 149.09062Q33.05 147.55937 33.3625 146.6375Q33.675 145.7 34.284374 145.2Q34.909374 144.7 35.846874 144.7Q36.534374 144.7 37.05 144.98125Q37.58125 145.2625 37.925 145.79375Q38.26875 146.30937 38.45625 147.05937Q38.64375 147.80937 38.64375 149.09062Q38.64375 150.60625 38.33125 151.52812Q38.034374 152.45 37.409374 152.96562Q36.8 153.46562 35.846874 153.46562Q34.6125 153.46562 33.89375 152.575Q33.05 151.5125 33.05 149.09062ZM34.128124 149.09062Q34.128124 151.2 34.628124 151.90312Q35.128124 152.60625 35.846874 152.60625Q36.58125 152.60625 37.065624 151.90312Q37.565624 151.2 37.565624 149.09062Q37.565624 146.96562 37.065624 146.27812Q36.58125 145.575 35.83125 145.575Q35.1125 145.575 34.675 146.18437Q34.128124 146.96562 34.128124 149.09062Z" fill-rule="nonzero"/><path fill="#000000" d="M27.675 87.62708Q27.01875 87.37708 26.690624 86.93958Q26.378124 86.48646 26.378124 85.87708Q26.378124 84.93958 27.05 84.29896Q27.7375 83.65833 28.846874 83.65833Q29.971874 83.65833 30.659374 84.31458Q31.346874 84.97083 31.346874 85.90833Q31.346874 86.50208 31.034374 86.93958Q30.721874 87.37708 30.08125 87.62708Q30.878124 87.87708 31.284374 88.45521Q31.690624 89.03333 31.690624 89.83021Q31.690624 90.92396 30.909374 91.67396Q30.14375 92.42396 28.8625 92.42396Q27.596874 92.42396 26.815624 91.67396Q26.034374 90.92396 26.034374 89.79896Q26.034374 88.95521 26.45625 88.39271Q26.89375 87.83021 27.675 87.62708ZM27.45625 85.83021Q27.45625 86.43958 27.846874 86.83021Q28.253124 87.22083 28.878124 87.22083Q29.4875 87.22083 29.878124 86.84583Q30.26875 86.45521 30.26875 85.89271Q30.26875 85.31458 29.8625 84.92396Q29.45625 84.51771 28.8625 84.51771Q28.253124 84.51771 27.846874 84.90833Q27.45625 85.29896 27.45625 85.83021ZM27.128124 89.79896Q27.128124 90.25208 27.33125 90.67396Q27.55 91.09583 27.971874 91.33021Q28.39375 91.56458 28.878124 91.56458Q29.628124 91.56458 30.1125 91.08021Q30.6125 90.59583 30.6125 89.84583Q30.6125 89.08021 30.1125 88.58021Q29.6125 88.08021 28.846874 88.08021Q28.096874 88.08021 27.6125 88.58021Q27.128124 89.06458 27.128124 89.79896ZM33.05 88.04896Q33.05 86.51771 33.3625 85.59583Q33.675 84.65833 34.284374 84.15833Q34.909374 83.65833 35.846874 83.65833Q36.534374 83.65833 37.05 83.93958Q37.58125 84.22083 37.925 84.75208Q38.26875 85.26771 38.45625 86.01771Q38.64375 86.76771 38.64375 88.04896Q38.64375 89.56458 38.33125 90.48646Q38.034374 91.40833 37.409374 91.92396Q36.8 92.42396 35.846874 92.42396Q34.6125 92.42396 33.89375 91.53333Q33.05 90.47083 33.05 88.04896ZM34.128124 88.04896Q34.128124 90.15833 34.628124 90.86146Q35.128124 91.56458 35.846874 91.56458Q36.58125 91.56458 37.065624 90.86146Q37.565624 90.15833 37.565624 88.04896Q37.565624 85.92396 37.065624 85.23646Q36.58125 84.53333 35.83125 84.53333Q35.1125 84.53333 34.675 85.14271Q34.128124 85.92396 34.128124 88.04896Z" fill-rule="nonzero"/><path fill="#000000" d="M155.37105 347.2L156.48042 347.10626Q156.60542 347.91876 157.04292 348.325Q157.49605 348.73126 158.13667 348.73126Q158.88667 348.73126 159.41792 348.15314Q159.94917 347.575 159.94917 346.6375Q159.94917 345.73126 159.43355 345.21564Q158.93355 344.6844 158.10542 344.6844Q157.60542 344.6844 157.18355 344.91876Q156.7773 345.15314 156.54292 345.5125L155.55855 345.3875L156.38667 340.98126L160.66792 340.98126L160.66792 341.98126L157.23042 341.98126L156.7773 344.29376Q157.54292 343.7469 158.38667 343.7469Q159.51167 343.7469 160.2773 344.52814Q161.05855 345.3094 161.05855 346.54376Q161.05855 347.7 160.38667 348.5594Q159.55855 349.59064 158.13667 349.59064Q156.9648 349.59064 156.2148 348.9344Q155.48042 348.27814 155.37105 347.2Z" fill-rule="nonzero"/><path fill="#000000" d="M296.86612 349.45L295.81924 349.45L295.81924 342.73126Q295.42862 343.09064 294.80362 343.46564Q294.19424 343.825 293.70987 343.9969L293.70987 342.98126Q294.58487 342.5594 295.24112 341.98126Q295.913 341.3875 296.19424 340.825L296.86612 340.825L296.86612 349.45ZM299.89737 345.21564Q299.89737 343.6844 300.20987 342.7625Q300.52237 341.825 301.13174 341.325Q301.75674 340.825 302.69424 340.825Q303.38174 340.825 303.89737 341.10626Q304.42862 341.3875 304.77237 341.91876Q305.11612 342.4344 305.30362 343.1844Q305.49112 343.9344 305.49112 345.21564Q305.49112 346.73126 305.17862 347.65314Q304.88174 348.575 304.25674 349.09064Q303.64737 349.59064 302.69424 349.59064Q301.45987 349.59064 300.74112 348.7Q299.89737 347.6375 299.89737 345.21564ZM300.9755 345.21564Q300.9755 347.325 301.4755 348.02814Q301.9755 348.73126 302.69424 348.73126Q303.42862 348.73126 303.913 348.02814Q304.413 347.325 304.413 345.21564Q304.413 343.09064 303.913 342.40314Q303.42862 341.7 302.67862 341.7Q301.95987 341.7 301.52237 342.3094Q300.9755 343.09064 300.9755 345.21564Z" fill-rule="nonzero"/><path fill="#000000" d="M437.89243 349.45L436.84555 349.45L436.84555 342.73126Q436.45493 343.09064 435.82993 343.46564Q435.22055 343.825 434.73618 343.9969L434.73618 342.98126Q435.61118 342.5594 436.26743 341.98126Q436.9393 341.3875 437.22055 340.825L437.89243 340.825L437.89243 349.45ZM440.92368 347.2L442.03305 347.10626Q442.15805 347.91876 442.59555 348.325Q443.04868 348.73126 443.6893 348.73126Q444.4393 348.73126 444.97055 348.15314Q445.5018 347.575 445.5018 346.6375Q445.5018 345.73126 444.98618 345.21564Q444.48618 344.6844 443.65805 344.6844Q443.15805 344.6844 442.73618 344.91876Q442.32993 345.15314 442.09555 345.5125L441.11118 345.3875L441.9393 340.98126L446.22055 340.98126L446.22055 341.98126L442.78305 341.98126L442.32993 344.29376Q443.09555 343.7469 443.9393 343.7469Q445.0643 343.7469 445.82993 344.52814Q446.61118 345.3094 446.61118 346.54376Q446.61118 347.7 445.9393 348.5594Q445.11118 349.59064 443.6893 349.59064Q442.51743 349.59064 441.76743 348.9344Q441.03305 348.27814 440.92368 347.2Z" fill-rule="nonzero"/><path fill="#000000" d="M580.4969 348.4344L580.4969 349.45L574.8094 349.45Q574.8094 349.075 574.9344 348.71564Q575.15314 348.1375 575.6219 347.575Q576.10626 347.0125 577.0125 346.27814Q578.41876 345.1219 578.90314 344.45Q579.40314 343.77814 579.40314 343.1844Q579.40314 342.5594 578.95 342.1375Q578.4969 341.7 577.77814 341.7Q577.0125 341.7 576.5594 342.15314Q576.10626 342.60626 576.09064 343.41876L575.0125 343.3094Q575.1219 342.09064 575.84064 341.46564Q576.575 340.825 577.8094 340.825Q579.04376 340.825 579.7625 341.5125Q580.48126 342.2 580.48126 343.21564Q580.48126 343.73126 580.2625 344.23126Q580.0594 344.71564 579.5594 345.27814Q579.075 345.825 577.95 346.77814Q576.9969 347.575 576.71564 347.8719Q576.45 348.15314 576.27814 348.4344L580.4969 348.4344ZM581.95 345.21564Q581.95 343.6844 582.2625 342.7625Q582.575 341.825 583.1844 341.325Q583.8094 340.825 584.7469 340.825Q585.4344 340.825 585.95 341.10626Q586.48126 341.3875 586.825 341.91876Q587.16876 342.4344 587.35626 343.1844Q587.54376 343.9344 587.54376 345.21564Q587.54376 346.73126 587.23126 347.65314Q586.9344 348.575 586.3094 349.09064Q585.7 349.59064 584.7469 349.59064Q583.5125 349.59064 582.79376 348.7Q581.95 347.6375 581.95 345.21564ZM583.02814 345.21564Q583.02814 347.325 583.52814 348.02814Q584.02814 348.73126 584.7469 348.73126Q585.48126 348.73126 585.96564 348.02814Q586.46564 347.325 586.46564 345.21564Q586.46564 343.09064 585.96564 342.40314Q585.48126 341.7 584.73126 341.7Q584.0125 341.7 583.575 342.3094Q583.02814 343.09064 583.02814 345.21564Z" fill-rule="nonzero"/><path stroke="#4285f4" stroke-width="4.0" stroke-linecap="butt" d="M227.0 61.916668L239.0 61.916668" fill-rule="nonzero"/><path fill="#1a1a1a" d="M247.54688 63.15104L248.60938 63.05729Q248.6875 63.71354 248.96875 64.11979Q249.25 64.52604 249.82812 64.791664Q250.42188 65.041664 251.15625 65.041664Q251.79688 65.041664 252.29688 64.854164Q252.79688 64.65104 253.03125 64.322914Q253.28125 63.979164 253.28125 63.58854Q253.28125 63.18229 253.04688 62.885414Q252.8125 62.572914 252.28125 62.36979Q251.92188 62.229164 250.73438 61.947914Q249.5625 61.666664 249.09375 61.416664Q248.46875 61.08854 248.17188 60.61979Q247.875 60.135414 247.875 59.541664Q247.875 58.90104 248.23438 58.33854Q248.60938 57.760414 249.3125 57.479164Q250.03125 57.18229 250.89062 57.18229Q251.84375 57.18229 252.57812 57.49479Q253.3125 57.791664 253.70312 58.40104Q254.09375 58.99479 254.125 59.74479L253.03125 59.822914Q252.9375 59.010414 252.42188 58.604164Q251.92188 58.18229 250.9375 58.18229Q249.90625 58.18229 249.4375 58.55729Q248.96875 58.93229 248.96875 59.46354Q248.96875 59.93229 249.29688 60.229164Q249.625 60.52604 251.0 60.83854Q252.39062 61.15104 252.90625 61.385414Q253.65625 61.74479 254.01562 62.27604Q254.375 62.791664 254.375 63.49479Q254.375 64.18229 253.98438 64.791664Q253.59375 65.385414 252.85938 65.729164Q252.125 66.05729 251.20312 66.05729Q250.03125 66.05729 249.23438 65.729164Q248.45312 65.385414 248.0 64.697914Q247.5625 64.010414 247.54688 63.15104ZM262.4375 64.99479Q263.23438 65.541664 263.89062 65.791664L263.5625 66.58854Q262.64062 66.24479 261.71875 65.52604Q260.76562 66.05729 259.60938 66.05729Q258.4375 66.05729 257.48438 65.49479Q256.54688 64.93229 256.03125 63.916664Q255.51562 62.90104 255.51562 61.61979Q255.51562 60.354164 256.03125 59.30729Q256.54688 58.260414 257.5 57.71354Q258.45312 57.166664 259.625 57.166664Q260.8125 57.166664 261.76562 57.74479Q262.73438 58.30729 263.23438 59.322914Q263.73438 60.33854 263.73438 61.61979Q263.73438 62.68229 263.40625 63.52604Q263.09375 64.36979 262.4375 64.99479ZM259.9375 63.541664Q260.92188 63.822914 261.5625 64.36979Q262.5625 63.447914 262.5625 61.61979Q262.5625 60.572914 262.20312 59.791664Q261.84375 59.010414 261.15625 58.58854Q260.48438 58.15104 259.64062 58.15104Q258.35938 58.15104 257.51562 59.02604Q256.6875 59.885414 256.6875 61.61979Q256.6875 63.291664 257.51562 64.197914Q258.34375 65.08854 259.64062 65.08854Q260.25 65.08854 260.78125 64.854164Q260.25 64.510414 259.65625 64.36979L259.9375 63.541664ZM264.375 63.33854L264.375 62.27604L267.625 62.27604L267.625 63.33854L264.375 63.33854ZM272.46875 65.916664L271.42188 65.916664L271.42188 59.197914Q271.03125 59.55729 270.40625 59.93229Q269.79688 60.291664 269.3125 60.46354L269.3125 59.447914Q270.1875 59.02604 270.84375 58.447914Q271.51562 57.854164 271.79688 57.291664L272.46875 57.291664L272.46875 65.916664ZM275.92188 65.916664L275.92188 57.322914L279.17188 57.322914Q280.01562 57.322914 280.46875 57.40104Q281.10938 57.510414 281.53125 57.80729Q281.96875 58.104164 282.21875 58.635414Q282.48438 59.166664 282.48438 59.80729Q282.48438 60.90104 281.78125 61.666664Q281.09375 62.416664 279.26562 62.416664L277.0625 62.416664L277.0625 65.916664L275.92188 65.916664ZM277.0625 61.416664L279.28125 61.416664Q280.39062 61.416664 280.84375 61.010414Q281.3125 60.58854 281.3125 59.83854Q281.3125 59.30729 281.03125 58.93229Q280.76562 58.541664 280.32812 58.416664Q280.03125 58.33854 279.26562 58.33854L277.0625 58.33854L277.0625 61.416664ZM283.9375 65.916664L283.9375 57.322914L287.75 57.322914Q288.90625 57.322914 289.5 57.55729Q290.09375 57.791664 290.45312 58.385414Q290.8125 58.96354 290.8125 59.666664Q290.8125 60.58854 290.21875 61.21354Q289.625 61.83854 288.39062 62.010414Q288.84375 62.229164 289.07812 62.43229Q289.57812 62.885414 290.01562 63.572914L291.51562 65.916664L290.07812 65.916664L288.95312 64.135414Q288.45312 63.354164 288.125 62.947914Q287.8125 62.541664 287.54688 62.385414Q287.29688 62.21354 287.03125 62.135414Q286.84375 62.104164 286.40625 62.104164L285.07812 62.104164L285.07812 65.916664L283.9375 65.916664ZM285.07812 61.11979L287.53125 61.11979Q288.29688 61.11979 288.73438 60.96354Q289.1875 60.791664 289.40625 60.447914Q289.64062 60.08854 289.64062 59.666664Q289.64062 59.05729 289.1875 58.666664Q288.75 58.27604 287.79688 58.27604L285.07812 58.27604L285.07812 61.11979Z" fill-rule="nonzero"/><path stroke="#ea4335" stroke-width="4.0" stroke-linecap="butt" d="M308.0 61.916668L320.0 61.916668" fill-rule="nonzero"/><path fill="#1a1a1a" d="M328.92188 65.916664L328.92188 57.322914L332.17188 57.322914Q333.01562 57.322914 333.46875 57.40104Q334.10938 57.510414 334.53125 57.80729Q334.96875 58.104164 335.21875 58.635414Q335.48438 59.166664 335.48438 59.80729Q335.48438 60.90104 334.78125 61.666664Q334.09375 62.416664 332.26562 62.416664L330.0625 62.416664L330.0625 65.916664L328.92188 65.916664ZM330.0625 61.416664L332.28125 61.416664Q333.39062 61.416664 333.84375 61.010414Q334.3125 60.58854 334.3125 59.83854Q334.3125 59.30729 334.03125 58.93229Q333.76562 58.541664 333.32812 58.416664Q333.03125 58.33854 332.26562 58.33854L330.0625 58.33854L330.0625 61.416664ZM336.9375 65.916664L336.9375 57.322914L340.75 57.322914Q341.90625 57.322914 342.5 57.55729Q343.09375 57.791664 343.45312 58.385414Q343.8125 58.96354 343.8125 59.666664Q343.8125 60.58854 343.21875 61.21354Q342.625 61.83854 341.39062 62.010414Q341.84375 62.229164 342.07812 62.43229Q342.57812 62.885414 343.01562 63.572914L344.51562 65.916664L343.07812 65.916664L341.95312 64.135414Q341.45312 63.354164 341.125 62.947914Q340.8125 62.541664 340.54688 62.385414Q340.29688 62.21354 340.03125 62.135414Q339.84375 62.104164 339.40625 62.104164L338.07812 62.104164L338.07812 65.916664L336.9375 65.916664ZM338.07812 61.11979L340.53125 61.11979Q341.29688 61.11979 341.73438 60.96354Q342.1875 60.791664 342.40625 60.447914Q342.64062 60.08854 342.64062 59.666664Q342.64062 59.05729 342.1875 58.666664Q341.75 58.27604 340.79688 58.27604L338.07812 58.27604L338.07812 61.11979ZM345.375 63.33854L345.375 62.27604L348.625 62.27604L348.625 63.33854L345.375 63.33854ZM353.46875 65.916664L352.42188 65.916664L352.42188 59.197914Q352.03125 59.55729 351.40625 59.93229Q350.79688 60.291664 350.3125 60.46354L350.3125 59.447914Q351.1875 59.02604 351.84375 58.447914Q352.51562 57.854164 352.79688 57.291664L353.46875 57.291664L353.46875 65.916664ZM356.92188 65.916664L356.92188 57.322914L360.17188 57.322914Q361.01562 57.322914 361.46875 57.40104Q362.10938 57.510414 362.53125 57.80729Q362.96875 58.104164 363.21875 58.635414Q363.48438 59.166664 363.48438 59.80729Q363.48438 60.90104 362.78125 61.666664Q362.09375 62.416664 360.26562 62.416664L358.0625 62.416664L358.0625 65.916664L356.92188 65.916664ZM358.0625 61.416664L360.28125 61.416664Q361.39062 61.416664 361.84375 61.010414Q362.3125 60.58854 362.3125 59.83854Q362.3125 59.30729 362.03125 58.93229Q361.76562 58.541664 361.32812 58.416664Q361.03125 58.33854 360.26562 58.33854L358.0625 58.33854L358.0625 61.416664ZM364.9375 65.916664L364.9375 57.322914L368.75 57.322914Q369.90625 57.322914 370.5 57.55729Q371.09375 57.791664 371.45312 58.385414Q371.8125 58.96354 371.8125 59.666664Q371.8125 60.58854 371.21875 61.21354Q370.625 61.83854 369.39062 62.010414Q369.84375 62.229164 370.07812 62.43229Q370.57812 62.885414 371.01562 63.572914L372.51562 65.916664L371.07812 65.916664L369.95312 64.135414Q369.45312 63.354164 369.125 62.947914Q368.8125 62.541664 368.54688 62.385414Q368.29688 62.21354 368.03125 62.135414Q367.84375 62.104164 367.40625 62.104164L366.07812 62.104164L366.07812 65.916664L364.9375 65.916664ZM366.07812 61.11979L368.53125 61.11979Q369.29688 61.11979 369.73438 60.96354Q370.1875 60.791664 370.40625 60.447914Q370.64062 60.08854 370.64062 59.666664Q370.64062 59.05729 370.1875 58.666664Q369.75 58.27604 368.79688 58.27604L366.07812 58.27604L366.07812 61.11979Z" fill-rule="nonzero"/><path fill="#757575" d="M19.45625 32.95625L21.2375 32.8Q21.3625 33.8625 21.815624 34.55Q22.284374 35.2375 23.253124 35.675Q24.2375 36.096874 25.471874 36.096874Q26.55 36.096874 27.378124 35.784374Q28.20625 35.45625 28.6125 34.89375Q29.01875 34.33125 29.01875 33.659374Q29.01875 32.9875 28.628124 32.4875Q28.2375 31.9875 27.346874 31.64375Q26.76875 31.409374 24.784374 30.940624Q22.815624 30.471874 22.034374 30.05Q21.003124 29.51875 20.503124 28.721874Q20.003124 27.925 20.003124 26.940624Q20.003124 25.846874 20.6125 24.909374Q21.221874 23.971874 22.409374 23.4875Q23.596874 22.9875 25.034374 22.9875Q26.628124 22.9875 27.846874 23.503124Q29.065624 24.01875 29.70625 25.01875Q30.3625 26.003124 30.409374 27.26875L28.596874 27.409374Q28.45625 26.05 27.6125 25.3625Q26.76875 24.659374 25.1125 24.659374Q23.39375 24.659374 22.596874 25.3Q21.815624 25.925 21.815624 26.8Q21.815624 27.58125 22.378124 28.08125Q22.925 28.58125 25.2375 29.096874Q27.55 29.6125 28.409374 30.003124Q29.659374 30.58125 30.253124 31.471874Q30.846874 32.346874 30.846874 33.503124Q30.846874 34.64375 30.190624 35.659374Q29.534374 36.675 28.3 37.2375Q27.08125 37.8 25.55 37.8Q23.6125 37.8 22.3 37.2375Q20.9875 36.659374 20.2375 35.51875Q19.4875 34.378124 19.45625 32.95625ZM43.940624 36.01875Q45.26875 36.925 46.378124 37.346874L45.815624 38.659374Q44.26875 38.1125 42.7375 36.909374Q41.14375 37.8 39.221874 37.8Q37.284374 37.8 35.690624 36.8625Q34.1125 35.925 33.253124 34.221874Q32.409374 32.51875 32.409374 30.39375Q32.409374 28.26875 33.26875 26.534374Q34.128124 24.8 35.70625 23.89375Q37.3 22.971874 39.26875 22.971874Q41.253124 22.971874 42.83125 23.925Q44.425 24.8625 45.253124 26.565624Q46.096874 28.253124 46.096874 30.378124Q46.096874 32.14375 45.565624 33.565624Q45.034374 34.971874 43.940624 36.01875ZM39.76875 33.596874Q41.409374 34.05 42.471874 34.95625Q44.14375 33.440624 44.14375 30.378124Q44.14375 28.64375 43.55 27.346874Q42.971874 26.05 41.83125 25.33125Q40.690624 24.6125 39.26875 24.6125Q37.159374 24.6125 35.753124 26.065624Q34.3625 27.503124 34.3625 30.39375Q34.3625 33.190624 35.7375 34.690624Q37.128124 36.175 39.26875 36.175Q40.284374 36.175 41.190624 35.784374Q40.3 35.221874 39.315624 34.971874L39.76875 33.596874ZM48.190624 33.253124L48.190624 31.4875L53.58125 31.4875L53.58125 33.253124L48.190624 33.253124ZM62.003124 37.55L60.2375 37.55L60.2375 26.346874Q59.6125 26.95625 58.58125 27.565624Q57.55 28.159374 56.721874 28.471874L56.721874 26.76875Q58.20625 26.08125 59.3 25.096874Q60.409374 24.096874 60.8625 23.175L62.003124 23.175L62.003124 37.55ZM67.09688 37.55L67.09688 23.2375L72.4875 23.2375Q73.925 23.2375 74.675 23.3625Q75.72188 23.55 76.44063 24.05Q77.15938 24.534374 77.58125 25.425Q78.01875 26.315624 78.01875 27.378124Q78.01875 29.20625 76.84688 30.471874Q75.69063 31.721874 72.65938 31.721874L68.9875 31.721874L68.9875 37.55L67.09688 37.55ZM68.9875 30.034374L72.69063 30.034374Q74.51875 30.034374 75.28438 29.3625Q76.06563 28.675 76.06563 27.425Q76.06563 26.534374 75.6125 25.89375Q75.15938 25.253124 74.425 25.05Q73.94063 24.925 72.64375 24.925L68.9875 24.925L68.9875 30.034374ZM80.12813 37.55L80.12813 23.2375L86.47188 23.2375Q88.37813 23.2375 89.37813 23.628124Q90.37813 24.003124 90.97188 24.9875Q91.56563 25.95625 91.56563 27.14375Q91.56563 28.659374 90.58125 29.70625Q89.59688 30.753124 87.53438 31.034374Q88.28438 31.39375 88.675 31.753124Q89.50313 32.503124 90.25313 33.659374L92.7375 37.55L90.3625 37.55L88.45625 34.565624Q87.62813 33.284374 87.09688 32.596874Q86.56563 31.909374 86.12813 31.64375Q85.70625 31.3625 85.26875 31.253124Q84.94063 31.190624 84.22188 31.190624L82.01875 31.190624L82.01875 37.55L80.12813 37.55ZM82.01875 29.55L86.09688 29.55Q87.39375 29.55 88.1125 29.284374Q88.84688 29.01875 89.22188 28.425Q89.6125 27.83125 89.6125 27.14375Q89.6125 26.128124 88.87813 25.471874Q88.14375 24.815624 86.55 24.815624L82.01875 24.815624L82.01875 29.55ZM106.64375 36.26875Q105.65938 37.096874 104.75313 37.440624Q103.84688 37.784374 102.81563 37.784374Q101.1125 37.784374 100.19063 36.95625Q99.26875 36.1125 99.26875 34.815624Q99.26875 34.05 99.6125 33.425Q99.97188 32.8 100.53438 32.425Q101.09688 32.034374 101.8 31.83125Q102.31563 31.70625 103.3625 31.565624Q105.4875 31.315624 106.4875 30.971874Q106.50313 30.6125 106.50313 30.503124Q106.50313 29.440624 106.00313 28.9875Q105.33125 28.39375 104.00313 28.39375Q102.75313 28.39375 102.15938 28.83125Q101.58125 29.26875 101.3 30.378124L99.58125 30.14375Q99.81563 29.034374 100.34688 28.3625Q100.87813 27.675 101.89375 27.315624Q102.90938 26.940624 104.25313 26.940624Q105.58125 26.940624 106.40938 27.253124Q107.2375 27.565624 107.62813 28.05Q108.01875 28.51875 108.175 29.2375Q108.26875 29.690624 108.26875 30.8625L108.26875 33.20625Q108.26875 35.659374 108.37813 36.315624Q108.4875 36.95625 108.83125 37.55L106.9875 37.55Q106.72188 37.003124 106.64375 36.26875ZM106.4875 32.346874Q105.53438 32.7375 103.6125 33.003124Q102.53438 33.159374 102.08125 33.3625Q101.64375 33.55 101.39375 33.925Q101.14375 34.3 101.14375 34.76875Q101.14375 35.471874 101.675 35.940624Q102.20625 36.409374 103.2375 36.409374Q104.25313 36.409374 105.03438 35.971874Q105.83125 35.51875 106.20625 34.753124Q106.4875 34.14375 106.4875 32.9875L106.4875 32.346874ZM110.8625 37.55L110.8625 27.175L112.45625 27.175L112.45625 28.659374Q113.59688 26.940624 115.75313 26.940624Q116.69063 26.940624 117.47188 27.284374Q118.26875 27.6125 118.65938 28.159374Q119.05 28.70625 119.20625 29.45625Q119.3 29.95625 119.3 31.175L119.3 37.55L117.53438 37.55L117.53438 31.2375Q117.53438 30.159374 117.33125 29.628124Q117.12813 29.096874 116.59688 28.784374Q116.08125 28.471874 115.37813 28.471874Q114.25313 28.471874 113.44063 29.190624Q112.62813 29.89375 112.62813 31.878124L112.62813 37.55L110.8625 37.55ZM127.59688 37.55L127.59688 36.2375Q126.6125 37.784374 124.69063 37.784374Q123.45625 37.784374 122.40938 37.096874Q121.37813 36.409374 120.8 35.190624Q120.2375 33.971874 120.2375 32.378124Q120.2375 30.815624 120.75313 29.55Q121.26875 28.284374 122.3 27.6125Q123.34688 26.940624 124.6125 26.940624Q125.55 26.940624 126.28438 27.346874Q127.01875 27.7375 127.4875 28.3625L127.4875 23.2375L129.22188 23.2375L129.22188 37.55L127.59688 37.55ZM122.03438 32.378124Q122.03438 34.3625 122.87813 35.346874Q123.72188 36.33125 124.8625 36.33125Q126.01875 36.33125 126.81563 35.39375Q127.62813 34.45625 127.62813 32.51875Q127.62813 30.39375 126.8 29.39375Q125.9875 28.39375 124.78438 28.39375Q123.6125 28.39375 122.81563 29.3625Q122.03438 30.315624 122.03438 32.378124ZM138.09688 37.55L138.09688 23.2375L143.4875 23.2375Q144.925 23.2375 145.675 23.3625Q146.72188 23.55 147.44063 24.05Q148.15938 24.534374 148.58125 25.425Q149.01875 26.315624 149.01875 27.378124Q149.01875 29.20625 147.84688 30.471874Q146.69063 31.721874 143.65938 31.721874L139.9875 31.721874L139.9875 37.55L138.09688 37.55ZM139.9875 30.034374L143.69063 30.034374Q145.51875 30.034374 146.28438 29.3625Q147.06563 28.675 147.06563 27.425Q147.06563 26.534374 146.6125 25.89375Q146.15938 25.253124 145.425 25.05Q144.94063 24.925 143.64375 24.925L139.9875 24.925L139.9875 30.034374ZM151.12813 37.55L151.12813 23.2375L157.47188 23.2375Q159.37813 23.2375 160.37813 23.628124Q161.37813 24.003124 161.97188 24.9875Q162.56563 25.95625 162.56563 27.14375Q162.56563 28.659374 161.58125 29.70625Q160.59688 30.753124 158.53438 31.034374Q159.28438 31.39375 159.675 31.753124Q160.50313 32.503124 161.25313 33.659374L163.7375 37.55L161.3625 37.55L159.45625 34.565624Q158.62813 33.284374 158.09688 32.596874Q157.56563 31.909374 157.12813 31.64375Q156.70625 31.3625 156.26875 31.253124Q155.94063 31.190624 155.22188 31.190624L153.01875 31.190624L153.01875 37.55L151.12813 37.55ZM153.01875 29.55L157.09688 29.55Q158.39375 29.55 159.1125 29.284374Q159.84688 29.01875 160.22188 28.425Q160.6125 27.83125 160.6125 27.14375Q160.6125 26.128124 159.87813 25.471874Q159.14375 24.815624 157.55 24.815624L153.01875 24.815624L153.01875 29.55ZM164.19063 33.253124L164.19063 31.4875L169.58125 31.4875L169.58125 33.253124L164.19063 33.253124ZM178.00313 37.55L176.2375 37.55L176.2375 26.346874Q175.6125 26.95625 174.58125 27.565624Q173.55 28.159374 172.72188 28.471874L172.72188 26.76875Q174.20625 26.08125 175.3 25.096874Q176.40938 24.096874 176.8625 23.175L178.00313 23.175L178.00313 37.55ZM183.09688 37.55L183.09688 23.2375L188.4875 23.2375Q189.925 23.2375 190.675 23.3625Q191.72188 23.55 192.44063 24.05Q193.15938 24.534374 193.58125 25.425Q194.01875 26.315624 194.01875 27.378124Q194.01875 29.20625 192.84688 30.471874Q191.69063 31.721874 188.65938 31.721874L184.9875 31.721874L184.9875 37.55L183.09688 37.55ZM184.9875 30.034374L188.69063 30.034374Q190.51875 30.034374 191.28438 29.3625Q192.06563 28.675 192.06563 27.425Q192.06563 26.534374 191.6125 25.89375Q191.15938 25.253124 190.425 25.05Q189.94063 24.925 188.64375 24.925L184.9875 24.925L184.9875 30.034374ZM196.12813 37.55L196.12813 23.2375L202.47188 23.2375Q204.37813 23.2375 205.37813 23.628124Q206.37813 24.003124 206.97188 24.9875Q207.56563 25.95625 207.56563 27.14375Q207.56563 28.659374 206.58125 29.70625Q205.59688 30.753124 203.53438 31.034374Q204.28438 31.39375 204.675 31.753124Q205.50313 32.503124 206.25313 33.659374L208.7375 37.55L206.3625 37.55L204.45625 34.565624Q203.62813 33.284374 203.09688 32.596874Q202.56563 31.909374 202.12813 31.64375Q201.70625 31.3625 201.26875 31.253124Q200.94063 31.190624 200.22188 31.190624L198.01875 31.190624L198.01875 37.55L196.12813 37.55ZM198.01875 29.55L202.09688 29.55Q203.39375 29.55 204.1125 29.284374Q204.84688 29.01875 205.22188 28.425Q205.6125 27.83125 205.6125 27.14375Q205.6125 26.128124 204.87813 25.471874Q204.14375 24.815624 202.55 24.815624L198.01875 24.815624L198.01875 29.55ZM219.22188 41.753124Q217.76875 39.925 216.76875 37.471874Q215.76875 35.003124 215.76875 32.3625Q215.76875 30.034374 216.51875 27.909374Q217.39375 25.440624 219.22188 22.9875L220.4875 22.9875Q219.3 25.01875 218.925 25.89375Q218.33125 27.2375 217.9875 28.70625Q217.56563 30.534374 217.56563 32.378124Q217.56563 37.065624 220.4875 41.753124L219.22188 41.753124ZM229.97188 34.20625L231.78438 34.440624Q231.3625 36.01875 230.19063 36.909374Q229.03438 37.784374 227.22188 37.784374Q224.95625 37.784374 223.6125 36.39375Q222.28438 34.9875 222.28438 32.45625Q222.28438 29.83125 223.62813 28.39375Q224.97188 26.940624 227.12813 26.940624Q229.20625 26.940624 230.51875 28.3625Q231.84688 29.76875 231.84688 32.346874Q231.84688 32.503124 231.83125 32.815624L224.09688 32.815624Q224.19063 34.51875 225.06563 35.425Q225.94063 36.33125 227.2375 36.33125Q228.20625 36.33125 228.87813 35.83125Q229.56563 35.315624 229.97188 34.20625ZM224.19063 31.3625L229.9875 31.3625Q229.87813 30.065624 229.33125 29.409374Q228.4875 28.39375 227.14375 28.39375Q225.94063 28.39375 225.1125 29.20625Q224.28438 30.003124 224.19063 31.3625ZM242.6125 35.8625L242.6125 37.55L233.15938 37.55Q233.14375 36.909374 233.3625 36.33125Q233.72188 35.3625 234.51875 34.425Q235.31563 33.4875 236.81563 32.253124Q239.15938 30.346874 239.97188 29.2375Q240.8 28.1125 240.8 27.1125Q240.8 26.065624 240.05 25.346874Q239.3 24.628124 238.09688 24.628124Q236.83125 24.628124 236.06563 25.39375Q235.3 26.159374 235.3 27.503124L233.4875 27.315624Q233.675 25.3 234.87813 24.2375Q236.09688 23.175 238.14375 23.175Q240.19063 23.175 241.39375 24.315624Q242.59688 25.45625 242.59688 27.14375Q242.59688 28.003124 242.2375 28.846874Q241.89375 29.675 241.08125 30.596874Q240.26875 31.503124 238.37813 33.1125Q236.78438 34.440624 236.33125 34.909374Q235.89375 35.378124 235.59688 35.8625L242.6125 35.8625ZM246.01875 41.753124L244.76875 41.753124Q247.675 37.065624 247.675 32.378124Q247.675 30.534374 247.26875 28.7375Q246.925 27.26875 246.33125 25.925Q245.95625 25.034374 244.76875 22.9875L246.01875 22.9875Q247.8625 25.440624 248.7375 27.909374Q249.4875 30.034374 249.4875 32.3625Q249.4875 35.003124 248.47188 37.471874Q247.47188 39.925 246.01875 41.753124Z" fill-rule="nonzero"/></svg>