<svg version="1.1" viewBox="0.0 0.0 600.0 371.0" fill="none" stroke="none" stroke-linecap="square" stroke-miterlimit="10" width="600" height="371" xmlns:xlink="http://www.w3.org/1999/xlink" xmlns="http://www.w3.org/2000/svg"><path fill="#ffffff" d="M0 0L600.0 0L600.0 371.0L0 371.0L0 0Z" fill-rule="nonzero"/><path stroke="#cccccc" stroke-width="1.0" stroke-linecap="butt" d="M158.5 88.5L158.5 332.5" fill-rule="nonzero"/><path stroke="#cccccc" stroke-width="1.0" stroke-linecap="butt" d="M299.5 88.5L299.5 332.5" fill-rule="nonzero"/><path stroke="#cccccc" stroke-width="1.0" stroke-linecap="butt" d="M440.5 88.5L440.5 332.5" fill-rule="nonzero"/><path stroke="#cccccc" stroke-width="1.0" stroke-linecap="butt" d="M581.5 88.5L581.5 332.5" fill-rule="nonzero"/><path stroke="#333333" stroke-width="1.0" stroke-linecap="butt" d="M45.5 332.5L581.5 332.5" fill-rule="nonzero"/><path stroke="#cccccc" stroke-width="1.0" stroke-linecap="butt" d="M45.5 283.5L581.5 283.5" fill-rule="nonzero"/><path stroke="#cccccc" stroke-width="1.0" stroke-linecap="butt" d="M45.5 234.5L581.5 234.5" fill-rule="nonzero"/><path stroke="#cccccc" stroke-width="1.0" stroke-linecap="butt" d="M45.5 185.5L581.5 185.5" fill-rule="nonzero"/><path stroke="#cccccc" stroke-width="1.0" stroke-linecap="butt" d="M45.5 137.5L581.5 137.5" fill-rule="nonzero"/><path stroke="#cccccc" stroke-width="1.0" stroke-linecap="butt" d="M45.5 88.5L581.5 88.5" fill-rule="nonzero"/><clipPath id="id_0"><path d="M45.55 88.28333L581.45 88.28333L581.45 332.45L45.55 332.45L45.55 88.28333Z" clip-rule="nonzero"/></clipPath><path stroke="#4285f4" stroke-width="2.0" stroke-linecap="butt" clip-path="url(#id_0)" d="M45.55 318.12964L73.755264 304.4319L101.960526 291.77182L130.16579 277.6175L158.37105 265.33102L186.57631 257.15387L214.78159 246.90132L242.98685 239.8034L271.1921 231.37721L299.39737 218.8832L327.60263 210.95511L355.8079 204.4383L384.01315 193.89519L412.2184 182.68793L440.42368 171.77124L468.62894 160.23192L496.8342 149.12967L525.0395 143.29652L553.24475 132.79492L581.45 116.64818" fill-rule="nonzero"/><path stroke="#ea4335" stroke-width="2.0" stroke-linecap="butt" clip-path="url(#id_0)" d="M45.55 318.79376L73.755264 315.84668L101.960526 311.86188L130.16579 303.85077L158.37105 296.04718L186.57631 288.20212L214.78159 280.85513L242.98685 270.97617L271.1921 260.7236L299.39737 258.06708L327.60263 249.47484L355.8079 245.98814L384.01315 238.68268L412.2184 230.71307L440.42368 222.78499L468.62894 215.68706L496.8342 207.50992L525.0395 200.16295L553.24475 193.06502L581.45 170.89957" fill-rule="nonzero"/><path fill="#000000" fill-opacity="0.0" clip-path="url(#id_0)" d="M48.55 318.12964C48.55 319.78647 47.206856 321.12964 45.55 321.12964C43.893147 321.12964 42.55 319.78647 42.55 318.12964C42.55 316.47278 43.893147 315.12964 45.55 315.12964C47.206856 315.12964 48.55 316.47278 48.55 318.12964Z" fill-rule="nonzero"/><path fill="#000000" fill-opacity="0.0" clip-path="url(#id_0)" d="M76.755264 304.4319C76.755264 306.0887 75.41212 307.4319 73.755264 307.4319C72.09841 307.4319 70.755264 306.0887 70.755264 304.4319C70.755264 302.77502 72.09841 301.4319 73.755264 301.4319C75.41212 301.4319 76.755264 302.77502 76.755264 304.4319Z" fill-rule="nonzero"/><path fill="#000000" fill-opacity="0.0" clip-path="url(#id_0)" d="M104.960526 291.77182C104.960526 293.42868 103.61738 294.77182 101.960526 294.77182C100.30367 294.77182 98.960526 293.42868 98.960526 291.77182C98.960526 290.115 100.30367 288.77182 101.960526 288.77182C103.61738 288.77182 104.960526 290.115 104.960526 291.77182Z" fill-rule="nonzero"/><path fill="#000000" fill-opacity="0.0" clip-path="url(#id_0)" d="M133.16579 277.6175C133.16579 279.27435 131.82265 280.6175 130.16579 280.6175C128.50894 280.6175 127.16579 279.27435 127.16579 277.6175C127.16579 275.96063 128.50894 274.6175 130.16579 274.6175C131.82265 274.6175 133.16579 275.96063 133.16579 277.6175Z" fill-rule="nonzero"/><path fill="#000000" fill-opacity="0.0" clip-path="url(#id_0)" d="M161.37105 265.33102C161.37105 266.98788 160.02791 268.33102 158.37105 268.33102C156.7142 268.33102 155.37105 266.98788 155.37105 265.33102C155.37105 263.67416 156.7142 262.33102 158.37105 262.33102C160.02791 262.33102 161.37105 263.67416 161.37105 265.33102Z" fill-rule="nonzero"/><path fill="#000000" fill-opacity="0.0" clip-path="url(#id_0)" d="M189.57631 257.15387C189.57631 258.81073 188.23317 260.15387 186.57631 260.15387C184.91946 260.15387 183.57631 258.81073 183.57631 257.15387C183.57631 255.49702 184.91946 254.15388 186.57631 254.15388C188.23317 254.15388 189.57631 255.49702 189.57631 257.15387Z" fill-rule="nonzero"/><path fill="#000000" fill-opacity="0.0" clip-path="url(#id_0)" d="M217.78159 246.90132C217.78159 248.55818 216.43843 249.90132 214.78159 249.90132C213.12473 249.90132 211.78159 248.55818 211.78159 246.90132C211.78159 245.24448 213.12473 243.90132 214.78159 243.90132C216.43843 243.90132 217.78159 245.24448 217.78159 246.90132Z" fill-rule="nonzero"/><path fill="#000000" fill-opacity="0.0" clip-path="url(#id_0)" d="M245.98685 239.8034C245.98685 241.46025 244.64369 242.8034 242.98685 242.8034C241.32999 242.8034 239.98685 241.46025 239.98685 239.8034C239.98685 238.14655 241.32999 236.8034 242.98685 236.8034C244.64369 236.8034 245.98685 238.14655 245.98685 239.8034Z" fill-rule="nonzero"/><path fill="#000000" fill-opacity="0.0" clip-path="url(#id_0)" d="M274.1921 231.37721C274.1921 233.03406 272.84897 234.37721 271.1921 234.37721C269.53525 234.37721 268.1921 233.03406 268.1921 231.37721C268.1921 229.72035 269.53525 228.37721 271.1921 228.37721C272.84897 228.37721 274.1921 229.72035 274.1921 231.37721Z" fill-rule="nonzero"/><path fill="#000000" fill-opacity="0.0" clip-path="url(#id_0)" d="M302.39737 218.8832C302.39737 220.54005 301.05423 221.8832 299.39737 221.8832C297.7405 221.8832 296.39737 220.54005 296.39737 218.8832C296.39737 217.22635 297.7405 215.8832 299.39737 215.8832C301.05423 215.8832 302.39737 217.22635 302.39737 218.8832Z" fill-rule="nonzero"/><path fill="#000000" fill-opacity="0.0" clip-path="url(#id_0)" d="M330.60263 210.95511C330.60263 212.61197 329.2595 213.95511 327.60263 213.95511C325.94577 213.95511 324.60263 212.61197 324.60263 210.95511C324.60263 209.29825 325.94577 207.95511 327.60263 207.95511C329.2595 207.95511 330.60263 209.29825 330.60263 210.95511Z" fill-rule="nonzero"/><path fill="#000000" fill-opacity="0.0" clip-path="url(#id_0)" d="M358.8079 204.4383C358.8079 206.09515 357.46475 207.4383 355.8079 207.4383C354.15103 207.4383 352.8079 206.09515 352.8079 204.4383C352.8079 202.78145 354.15103 201.4383 355.8079 201.4383C357.46475 201.4383 358.8079 202.78145 358.8079 204.4383Z" fill-rule="nonzero"/><path fill="#000000" fill-opacity="0.0" clip-path="url(#id_0)" d="M387.01315 193.89519C387.01315 195.55203 385.67 196.89519 384.01315 196.89519C382.3563 196.89519 381.01315 195.55203 381.01315 193.89519C381.01315 192.23833 382.3563 190.89519 384.01315 190.89519C385.67 190.89519 387.01315 192.23833 387.01315 193.89519Z" fill-rule="nonzero"/><path fill="#000000" fill-opacity="0.0" clip-path="url(#id_0)" d="M415.2184 182.68793C415.2184 184.34479 413.87527 185.68793 412.2184 185.68793C410.56155 185.68793 409.2184 184.34479 409.2184 182.68793C409.2184 181.03108 410.56155 179.68793 412.2184 179.68793C413.87527 179.68793 415.2184 181.03108 415.2184 182.68793Z" fill-rule="nonzero"/><path fill="#000000" fill-opacity="0.0" clip-path="url(#id_0)" d="M443.42368 171.77124C443.42368 173.4281 442.08054 174.77124 440.42368 174.77124C438.7668 174.77124 437.42368 173.4281 437.42368 171.77124C437.42368 170.11438 438.7668 168.77124 440.42368 168.77124C442.08054 168.77124 443.42368 170.11438 443.42368 171.77124Z" fill-rule="nonzero"/><path fill="#000000" fill-opacity="0.0" clip-path="url(#id_0)" d="M471.62894 160.23192C471.62894 161.88878 470.2858 163.23192 468.62894 163.23192C466.9721 163.23192 465.62894 161.88878 465.62894 160.23192C465.62894 158.57507 466.9721 157.23192 468.62894 157.23192C470.2858 157.23192 471.62894 158.57507 471.62894 160.23192Z" fill-rule="nonzero"/><path fill="#000000" fill-opacity="0.0" clip-path="url(#id_0)" d="M499.8342 149.12967C499.8342 150.78651 498.49106 152.12967 496.8342 152.12967C495.17737 152.12967 493.8342 150.78651 493.8342 149.12967C493.8342 147.47281 495.17737 146.12967 496.8342 146.12967C498.49106 146.12967 499.8342 147.47281 499.8342 149.12967Z" fill-rule="nonzero"/><path fill="#000000" fill-opacity="0.0" clip-path="url(#id_0)" d="M528.0395 143.29652C528.0395 144.95338 526.69635 146.29652 525.0395 146.29652C523.3826 146.29652 522.0395 144.95338 522.0395 143.29652C522.0395 141.63966 523.3826 140.29652 525.0395 140.29652C526.69635 140.29652 528.0395 141.63966 528.0395 143.29652Z" fill-rule="nonzero"/><path fill="#000000" fill-opacity="0.0" clip-path="url(#id_0)" d="M556.24475 132.79492C556.24475 134.45177 554.9016 135.79492 553.24475 135.79492C551.5879 135.79492 550.24475 134.45177 550.24475 132.79492C550.24475 131.13806 551.5879 129.79492 553.24475 129.79492C554.9016 129.79492 556.24475 131.13806 556.24475 132.79492Z" fill-rule="nonzero"/><path fill="#000000" fill-opacity="0.0" clip-path="url(#id_0)" d="M584.45 116.64818C584.45 118.30503 583.1069 119.64818 581.45 119.64818C579.79315 119.64818 578.45 118.30503 578.45 116.64818C578.45 114.99132 579.79315 113.64818 581.45 113.64818C583.1069 113.64818 584.45 114.99132 584.45 116.64818Z" fill-rule="nonzero"/><path fill="#000000" fill-opacity="0.0" clip-path="url(#id_0)" d="M48.55 318.79376C48.55 320.45062 47.206856 321.79376 45.55 321.79376C43.893147 321.79376 42.55 320.45062 42.55 318.79376C42.55 317.1369 43.893147 315.79376 45.55 315.79376C47.206856 315.79376 48.55 317.1369 48.55 318.79376Z" fill-rule="nonzero"/><path fill="#000000" fill-opacity="0.0" clip-path="url(#id_0)" d="M76.755264 315.84668C76.755264 317.5035 75.41212 318.84668 73.755264 318.84668C72.09841 318.84668 70.755264 317.5035 70.755264 315.84668C70.755264 314.18982 72.09841 312.84668 73.755264 312.84668C75.41212 312.84668 76.755264 314.18982 76.755264 315.84668Z" fill-rule="nonzero"/><path fill="#000000" fill-opacity="0.0" clip-path="url(#id_0)" d="M104.960526 311.86188C104.960526 313.5187 103.61738 314.86188 101.960526 314.86188C100.30367 314.86188 98.960526 313.5187 98.960526 311.86188C98.960526 310.20502 100.30367 308.86188 101.960526 308.86188C103.61738 308.86188 104.960526 310.20502 104.960526 311.86188Z" fill-rule="nonzero"/><path fill="#000000" fill-opacity="0.0" clip-path="url(#id_0)" d="M133.16579 303.85077C133.16579 305.5076 131.82265 306.85077 130.16579 306.85077C128.50894 306.85077 127.16579 305.5076 127.16579 303.85077C127.16579 302.1939 128.50894 300.85077 130.16579 300.85077C131.82265 300.85077 133.16579 302.1939 133.16579 303.85077Z" fill-rule="nonzero"/><path fill="#000000" fill-opacity="0.0" clip-path="url(#id_0)" d="M161.37105 296.04718C161.37105 297.70404 160.02791 299.04718 158.37105 299.04718C156.7142 299.04718 155.37105 297.70404 155.37105 296.04718C155.37105 294.39035 156.7142 293.04718 158.37105 293.04718C160.02791 293.04718 161.37105 294.39035 161.37105 296.04718Z" fill-rule="nonzero"/><path fill="#000000" fill-opacity="0.0" clip-path="url(#id_0)" d="M189.57631 288.20212C189.57631 289.85898 188.23317 291.20212 186.57631 291.20212C184.91946 291.20212 183.57631 289.85898 183.57631 288.20212C183.57631 286.54526 184.91946 285.20212 186.57631 285.20212C188.23317 285.20212 189.57631 286.54526 189.57631 288.20212Z" fill-rule="nonzero"/><path fill="#000000" fill-opacity="0.0" clip-path="url(#id_0)" d="M217.78159 280.85513C217.78159 282.512 216.43843 283.85513 214.78159 283.85513C213.12473 283.85513 211.78159 282.512 211.78159 280.85513C211.78159 279.19827 213.12473 277.85513 214.78159 277.85513C216.43843 277.85513 217.78159 279.19827 217.78159 280.85513Z" fill-rule="nonzero"/><path fill="#000000" fill-opacity="0.0" clip-path="url(#id_0)" d="M245.98685 270.97617C245.98685 272.63303 244.64369 273.97617 242.98685 273.97617C241.32999 273.97617 239.98685 272.63303 239.98685 270.97617C239.98685 269.3193 241.32999 267.97617 242.98685 267.97617C244.64369 267.97617 245.98685 269.3193 245.98685 270.97617Z" fill-rule="nonzero"/><path fill="#000000" fill-opacity="0.0" clip-path="url(#id_0)" d="M274.1921 260.7236C274.1921 262.38046 272.84897 263.7236 271.1921 263.7236C269.53525 263.7236 268.1921 262.38046 268.1921 260.7236C268.1921 259.06674 269.53525 257.7236 271.1921 257.7236C272.84897 257.7236 274.1921 259.06674 274.1921 260.7236Z" fill-rule="nonzero"/><path fill="#000000" fill-opacity="0.0" clip-path="url(#id_0)" d="M302.39737 258.06708C302.39737 259.7239 301.05423 261.06708 299.39737 261.06708C297.7405 261.06708 296.39737 259.7239 296.39737 258.06708C296.39737 256.41022 297.7405 255.06706 299.39737 255.06706C301.05423 255.06706 302.39737 256.41022 302.39737 258.06708Z" fill-rule="nonzero"/><path fill="#000000" fill-opacity="0.0" clip-path="url(#id_0)" d="M330.60263 249.47484C330.60263 251.1317 329.2595 252.47484 327.60263 252.47484C325.94577 252.47484 324.60263 251.1317 324.60263 249.47484C324.60263 247.818 325.94577 246.47484 327.60263 246.47484C329.2595 246.47484 330.60263 247.818 330.60263 249.47484Z" fill-rule="nonzero"/><path fill="#000000" fill-opacity="0.0" clip-path="url(#id_0)" d="M358.8079 245.98814C358.8079 247.64499 357.46475 248.98814 355.8079 248.98814C354.15103 248.98814 352.8079 247.64499 352.8079 245.98814C352.8079 244.33128 354.15103 242.98814 355.8079 242.98814C357.46475 242.98814 358.8079 244.33128 358.8079 245.98814Z" fill-rule="nonzero"/><path fill="#000000" fill-opacity="0.0" clip-path="url(#id_0)" d="M387.01315 238.68268C387.01315 240.33952 385.67 241.68268 384.01315 241.68268C382.3563 241.68268 381.01315 240.33952 381.01315 238.68268C381.01315 237.02582 382.3563 235.68268 384.01315 235.68268C385.67 235.68268 387.01315 237.02582 387.01315 238.68268Z" fill-rule="nonzero"/><path fill="#000000" fill-opacity="0.0" clip-path="url(#id_0)" d="M415.2184 230.71307C415.2184 232.36993 413.87527 233.71307 412.2184 233.71307C410.56155 233.71307 409.2184 232.36993 409.2184 230.71307C409.2184 229.05621 410.56155 227.71307 412.2184 227.71307C413.87527 227.71307 415.2184 229.05621 415.2184 230.71307Z" fill-rule="nonzero"/><path fill="#000000" fill-opacity="0.0" clip-path="url(#id_0)" d="M443.42368 222.78499C443.42368 224.44183 442.08054 225.78499 440.42368 225.78499C438.7668 225.78499 437.42368 224.44183 437.42368 222.78499C437.42368 221.12813 438.7668 219.78499 440.42368 219.78499C442.08054 219.78499 443.42368 221.12813 443.42368 222.78499Z" fill-rule="nonzero"/><path fill="#000000" fill-opacity="0.0" clip-path="url(#id_0)" d="M471.62894 215.68706C471.62894 217.34392 470.2858 218.68706 468.62894 218.68706C466.9721 218.68706 465.62894 217.34392 465.62894 215.68706C465.62894 214.0302 466.9721 212.68706 468.62894 212.68706C470.2858 212.68706 471.62894 214.0302 471.62894 215.68706Z" fill-rule="nonzero"/><path fill="#000000" fill-opacity="0.0" clip-path="url(#id_0)" d="M499.8342 207.50992C499.8342 209.16676 498.49106 210.50992 496.8342 210.50992C495.17737 210.50992 493.8342 209.16676 493.8342 207.50992C493.8342 205.85306 495.17737 204.50992 496.8342 204.50992C498.49106 204.50992 499.8342 205.85306 499.8342 207.50992Z" fill-rule="nonzero"/><path fill="#000000" fill-opacity="0.0" clip-path="url(#id_0)" d="M528.0395 200.16295C528.0395 201.8198 526.69635 203.16295 525.0395 203.16295C523.3826 203.16295 522.0395 201.8198 522.0395 200.16295C522.0395 198.50609 523.3826 197.16295 525.0395 197.16295C526.69635 197.16295 528.0395 198.50609 528.0395 200.16295Z" fill-rule="nonzero"/><path fill="#000000" fill-opacity="0.0" clip-path="url(#id_0)" d="M556.24475 193.06502C556.24475 194.72188 554.9016 196.06502 553.24475 196.06502C551.5879 196.06502 550.24475 194.72188 550.24475 193.06502C550.24475 191.40816 551.5879 190.06502 553.24475 190.06502C554.9016 190.06502 556.24475 191.40816 556.24475 193.06502Z" fill-rule="nonzero"/><path fill="#000000" fill-opacity="0.0" clip-path="url(#id_0)" d="M584.45 170.89957C584.45 172.55643 583.1069 173.89957 581.45 173.89957C579.79315 173.89957 578.45 172.55643 578.45 170.89957C578.45 169.2427 579.79315 167.89957 581.45 167.89957C583.1069 167.89957 584.45 169.2427 584.45 170.89957Z" fill-rule="nonzero"/><path fill="#000000" d="M33.05 332.21564Q33.05 330.6844 33.3625 329.7625Q33.675 328.825 34.284374 328.325Q34.909374 327.825 35.846874 327.825Q36.534374 327.825 37.05 328.10626Q37.58125 328.3875 37.925 328.91876Q38.26875 329.4344 38.45625 330.1844Q38.64375 330.9344 38.64375 332.21564Q38.64375 333.73126 38.33125 334.65314Q38.034374 335.575 37.409374 336.09064Q36.8 336.59064 35.846874 336.59064Q34.6125 336.59064 33.89375 335.7Q33.05 334.6375 33.05 332.21564ZM34.128124 332.21564Q34.128124 334.325 34.628124 335.02814Q35.128124 335.73126 35.846874 335.73126Q36.58125 335.73126 37.065624 335.02814Q37.565624 334.325 37.565624 332.21564Q37.565624 330.09064 37.065624 329.40314Q36.58125 328.7 35.83125 328.7Q35.1125 328.7 34.675 329.3094Q34.128124 330.09064 34.128124 332.21564Z" fill-rule="nonzero"/><path fill="#000000" d="M30.01875 287.61667L28.971874 287.61667L28.971874 280.89792Q28.58125 281.2573 27.95625 281.6323Q27.346874 281.99167 26.8625 282.16354L26.8625 281.14792Q27.7375 280.72604 28.39375 280.14792Q29.065624 279.55417 29.346874 278.99167L30.01875 278.99167L30.01875 287.61667ZM33.05 283.3823Q33.05 281.85104 33.3625 280.92917Q33.675 279.99167 34.284374 279.49167Q34.909374 278.99167 35.846874 278.99167Q36.534374 278.99167 37.05 279.27292Q37.58125 279.55417 37.925 280.08542Q38.26875 280.60104 38.45625 281.35104Q38.64375 282.10104 38.64375 283.3823Q38.64375 284.89792 38.33125 285.8198Q38.034374 286.74167 37.409374 287.2573Q36.8 287.7573 35.846874 287.7573Q34.6125 287.7573 33.89375 286.86667Q33.05 285.80417 33.05 283.3823ZM34.128124 283.3823Q34.128124 285.49167 34.628124 286.1948Q35.128124 286.89792 35.846874 286.89792Q36.58125 286.89792 37.065624 286.1948Q37.565624 285.49167 37.565624 283.3823Q37.565624 281.2573 37.065624 280.5698Q36.58125 279.86667 35.83125 279.86667Q35.1125 279.86667 34.675 280.47604Q34.128124 281.2573 34.128124 283.3823Z" fill-rule="nonzero"/><path fill="#000000" d="M31.596874 237.76772L31.596874 238.78334L25.909374 238.78334Q25.909374 238.40834 26.034374 238.04897Q26.253124 237.47084 26.721874 236.90834Q27.20625 236.34584 28.1125 235.61147Q29.51875 234.45522 30.003124 233.78334Q30.503124 233.11147 30.503124 232.51772Q30.503124 231.89272 30.05 231.47084Q29.596874 231.03334 28.878124 231.03334Q28.1125 231.03334 27.659374 231.48647Q27.20625 231.93959 27.190624 232.75209L26.1125 232.64272Q26.221874 231.42397 26.940624 230.79897Q27.675 230.15834 28.909374 230.15834Q30.14375 230.15834 30.8625 230.84584Q31.58125 231.53334 31.58125 232.54897Q31.58125 233.06459 31.3625 233.56459Q31.159374 234.04897 30.659374 234.61147Q30.175 235.15834 29.05 236.11147Q28.096874 236.90834 27.815624 237.20522Q27.55 237.48647 27.378124 237.76772L31.596874 237.76772ZM33.05 234.54897Q33.05 233.01772 33.3625 232.09584Q33.675 231.15834 34.284374 230.65834Q34.909374 230.15834 35.846874 230.15834Q36.534374 230.15834 37.05 230.43959Q37.58125 230.72084 37.925 231.25209Q38.26875 231.76772 38.45625 232.51772Q38.64375 233.26772 38.64375 234.54897Q38.64375 236.06459 38.33125 236.98647Q38.034374 237.90834 37.409374 238.42397Q36.8 238.92397 35.846874 238.92397Q34.6125 238.92397 33.89375 238.03334Q33.05 236.97084 33.05 234.54897ZM34.128124 234.54897Q34.128124 236.65834 34.628124 237.36147Q35.128124 238.06459 35.846874 238.06459Q36.58125 238.06459 37.065624 237.36147Q37.565624 236.65834 37.565624 234.54897Q37.565624 232.42397 37.065624 231.73647Q36.58125 231.03334 35.83125 231.03334Q35.1125 231.03334 34.675 231.64272Q34.128124 232.42397 34.128124 234.54897Z" fill-rule="nonzero"/><path fill="#000000" d="M26.05 187.68437L27.1125 187.54375Q27.284374 188.43437 27.721874 188.84062Q28.159374 189.23125 28.784374 189.23125Q29.534374 189.23125 30.05 188.71562Q30.565624 188.2 30.565624 187.43437Q30.565624 186.71562 30.08125 186.24687Q29.6125 185.7625 28.878124 185.7625Q28.58125 185.7625 28.128124 185.8875L28.253124 184.95Q28.3625 184.96562 28.425 184.96562Q29.096874 184.96562 29.628124 184.62187Q30.175 184.2625 30.175 183.52812Q30.175 182.95 29.784374 182.575Q29.39375 182.18437 28.76875 182.18437Q28.159374 182.18437 27.7375 182.575Q27.33125 182.96562 27.221874 183.73125L26.159374 183.54375Q26.346874 182.49687 27.034374 181.91875Q27.721874 181.325 28.7375 181.325Q29.440624 181.325 30.034374 181.6375Q30.628124 181.93437 30.940624 182.45Q31.253124 182.96562 31.253124 183.55937Q31.253124 184.10625 30.95625 184.575Q30.659374 185.02812 30.08125 185.29375Q30.83125 185.46562 31.253124 186.02812Q31.675 186.575 31.675 187.41875Q31.675 188.54375 30.846874 189.325Q30.034374 190.10625 28.784374 190.10625Q27.659374 190.10625 26.909374 189.43437Q26.159374 188.74687 26.05 187.68437ZM33.05 185.71562Q33.05 184.18437 33.3625 183.2625Q33.675 182.325 34.284374 181.825Q34.909374 181.325 35.846874 181.325Q36.534374 181.325 37.05 181.60625Q37.58125 181.8875 37.925 182.41875Q38.26875 182.93437 38.45625 183.68437Q38.64375 184.43437 38.64375 185.71562Q38.64375 187.23125 38.33125 188.15312Q38.034374 189.075 37.409374 189.59062Q36.8 190.09062 35.846874 190.09062Q34.6125 190.09062 33.89375 189.2Q33.05 188.1375 33.05 185.71562ZM34.128124 185.71562Q34.128124 187.825 34.628124 188.52812Q35.128124 189.23125 35.846874 189.23125Q36.58125 189.23125 37.065624 188.52812Q37.565624 187.825 37.565624 185.71562Q37.565624 183.59062 37.065624 182.90312Q36.58125 182.2 35.83125 182.2Q35.1125 182.2 34.675 182.80937Q34.128124 183.59062 34.128124 185.71562Z" fill-rule="nonzero"/><path fill="#000000" d="M29.425 141.11667L29.425 139.05417L25.70625 139.05417L25.70625 138.08542L29.628124 132.52292L30.4875 132.52292L30.4875 138.08542L31.64375 138.08542L31.64375 139.05417L30.4875 139.05417L30.4875 141.11667L29.425 141.11667ZM29.425 138.08542L29.425 134.22604L26.7375 138.08542L29.425 138.08542ZM33.05 136.8823Q33.05 135.35104 33.3625 134.42917Q33.675 133.49167 34.284374 132.99167Q34.909374 132.49167 35.846874 132.49167Q36.534374 132.49167 37.05 132.77292Q37.58125 133.05417 37.925 133.58542Q38.26875 134.10104 38.45625 134.85104Q38.64375 135.60104 38.64375 136.8823Q38.64375 138.39792 38.33125 139.3198Q38.034374 140.24167 37.409374 140.7573Q36.8 141.2573 35.846874 141.2573Q34.6125 141.2573 33.89375 140.36667Q33.05 139.30417 33.05 136.8823ZM34.128124 136.8823Q34.128124 138.99167 34.628124 139.6948Q35.128124 140.39792 35.846874 140.39792Q36.58125 140.39792 37.065624 139.6948Q37.565624 138.99167 37.565624 136.8823Q37.565624 134.7573 37.065624 134.0698Q36.58125 133.36667 35.83125 133.36667Q35.1125 133.36667 34.675 133.97604Q34.128124 134.7573 34.128124 136.8823Z" fill-rule="nonzero"/><path fill="#000000" d="M26.05 90.03333L27.159374 89.93958Q27.284374 90.75208 27.721874 91.15833Q28.175 91.56458 28.815624 91.56458Q29.565624 91.56458 30.096874 90.98646Q30.628124 90.40833 30.628124 89.47083Q30.628124 88.56458 30.1125 88.04896Q29.6125 87.51771 28.784374 87.51771Q28.284374 87.51771 27.8625 87.75208Q27.45625 87.98646 27.221874 88.34583L26.2375 88.22083L27.065624 83.81458L31.346874 83.81458L31.346874 84.81458L27.909374 84.81458L27.45625 87.12708Q28.221874 86.58021 29.065624 86.58021Q30.190624 86.58021 30.95625 87.36146Q31.7375 88.14271 31.7375 89.37708Q31.7375 90.53333 31.065624 91.39271Q30.2375 92.42396 28.815624 92.42396Q27.64375 92.42396 26.89375 91.76771Q26.159374 91.11146 26.05 90.03333ZM33.05 88.04896Q33.05 86.51771 33.3625 85.59583Q33.675 84.65833 34.284374 84.15833Q34.909374 83.65833 35.846874 83.65833Q36.534374 83.65833 37.05 83.93958Q37.58125 84.22083 37.925 84.75208Q38.26875 85.26771 38.45625 86.01771Q38.64375 86.76771 38.64375 88.04896Q38.64375 89.56458 38.33125 90.48646Q38.034374 91.40833 37.409374 91.92396Q36.8 92.42396 35.846874 92.42396Q34.6125 92.42396 33.89375 91.53333Q33.05 90.47083 33.05 88.04896ZM34.128124 88.04896Q34.128124 90.15833 34.628124 90.86146Q35.128124 91.56458 35.846874 91.56458Q36.58125 91.56458 37.065624 90.86146Q37.565624 90.15833 37.565624 88.04896Q37.565624 85.92396 37.065624 85.23646Q36.58125 84.53333 35.83125 84.53333Q35.1125 84.53333 34.675 85.14271Q34.128124 85.92396 34.128124 88.04896Z" fill-rule="nonzero"/><path fill="#000000" d="M155.37105 347.2L156.48042 347.10626Q156.60542 347.91876 157.04292 348.325Q157.49605 348.73126 158.13667 348.73126Q158.88667 348.73126 159.41792 348.15314Q159.94917 347.575 159.94917 346.6375Q159.94917 345.73126 159.43355 345.21564Q158.93355 344.6844 158.10542 344.6844Q157.60542 344.6844 157.18355 344.91876Q156.7773 345.15314 156.54292 345.5125L155.55855 345.3875L156.38667 340.98126L160.66792 340.98126L160.66792 341.98126L157.23042 341.98126L156.7773 344.29376Q157.54292 343.7469 158.38667 343.7469Q159.51167 343.7469 160.2773 344.52814Q161.05855 345.3094 161.05855 346.54376Q161.05855 347.7 160.38667 348.5594Q159.55855 349.59064 158.13667 349.59064Q156.9648 349.59064 156.2148 348.9344Q155.48042 348.27814 155.37105 347.2Z" fill-rule="nonzero"/><path fill="#000000" d="M296.86612 349.45L295.81924 349.45L295.81924 342.73126Q295.42862 343.09064 294.80362 343.46564Q294.19424 343.825 293.70987 343.9969L293.70987 342.98126Q294.58487 342.5594 295.24112 341.98126Q295.913 341.3875 296.19424 340.825L296.86612 340.825L296.86612 349.45ZM299.89737 345.21564Q299.89737 343.6844 300.20987 342.7625Q300.52237 341.825 301.13174 341.325Q301.75674 340.825 302.69424 340.825Q303.38174 340.825 303.89737 341.10626Q304.42862 341.3875 304.77237 341.91876Q305.11612 342.4344 305.30362 343.1844Q305.49112 343.9344 305.49112 345.21564Q305.49112 346.73126 305.17862 347.65314Q304.88174 348.575 304.25674 349.09064Q303.64737 349.59064 302.69424 349.59064Q301.45987 349.59064 300.74112 348.7Q299.89737 347.6375 299.89737 345.21564ZM300.9755 345.21564Q300.9755 347.325 301.4755 348.02814Q301.9755 348.73126 302.69424 348.73126Q303.42862 348.73126 303.913 348.02814Q304.413 347.325 304.413 345.21564Q304.413 343.09064 303.913 342.40314Q303.42862 341.7 302.67862 341.7Q301.95987 341.7 301.52237 342.3094Q300.9755 343.09064 300.9755 345.21564Z" fill-rule="nonzero"/><path fill="#000000" d="M437.89243 349.45L436.84555 349.45L436.84555 342.73126Q436.45493 343.09064 435.82993 343.46564Q435.22055 343.825 434.73618 343.9969L434.73618 342.98126Q435.61118 342.5594 436.26743 341.98126Q436.9393 341.3875 437.22055 340.825L437.89243 340.825L437.89243 349.45ZM440.92368 347.2L442.03305 347.10626Q442.15805 347.91876 442.59555 348.325Q443.04868 348.73126 443.6893 348.73126Q444.4393 348.73126 444.97055 348.15314Q445.5018 347.575 445.5018 346.6375Q445.5018 345.73126 444.98618 345.21564Q444.48618 344.6844 443.65805 344.6844Q443.15805 344.6844 442.73618 344.91876Q442.32993 345.15314 442.09555 345.5125L441.11118 345.3875L441.9393 340.98126L446.22055 340.98126L446.22055 341.98126L442.78305 341.98126L442.32993 344.29376Q443.09555 343.7469 443.9393 343.7469Q445.0643 343.7469 445.82993 344.52814Q446.61118 345.3094 446.61118 346.54376Q446.61118 347.7 445.9393 348.5594Q445.11118 349.59064 443.6893 349.59064Q442.51743 349.59064 441.76743 348.9344Q441.03305 348.27814 440.92368 347.2Z" fill-rule="nonzero"/><path fill="#000000" d="M580.4969 348.4344L580.4969 349.45L574.8094 349.45Q574.8094 349.075 574.9344 348.71564Q575.15314 348.1375 575.6219 347.575Q576.10626 347.0125 577.0125 346.27814Q578.41876 345.1219 578.90314 344.45Q579.40314 343.77814 579.40314 343.1844Q579.40314 342.5594 578.95 342.1375Q578.4969 341.7 577.77814 341.7Q577.0125 341.7 576.5594 342.15314Q576.10626 342.60626 576.09064 343.41876L575.0125 343.3094Q575.1219 342.09064 575.84064 341.46564Q576.575 340.825 577.8094 340.825Q579.04376 340.825 579.7625 341.5125Q580.48126 342.2 580.48126 343.21564Q580.48126 343.73126 580.2625 344.23126Q580.0594 344.71564 579.5594 345.27814Q579.075 345.825 577.95 346.77814Q576.9969 347.575 576.71564 347.8719Q576.45 348.15314 576.27814 348.4344L580.4969 348.4344ZM581.95 345.21564Q581.95 343.6844 582.2625 342.7625Q582.575 341.825 583.1844 341.325Q583.8094 340.825 584.7469 340.825Q585.4344 340.825 585.95 341.10626Q586.48126 341.3875 586.825 341.91876Q587.16876 342.4344 587.35626 343.1844Q587.54376 343.9344 587.54376 345.21564Q587.54376 346.73126 587.23126 347.65314Q586.9344 348.575 586.3094 349.09064Q585.7 349.59064 584.7469 349.59064Q583.5125 349.59064 582.79376 348.7Q581.95 347.6375 581.95 345.21564ZM583.02814 345.21564Q583.02814 347.325 583.52814 348.02814Q584.02814 348.73126 584.7469 348.73126Q585.48126 348.73126 585.96564 348.02814Q586.46564 347.325 586.46564 345.21564Q586.46564 343.09064 585.96564 342.40314Q585.48126 341.7 584.73126 341.7Q584.0125 341.7 583.575 342.3094Q583.02814 343.09064 583.02814 345.21564Z" fill-rule="nonzero"/><path stroke="#4285f4" stroke-width="4.0" stroke-linecap="butt" d="M227.0 61.916668L239.0 61.916668" fill-rule="nonzero"/><path fill="#1a1a1a" d="M247.54688 63.15104L248.60938 63.05729Q248.6875 63.71354 248.96875 64.11979Q249.25 64.52604 249.82812 64.791664Q250.42188 65.041664 251.15625 65.041664Q251.79688 65.041664 252.29688 64.854164Q252.79688 64.65104 253.03125 64.322914Q253.28125 63.979164 253.28125 63.58854Q253.28125 63.18229 253.04688 62.885414Q252.8125 62.572914 252.28125 62.36979Q251.92188 62.229164 250.73438 61.947914Q249.5625 61.666664 249.09375 61.416664Q248.46875 61.08854 248.17188 60.61979Q247.875 60.135414 247.875 59.541664Q247.875 58.90104 248.23438 58.33854Q248.60938 57.760414 249.3125 57.479164Q250.03125 57.18229 250.89062 57.18229Q251.84375 57.18229 252.57812 57.49479Q253.3125 57.791664 253.70312 58.40104Q254.09375 58.99479 254.125 59.74479L253.03125 59.822914Q252.9375 59.010414 252.42188 58.604164Q251.92188 58.18229 250.9375 58.18229Q249.90625 58.18229 249.4375 58.55729Q248.96875 58.93229 248.96875 59.46354Q248.96875 59.93229 249.29688 60.229164Q249.625 60.52604 251.0 60.83854Q252.39062 61.15104 252.90625 61.385414Q253.65625 61.74479 254.01562 62.27604Q254.375 62.791664 254.375 63.49479Q254.375 64.18229 253.98438 64.791664Q253.59375 65.385414 252.85938 65.729164Q252.125 66.05729 251.20312 66.05729Q250.03125 66.05729 249.23438 65.729164Q248.45312 65.385414 248.0 64.697914Q247.5625 64.010414 247.54688 63.15104ZM262.4375 64.99479Q263.23438 65.541664 263.89062 65.791664L263.5625 66.58854Q262.64062 66.24479 261.71875 65.52604Q260.76562 66.05729 259.60938 66.05729Q258.4375 66.05729 257.48438 65.49479Q256.54688 64.93229 256.03125 63.916664Q255.51562 62.90104 255.51562 61.61979Q255.51562 60.354164 256.03125 59.30729Q256.54688 58.260414 257.5 57.71354Q258.45312 57.166664 259.625 57.166664Q260.8125 57.166664 261.76562 57.74479Q262.73438 58.30729 263.23438 59.322914Q263.73438 60.33854 263.73438 61.61979Q263.73438 62.68229 263.40625 63.52604Q263.09375 64.36979 262.4375 64.99479ZM259.9375 63.541664Q260.92188 63.822914 261.5625 64.36979Q262.5625 63.447914 262.5625 61.61979Q262.5625 60.572914 262.20312 59.791664Q261.84375 59.010414 261.15625 58.58854Q260.48438 58.15104 259.64062 58.15104Q258.35938 58.15104 257.51562 59.02604Q256.6875 59.885414 256.6875 61.61979Q256.6875 63.291664 257.51562 64.197914Q258.34375 65.08854 259.64062 65.08854Q260.25 65.08854 260.78125 64.854164Q260.25 64.510414 259.65625 64.36979L259.9375 63.541664ZM264.375 63.33854L264.375 62.27604L267.625 62.27604L267.625 63.33854L264.375 63.33854ZM274.04688 64.90104L274.04688 65.916664L268.35938 65.916664Q268.35938 65.541664 268.48438 65.18229Q268.70312 64.604164 269.17188 64.041664Q269.65625 63.479164 270.5625 62.74479Q271.96875 61.58854 272.45312 60.916664Q272.95312 60.24479 272.95312 59.65104Q272.95312 59.02604 272.5 58.604164Q272.04688 58.166664 271.32812 58.166664Q270.5625 58.166664 270.10938 58.61979Q269.65625 59.072914 269.64062 59.885414L268.5625 59.77604Q268.67188 58.55729 269.39062 57.93229Q270.125 57.291664 271.35938 57.291664Q272.59375 57.291664 273.3125 57.979164Q274.03125 58.666664 274.03125 59.68229Q274.03125 60.197914 273.8125 60.697914Q273.60938 61.18229 273.10938 61.74479Q272.625 62.291664 271.5 63.24479Q270.54688 64.041664 270.26562 64.33854Q270.0 64.61979 269.82812 64.90104L274.04688 64.90104ZM275.92188 65.916664L275.92188 57.322914L279.17188 57.322914Q280.01562 57.322914 280.46875 57.40104Q281.10938 57.510414 281.53125 57.80729Q281.96875 58.104164 282.21875 58.635414Q282.48438 59.166664 282.48438 59.80729Q282.48438 60.90104 281.78125 61.666664Q281.09375 62.416664 279.26562 62.416664L277.0625 62.416664L277.0625 65.916664L275.92188 65.916664ZM277.0625 61.416664L279.28125 61.416664Q280.39062 61.416664 280.84375 61.010414Q281.3125 60.58854 281.3125 59.83854Q281.3125 59.30729 281.03125 58.93229Q280.76562 58.541664 280.32812 58.416664Q280.03125 58.33854 279.26562 58.33854L277.0625 58.33854L277.0625 61.416664ZM283.9375 65.916664L283.9375 57.322914L287.75 57.322914Q288.90625 57.322914 289.5 57.55729Q290.09375 57.791664 290.45312 58.385414Q290.8125 58.96354 290.8125 59.666664Q290.8125 60.58854 290.21875 61.21354Q289.625 61.83854 288.39062 62.010414Q288.84375 62.229164 289.07812 62.43229Q289.57812 62.885414 290.01562 63.572914L291.51562 65.916664L290.07812 65.916664L288.95312 64.135414Q288.45312 63.354164 288.125 62.947914Q287.8125 62.541664 287.54688 62.385414Q287.29688 62.21354 287.03125 62.135414Q286.84375 62.104164 286.40625 62.104164L285.07812 62.104164L285.07812 65.916664L283.9375 65.916664ZM285.07812 61.11979L287.53125 61.11979Q288.29688 61.11979 288.73438 60.96354Q289.1875 60.791664 289.40625 60.447914Q289.64062 60.08854 289.64062 59.666664Q289.64062 59.05729 289.1875 58.666664Q288.75 58.27604 287.79688 58.27604L285.07812 58.27604L285.07812 61.11979Z" fill-rule="nonzero"/><path stroke="#ea4335" stroke-width="4.0" stroke-linecap="butt" d="M308.0 61.916668L320.0 61.916668" fill-rule="nonzero"/><path fill="#1a1a1a" d="M328.92188 65.916664L328.92188 57.322914L332.17188 57.322914Q333.01562 57.322914 333.46875 57.40104Q334.10938 57.510414 334.53125 57.80729Q334.96875 58.104164 335.21875 58.635414Q335.48438 59.166664 335.48438 59.80729Q335.48438 60.90104 334.78125 61.666664Q334.09375 62.416664 332.26562 62.416664L330.0625 62.416664L330.0625 65.916664L328.92188 65.916664ZM330.0625 61.416664L332.28125 61.416664Q333.39062 61.416664 333.84375 61.010414Q334.3125 60.58854 334.3125 59.83854Q334.3125 59.30729 334.03125 58.93229Q333.76562 58.541664 333.32812 58.416664Q333.03125 58.33854 332.26562 58.33854L330.0625 58.33854L330.0625 61.416664ZM336.9375 65.916664L336.9375 57.322914L340.75 57.322914Q341.90625 57.322914 342.5 57.55729Q343.09375 57.791664 343.45312 58.385414Q343.8125 58.96354 343.8125 59.666664Q343.8125 60.58854 343.21875 61.21354Q342.625 61.83854 341.39062 62.010414Q341.84375 62.229164 342.07812 62.43229Q342.57812 62.885414 343.01562 63.572914L344.51562 65.916664L343.07812 65.916664L341.95312 64.135414Q341.45312 63.354164 341.125 62.947914Q340.8125 62.541664 340.54688 62.385414Q340.29688 62.21354 340.03125 62.135414Q339.84375 62.104164 339.40625 62.104164L338.07812 62.104164L338.07812 65.916664L336.9375 65.916664ZM338.07812 61.11979L340.53125 61.11979Q341.29688 61.11979 341.73438 60.96354Q342.1875 60.791664 342.40625 60.447914Q342.64062 60.08854 342.64062 59.666664Q342.64062 59.05729 342.1875 58.666664Q341.75 58.27604 340.79688 58.27604L338.07812 58.27604L338.07812 61.11979ZM345.375 63.33854L345.375 62.27604L348.625 62.27604L348.625 63.33854L345.375 63.33854ZM355.04688 64.90104L355.04688 65.916664L349.35938 65.916664Q349.35938 65.541664 349.48438 65.18229Q349.70312 64.604164 350.17188 64.041664Q350.65625 63.479164 351.5625 62.74479Q352.96875 61.58854 353.45312 60.916664Q353.95312 60.24479 353.95312 59.65104Q353.95312 59.02604 353.5 58.604164Q353.04688 58.166664 352.32812 58.166664Q351.5625 58.166664 351.10938 58.61979Q350.65625 59.072914 350.64062 59.885414L349.5625 59.77604Q349.67188 58.55729 350.39062 57.93229Q351.125 57.291664 352.35938 57.291664Q353.59375 57.291664 354.3125 57.979164Q355.03125 58.666664 355.03125 59.68229Q355.03125 60.197914 354.8125 60.697914Q354.60938 61.18229 354.10938 61.74479Q353.625 62.291664 352.5 63.24479Q351.54688 64.041664 351.26562 64.33854Q351.0 64.61979 350.82812 64.90104L355.04688 64.90104ZM356.92188 65.916664L356.92188 57.322914L360.17188 57.322914Q361.01562 57.322914 361.46875 57.40104Q362.10938 57.510414 362.53125 57.80729Q362.96875 58.104164 363.21875 58.635414Q363.48438 59.166664 363.48438 59.80729Q363.48438 60.90104 362.78125 61.666664Q362.09375 62.416664 360.26562 62.416664L358.0625 62.416664L358.0625 65.916664L356.92188 65.916664ZM358.0625 61.416664L360.28125 61.416664Q361.39062 61.416664 361.84375 61.010414Q362.3125 60.58854 362.3125 59.83854Q362.3125 59.30729 362.03125 58.93229Q361.76562 58.541664 361.32812 58.416664Q361.03125 58.33854 360.26562 58.33854L358.0625 58.33854L358.0625 61.416664ZM364.9375 65.916664L364.9375 57.322914L368.75 57.322914Q369.90625 57.322914 370.5 57.55729Q371.09375 57.791664 371.45312 58.385414Q371.8125 58.96354 371.8125 59.666664Q371.8125 60.58854 371.21875 61.21354Q370.625 61.83854 369.39062 62.010414Q369.84375 62.229164 370.07812 62.43229Q370.57812 62.885414 371.01562 63.572914L372.51562 65.916664L371.07812 65.916664L369.95312 64.135414Q369.45312 63.354164 369.125 62.947914Q368.8125 62.541664 368.54688 62.385414Q368.29688 62.21354 368.03125 62.135414Q367.84375 62.104164 367.40625 62.104164L366.07812 62.104164L366.07812 65.916664L364.9375 65.916664ZM366.07812 61.11979L368.53125 61.11979Q369.29688 61.11979 369.73438 60.96354Q370.1875 60.791664 370.40625 60.447914Q370.64062 60.08854 370.64062 59.666664Q370.64062 59.05729 370.1875 58.666664Q369.75 58.27604 368.79688 58.27604L366.07812 58.27604L366.07812 61.11979Z" fill-rule="nonzero"/><path fill="#757575" d="M19.45625 32.95625L21.2375 32.8Q21.3625 33.8625 21.815624 34.55Q22.284374 35.2375 23.253124 35.675Q24.2375 36.096874 25.471874 36.096874Q26.55 36.096874 27.378124 35.784374Q28.20625 35.45625 28.6125 34.89375Q29.01875 34.33125 29.01875 33.659374Q29.01875 32.9875 28.628124 32.4875Q28.2375 31.9875 27.346874 31.64375Q26.76875 31.409374 24.784374 30.940624Q22.815624 30.471874 22.034374 30.05Q21.003124 29.51875 20.503124 28.721874Q20.003124 27.925 20.003124 26.940624Q20.003124 25.846874 20.6125 24.909374Q21.221874 23.971874 22.409374 23.4875Q23.596874 22.9875 25.034374 22.9875Q26.628124 22.9875 27.846874 23.503124Q29.065624 24.01875 29.70625 25.01875Q30.3625 26.003124 30.409374 27.26875L28.596874 27.409374Q28.45625 26.05 27.6125 25.3625Q26.76875 24.659374 25.1125 24.659374Q23.39375 24.659374 22.596874 25.3Q21.815624 25.925 21.815624 26.8Q21.815624 27.58125 22.378124 28.08125Q22.925 28.58125 25.2375 29.096874Q27.55 29.6125 28.409374 30.003124Q29.659374 30.58125 30.253124 31.471874Q30.846874 32.346874 30.846874 33.503124Q30.846874 34.64375 30.190624 35.659374Q29.534374 36.675 28.3 37.2375Q27.08125 37.8 25.55 37.8Q23.6125 37.8 22.3 37.2375Q20.9875 36.659374 20.2375 35.51875Q19.4875 34.378124 19.45625 32.95625ZM43.940624 36.01875Q45.26875 36.925 46.378124 37.346874L45.815624 38.659374Q44.26875 38.1125 42.7375 36.909374Q41.14375 37.8 39.221874 37.8Q37.284374 37.8 35.690624 36.8625Q34.1125 35.925 33.253124 34.221874Q32.409374 32.51875 32.409374 30.39375Q32.409374 28.26875 33.26875 26.534374Q34.128124 24.8 35.70625 23.89375Q37.3 22.971874 39.26875 22.971874Q41.253124 22.971874 42.83125 23.925Q44.425 24.8625 45.253124 26.565624Q46.096874 28.253124 46.096874 30.378124Q46.096874 32.14375 45.565624 33.565624Q45.034374 34.971874 43.940624 36.01875ZM39.76875 33.596874Q41.409374 34.05 42.471874 34.95625Q44.14375 33.440624 44.14375 30.378124Q44.14375 28.64375 43.55 27.346874Q42.971874 26.05 41.83125 25.33125Q40.690624 24.6125 39.26875 24.6125Q37.159374 24.6125 35.753124 26.065624Q34.3625 27.503124 34.3625 30.39375Q34.3625 33.190624 35.7375 34.690624Q37.128124 36.175 39.26875 36.175Q40.284374 36.175 41.190624 35.784374Q40.3 35.221874 39.315624 34.971874L39.76875 33.596874ZM48.190624 33.253124L48.190624 31.4875L53.58125 31.4875L53.58125 33.253124L48.190624 33.253124ZM64.6125 35.8625L64.6125 37.55L55.159374 37.55Q55.14375 36.909374 55.3625 36.33125Q55.721874 35.3625 56.51875 34.425Q57.315624 33.4875 58.815624 32.253124Q61.159374 30.346874 61.971874 29.2375Q62.8 28.1125 62.8 27.1125Q62.8 26.065624 62.05 25.346874Q61.3 24.628124 60.096874 24.628124Q58.83125 24.628124 58.065624 25.39375Q57.3 26.159374 57.3 27.503124L55.4875 27.315624Q55.675 25.3 56.878124 24.2375Q58.096874 23.175 60.14375 23.175Q62.190624 23.175 63.39375 24.315624Q64.59688 25.45625 64.59688 27.14375Q64.59688 28.003124 64.2375 28.846874Q63.89375 29.675 63.08125 30.596874Q62.26875 31.503124 60.378124 33.1125Q58.784374 34.440624 58.33125 34.909374Q57.89375 35.378124 57.596874 35.8625L64.6125 35.8625ZM67.09688 37.55L67.09688 23.2375L72.4875 23.2375Q73.925 23.2375 74.675 23.3625Q75.72188 23.55 76.44063 24.05Q77.15938 24.534374 77.58125 25.425Q78.01875 26.315624 78.01875 27.378124Q78.01875 29.20625 76.84688 30.471874Q75.69063 31.721874 72.65938 31.721874L68.9875 31.721874L68.9875 37.55L67.09688 37.55ZM68.9875 30.034374L72.69063 30.034374Q74.51875 30.034374 75.28438 29.3625Q76.06563 28.675 76.06563 27.425Q76.06563 26.534374 75.6125 25.89375Q75.15938 25.253124 74.425 25.05Q73.94063 24.925 72.64375 24.925L68.9875 24.925L68.9875 30.034374ZM80.12813 37.55L80.12813 23.2375L86.47188 23.2375Q88.37813 23.2375 89.37813 23.628124Q90.37813 24.003124 90.97188 24.9875Q91.56563 25.95625 91.56563 27.14375Q91.56563 28.659374 90.58125 29.70625Q89.59688 30.753124 87.53438 31.034374Q88.28438 31.39375 88.675 31.753124Q89.50313 32.503124 90.25313 33.659374L92.7375 37.55L90.3625 37.55L88.45625 34.565624Q87.62813 33.284374 87.09688 32.596874Q86.56563 31.909374 86.12813 31.64375Q85.70625 31.3625 85.26875 31.253124Q84.94063 31.190624 84.22188 31.190624L82.01875 31.190624L82.01875 37.55L80.12813 37.55ZM82.01875 29.55L86.09688 29.55Q87.39375 29.55 88.1125 29.284374Q88.84688 29.01875 89.22188 28.425Q89.6125 27.83125 89.6125 27.14375Q89.6125 26.128124 88.87813 25.471874Q88.14375 24.815624 86.55 24.815624L82.01875 24.815624L82.01875 29.55ZM108.05 35.8625Q107.19063 36.83125 106.15938 37.315624Q105.12813 37.8 103.94063 37.8Q101.7375 37.8 100.45625 36.315624Q99.40938 35.096874 99.40938 33.596874Q99.40938 32.26875 100.25313 31.20625Q101.1125 30.14375 102.81563 29.33125Q101.84688 28.20625 101.51875 27.51875Q101.20625 26.83125 101.20625 26.175Q101.20625 24.89375 102.20625 23.940624Q103.22188 22.9875 104.76875 22.9875Q106.22188 22.9875 107.15938 23.89375Q108.09688 24.784374 108.09688 26.05Q108.09688 28.08125 105.39375 29.534374L107.95625 32.8Q108.39375 31.940624 108.64375 30.815624L110.47188 31.20625Q110.00313 33.08125 109.19063 34.284374Q110.175 35.596874 111.425 36.4875L110.25313 37.878124Q109.19063 37.190624 108.05 35.8625ZM104.47188 28.39375Q105.62813 27.721874 105.95625 27.221874Q106.3 26.70625 106.3 26.096874Q106.3 25.3625 105.83125 24.909374Q105.3625 24.440624 104.675 24.440624Q103.95625 24.440624 103.4875 24.89375Q103.01875 25.346874 103.01875 26.01875Q103.01875 26.346874 103.19063 26.721874Q103.3625 27.08125 103.69063 27.4875L104.47188 28.39375ZM106.95625 34.471874L103.72188 30.471874Q102.3 31.33125 101.8 32.065624Q101.3 32.784374 101.3 33.503124Q101.3 34.3625 101.9875 35.3Q102.69063 36.2375 103.95625 36.2375Q104.75313 36.2375 105.59688 35.753124Q106.44063 35.253124 106.95625 34.471874ZM119.09688 37.55L119.09688 23.2375L124.4875 23.2375Q125.925 23.2375 126.675 23.3625Q127.72188 23.55 128.44063 24.05Q129.15938 24.534374 129.58125 25.425Q130.01875 26.315624 130.01875 27.378124Q130.01875 29.20625 128.84688 30.471874Q127.69063 31.721874 124.65938 31.721874L120.9875 31.721874L120.9875 37.55L119.09688 37.55ZM120.9875 30.034374L124.69063 30.034374Q126.51875 30.034374 127.28438 29.3625Q128.06563 28.675 128.06563 27.425Q128.06563 26.534374 127.6125 25.89375Q127.15938 25.253124 126.425 25.05Q125.94063 24.925 124.64375 24.925L120.9875 24.925L120.9875 30.034374ZM132.12813 37.55L132.12813 23.2375L138.47188 23.2375Q140.37813 23.2375 141.37813 23.628124Q142.37813 24.003124 142.97188 24.9875Q143.56563 25.95625 143.56563 27.14375Q143.56563 28.659374 142.58125 29.70625Q141.59688 30.753124 139.53438 31.034374Q140.28438 31.39375 140.675 31.753124Q141.50313 32.503124 142.25313 33.659374L144.7375 37.55L142.3625 37.55L140.45625 34.565624Q139.62813 33.284374 139.09688 32.596874Q138.56563 31.909374 138.12813 31.64375Q137.70625 31.3625 137.26875 31.253124Q136.94063 31.190624 136.22188 31.190624L134.01875 31.190624L134.01875 37.55L132.12813 37.55ZM134.01875 29.55L138.09688 29.55Q139.39375 29.55 140.1125 29.284374Q140.84688 29.01875 141.22188 28.425Q141.6125 27.83125 141.6125 27.14375Q141.6125 26.128124 140.87813 25.471874Q140.14375 24.815624 138.55 24.815624L134.01875 24.815624L134.01875 29.55ZM145.19063 33.253124L145.19063 31.4875L150.58125 31.4875L150.58125 33.253124L145.19063 33.253124ZM161.6125 35.8625L161.6125 37.55L152.15938 37.55Q152.14375 36.909374 152.3625 36.33125Q152.72188 35.3625 153.51875 34.425Q154.31563 33.4875 155.81563 32.253124Q158.15938 30.346874 158.97188 29.2375Q159.8 28.1125 159.8 27.1125Q159.8 26.065624 159.05 25.346874Q158.3 24.628124 157.09688 24.628124Q155.83125 24.628124 155.06563 25.39375Q154.3 26.159374 154.3 27.503124L152.4875 27.315624Q152.675 25.3 153.87813 24.2375Q155.09688 23.175 157.14375 23.175Q159.19063 23.175 160.39375 24.315624Q161.59688 25.45625 161.59688 27.14375Q161.59688 28.003124 161.2375 28.846874Q160.89375 29.675 160.08125 30.596874Q159.26875 31.503124 157.37813 33.1125Q155.78438 34.440624 155.33125 34.909374Q154.89375 35.378124 154.59688 35.8625L161.6125 35.8625ZM164.09688 37.55L164.09688 23.2375L169.4875 23.2375Q170.925 23.2375 171.675 23.3625Q172.72188 23.55 173.44063 24.05Q174.15938 24.534374 174.58125 25.425Q175.01875 26.315624 175.01875 27.378124Q175.01875 29.20625 173.84688 30.471874Q172.69063 31.721874 169.65938 31.721874L165.9875 31.721874L165.9875 37.55L164.09688 37.55ZM165.9875 30.034374L169.69063 30.034374Q171.51875 30.034374 172.28438 29.3625Q173.06563 28.675 173.06563 27.425Q173.06563 26.534374 172.6125 25.89375Q172.15938 25.253124 171.425 25.05Q170.94063 24.925 169.64375 24.925L165.9875 24.925L165.9875 30.034374ZM177.12813 37.55L177.12813 23.2375L183.47188 23.2375Q185.37813 23.2375 186.37813 23.628124Q187.37813 24.003124 187.97188 24.9875Q188.56563 25.95625 188.56563 27.14375Q188.56563 28.659374 187.58125 29.70625Q186.59688 30.753124 184.53438 31.034374Q185.28438 31.39375 185.675 31.753124Q186.50313 32.503124 187.25313 33.659374L189.7375 37.55L187.3625 37.55L185.45625 34.565624Q184.62813 33.284374 184.09688 32.596874Q183.56563 31.909374 183.12813 31.64375Q182.70625 31.3625 182.26875 31.253124Q181.94063 31.190624 181.22188 31.190624L179.01875 31.190624L179.01875 37.55L177.12813 37.55ZM179.01875 29.55L183.09688 29.55Q184.39375 29.55 185.1125 29.284374Q185.84688 29.01875 186.22188 28.425Q186.6125 27.83125 186.6125 27.14375Q186.6125 26.128124 185.87813 25.471874Q185.14375 24.815624 183.55 24.815624L179.01875 24.815624L179.01875 29.55ZM200.22188 41.753124Q198.76875 39.925 197.76875 37.471874Q196.76875 35.003124 196.76875 32.3625Q196.76875 30.034374 197.51875 27.909374Q198.39375 25.440624 200.22188 22.9875L201.4875 22.9875Q200.3 25.01875 199.925 25.89375Q199.33125 27.2375 198.9875 28.70625Q198.56563 30.534374 198.56563 32.378124Q198.56563 37.065624 201.4875 41.753124L200.22188 41.753124ZM210.97188 34.20625L212.78438 34.440624Q212.3625 36.01875 211.19063 36.909374Q210.03438 37.784374 208.22188 37.784374Q205.95625 37.784374 204.6125 36.39375Q203.28438 34.9875 203.28438 32.45625Q203.28438 29.83125 204.62813 28.39375Q205.97188 26.940624 208.12813 26.940624Q210.20625 26.940624 211.51875 28.3625Q212.84688 29.76875 212.84688 32.346874Q212.84688 32.503124 212.83125 32.815624L205.09688 32.815624Q205.19063 34.51875 206.06563 35.425Q206.94063 36.33125 208.2375 36.33125Q209.20625 36.33125 209.87813 35.83125Q210.56563 35.315624 210.97188 34.20625ZM205.19063 31.3625L210.9875 31.3625Q210.87813 30.065624 210.33125 29.409374Q209.4875 28.39375 208.14375 28.39375Q206.94063 28.39375 206.1125 29.20625Q205.28438 30.003124 205.19063 31.3625ZM223.6125 35.8625L223.6125 37.55L214.15938 37.55Q214.14375 36.909374 214.3625 36.33125Q214.72188 35.3625 215.51875 34.425Q216.31563 33.4875 217.81563 32.253124Q220.15938 30.346874 220.97188 29.2375Q221.8 28.1125 221.8 27.1125Q221.8 26.065624 221.05 25.346874Q220.3 24.628124 219.09688 24.628124Q217.83125 24.628124 217.06563 25.39375Q216.3 26.159374 216.3 27.503124L214.4875 27.315624Q214.675 25.3 215.87813 24.2375Q217.09688 23.175 219.14375 23.175Q221.19063 23.175 222.39375 24.315624Q223.59688 25.45625 223.59688 27.14375Q223.59688 28.003124 223.2375 28.846874Q222.89375 29.675 222.08125 30.596874Q221.26875 31.503124 219.37813 33.1125Q217.78438 34.440624 217.33125 34.909374Q216.89375 35.378124 216.59688 35.8625L223.6125 35.8625ZM227.01875 41.753124L225.76875 41.753124Q228.675 37.065624 228.675 32.378124Q228.675 30.534374 228.26875 28.7375Q227.925 27.26875 227.33125 25.925Q226.95625 25.034374 225.76875 22.9875L227.01875 22.9875Q228.8625 25.440624 229.7375 27.909374Q230.4875 30.034374 230.4875 32.3625Q230.4875 35.003124 229.47188 37.471874Q228.47188 39.925 227.01875 41.753124Z" fill-rule="nonzero"/></svg>